<?xml version="1.0" encoding="utf-8"?>
<!-- Generator: Adobe Illustrator 24.0.0, SVG Export Plug-In . SVG Version: 6.00 Build 0)  -->
<svg version="1.1" id="Capa_1" xmlns="http://www.w3.org/2000/svg" xmlns:xlink="http://www.w3.org/1999/xlink" x="0px" y="0px"
	 viewBox="0 0 362 354" style="enable-background:new 0 0 362 354;" xml:space="preserve">
<style type="text/css">
	.st0{fill:#3D4948;}
	.st1{fill:#2A2D2F;}
	.st2{fill:#E6E6E6;}
	.st3{fill:#74D3EC;}
	.st4{fill:#282E2F;}
	.st5{fill:#5FABCA;}
	.st6{fill:#5EA9CA;}
	.st7{fill:#36AFE0;}
	.st8{fill:#B9E2F5;}
	.st9{fill:#B0E3FE;}
	.st10{fill:#5CA5C1;}
	.st11{fill:#2B292A;}
	.st12{fill:#3C4B49;}
	.st13{fill:#E7E5E3;}
	.st14{fill:none;stroke:#3D4948;stroke-miterlimit:10;}
	.st15{fill:#1F293E;}
	.st16{fill:#03A3C3;}
	.st17{fill:#2B2E30;}
	.st18{fill:#272D2E;}
	.st19{fill:#275188;}
	.st20{fill:#1D3148;}
	.st21{fill:#0EA7C9;}
	.st22{fill:#E2E5E5;}
	.st23{fill:#292D30;}
	.st24{fill:#26538A;}
	.st25{fill:#2EB5D8;}
	.st26{fill:#F3F5F7;}
	.st27{fill:#853D1C;}
	.st28{fill:#CFA6AA;}
	.st29{fill:#2C3132;}
	.st30{fill:#E6E7E6;}
	.st31{fill:#8A2C3E;}
	.st32{fill:#B3BECB;}
	.st33{fill:#2D2B31;}
	.st34{fill:#292F30;}
	.st35{fill:#3DB2DE;}
	.st36{fill:#31A8DA;}
	.st37{fill:#3DABE1;}
	.st38{fill:#B5E5FD;}
	.st39{fill:#242326;}
	.st40{fill:none;stroke:#000000;stroke-miterlimit:10;}
	.st41{fill:#292D2E;}
	.st42{fill:#B5E4F5;}
	.st43{fill:#03A3C3;stroke:#000000;stroke-miterlimit:10;}
	.st44{fill:#39846F;}
	.st45{fill:#009577;}
	.st46{fill:#006C4F;}
	.st47{fill:#A9D8D6;}
	.st48{fill:#9DC5C3;}
	.st49{fill:#CDE5FD;}
	.st50{fill:#EDFAFF;}
	.st51{fill:#EAFAFF;}
	.st52{fill:#FF0532;}
	.st53{fill:#A80023;}
	.st54{fill:#860019;}
	.st55{fill:#D0E6FE;}
</style>
<g id="Capa_4">
</g>
<g id="Capa_3">
	<g>
		<path class="st0" d="M-250.3,215c8.9,6.8,17,16.6,24.2,29.3c3.9,13.7,3.1,26-1.5,37c-4.8,8.4-13.4,14.6-25.7,18.7
			c-0.4,4.8,0.7,9.2,2.8,13.3c-2.2-1-4.3-0.6-6.4,1.6c-1,2.3-1.3,4.6-0.8,6.9l-3.1-1c-0.5-5.5-2.9-9.3-7.4-10.4
			c-3.7,2.7-5.1,6.3-4.3,10.7l-3.9-2.5c0.5-4.7-0.9-7.3-3.8-8.2c-4.5,1.4-6.5,5.1-7.2,9.9l-1.2-3.9c0.9-5.4,2.1-10.2,4.1-12.7
			c1.3-5.7,1.8-12.3,1.8-19.6l3.9-5.8l-1.2-14C-277.7,245.1-266.6,229.1-250.3,215z"/>
		<path class="st1" d="M-275.7,248c-1,10.2-1.4,19.7,1.2,26.6c2.7,4.7,6.2,7.9,10.5,9.5l-1.5,11c0,0,5.8,0.5,7.6,0
			c2.2-0.7,7.7-5.1,7.7-5.1c7.8-1.3,15.9-5.9,24.3-13.6c-2.6,9.4-10.6,17.5-27.4,23.6c-0.2,2.2-0.1,4.6,0.5,7.1
			c-3.1-1.7-6.1-3-8.9-3.1c-1.7,1.5-2.5,3-2.6,4.5l-2.1-5.1c-6-0.3-12.5,0.7-19.3,2.4c0.3-0.7,0.7-1.3,1.2-1.9
			c1.3-5.6,1.8-12.2,1.8-19.6c1.1-1.6,2.4-3.6,3.9-5.8l-1.2-14C-279.5,259.5-277.8,253.9-275.7,248z"/>
		<path class="st2" d="M-283.4,332c3.8-1.9,6-6.4,7-13.2c0.5-4.5-0.8-7.2-3.8-8.2c-4,1.4-6.6,4.6-7.2,9.9
			C-287.3,323.5-285.6,327.6-283.4,332z"/>
		<path class="st2" d="M-272.5,321.3c-0.9-4.7,0.8-8.2,4.3-10.7c4.1,0.8,6.5,4.2,7.4,10.4l0.9,9.5
			C-264.9,327.6-269.4,324.6-272.5,321.3z"/>
		<path class="st2" d="M-257.7,322c-0.3-2.6-0.1-4.9,0.8-6.9c1.7-1.6,3.7-2.3,6.4-1.6c5.4,2.8,7.2,8.6,8.3,15
			C-248,327-253.1,324.8-257.7,322z"/>
		<path class="st3" d="M-165.3,207c2.5,6.3,3.9,13.2,4.1,21l0,0c-2.1,19.8-11.5,35.6-29.6,46.8c-4.3,2.3-8.9,4-13.8,5.2l0,0
			c-7.2,1.7-15,2.3-23.3,1.8l0,0c0.1-0.1,0.1-0.2,0.2-0.3c0.6-1.2,1.2-2.7,1.9-4.7c0-0.1,0.1-0.2,0.1-0.3c0.2-0.5,0.3-1.1,0.5-1.6
			c0-0.1,0.1-0.3,0.1-0.4c0.8-3.2,1.4-6.6,1.6-10.3c0.3-5.8-0.4-12.3-2.5-19.9v-0.1c-0.6-3.6,0-8.6,0.9-13.9c0-0.2,0.1-0.4,0.1-0.6
			c5.4-24.5,15-46.9,29-67l14-18.6c3.6-0.4,7-1.2,9.4-3.9c0.9-2.6,1.9-5,2.9-7.2c1.7-4,4.4-8.3,7.4-12.7l2.3,0.7
			c0,5.9-0.5,11.4-2.3,16c-1.5,6.7-3.6,13.3-7.2,19.6c-1.9,6.5-2.4,13.6-1.8,21.2C-170.8,187.7-168.7,197.5-165.3,207z"/>
		<path class="st4" d="M-226.2,244.2c-6.6-11.6-13.9-20.8-22.3-27.7c7.5,5.8,15.2,10.6,23.2,13.8
			C-226.1,235.6-226.8,240.6-226.2,244.2z"/>
		<path class="st5" d="M-161.1,228c-2.1,19.9-11.6,35.7-29.6,46.9c-4.1,2.4-8.7,4.1-13.9,5.2l0,0c-7.1,1.5-15,2-23.3,1.8l0.1-0.3
			l1.9-4.7l0.1-0.4c0.2-0.5,0.3-1,0.4-1.6c0-0.1,0.1-0.3,0.1-0.4c0.9-3.4,1.4-6.9,1.6-10.3c0.4-6.7-0.4-13.3-2.4-19.9
			c0,0,0-0.1-0.1-0.1c-0.6-3.6,0-8.6,0.9-13.9c6.3,2.5,12.7,4.2,19.4,4.7C-186.3,237-169,236.9-161.1,228
			C-161.1,228.1-161.1,228.1-161.1,228z"/>
		<path class="st6" d="M-187.6,165.8c0,0,4.2,10.1,7.4,10.4c2.6,0.2,7.6-7.3,7.6-7.3s-5.6,2.4-7.5,2.1
			C-182.3,170.6-187.6,165.8-187.6,165.8z"/>
		<path class="st5" d="M-189.1,153.4c1.3,2.5,4.5,3.5,9,3.3c4.8,0,8.9-1.7,12.5-4.3c2.4-5.2,4-10.4,5.1-15.5
			c1.6-5.3,2.5-10.6,2.3-16l-2.3-0.7c-4.5,6.3-8,13-10.4,19.9c-2.2,2.5-5.5,3.6-9.4,3.9L-189.1,153.4z"/>
		<path class="st0" d="M-161.1,228c18.4,14.9,25.5,25.8,25.8,34.3c0.2,8.1-3.6,13.9-12.3,16.9c-2.9,1.7-4.4,3.5-3.9,5.1
			c0.2,2.9,2.3,5,5.8,6.3l9.4,4.3c-0.8,0.1-1.5,0.2-1.9,1c-0.4,0.6-0.4,1.4-0.1,2.3c-2-0.7-3.6-0.3-4.9,0.6
			c-0.4,0.6-0.5,1.2-0.2,1.9c-2.3-1.8-4.6-1.9-7-0.5c-1,0.8-1.8,1.6-2.2,2.7s-0.4,2.1,0.1,2.9c-4.6-1.5-9.5-2.3-14.7-2.5
			c-11-1-16.8-3.5-16.7-7.8c0-2.3,3-7.7,3-7.7s1.2-2.8,0.4-4.3c-1.6-2.9-4.4-4.3-10.1-8.7C-174.9,265.9-164.4,251-161.1,228z"/>
		<path class="st1" d="M-161.7,232.6c7.8,5.3,14.7,13.2,20.8,23.2c-4.5,5.7-7.9,11.1-7.3,15.7c-1.5,5-3.8,11.5-3.5,12.8
			c0.1,2.9,2.3,4.9,5.8,6.3c-2.1,0.9-3.9,1.9-4.2,2.9c-3.3-1-7.5-0.4-9,1.2c-1.6,1.7-1.7,6-1.2,9.3l-7.2-0.7
			c-10.2-1-16.9-2.3-16.7-7.8c0.6-2.9,1.7-5.4,3-7.7c1-1.5,1-2.9,0.4-4.3c-2.3-3.2-6-6-10.1-8.7
			C-175.3,264.9-164.7,251.5-161.7,232.6z"/>
		<path class="st7" d="M-116,221.9c-2-3.2-6.7-9.1-6.8-13.2c-0.6-4.6,1.6-5.9,4.5-6.4c2-0.4,3.3-1.2,3.7-2.1
			c0.3-1.9,0.8-3.9,1.6-4.9c2-2.3,6.5-4.5,11.2-4.8c0,0,15,3.9,20.1,3.1c2.3-0.4,7.6-2,8.2-4.2c0.4-1.7-3.9-4.3-3.9-6.1
			c0-2.7,5.4-5.8,7.4-7.6c1.3-1.2,2.9-4.8,4.5-5.8c1.9-1.1,6.6-1.3,8.9-1.1c3.4,0.4,10,3.3,13.4,3.1c1-0.1,2.9-1,3.6-1.6
			c1.1-1,2.8-3.6,3.8-4.8c2.4-2.9,10.5-0.7,10.5,0.7c0,0-6.7,0.6-8.1,2.1c-0.7,0.8-1,3.1-0.8,4.1c0.4,1.7,1.3,5.2-0.5,6.1
			c-1.2,0.6-4,0.8-5.4,0.9c-2.2,0.2-6.8-0.1-8.7,0.9c-2.2,1.2-6.2,8-6.2,8s3.5-2.5,4.9-2.9c2.4-0.7,7.8,0.3,7.1,0.8
			c0,0-6.5,2.5-7.7,4.5c-0.9,1.5,0.3,5.5-0.5,7.1c-0.4,0.9-2.7,1.5-3.3,2.3c-1.2,1.7,0.3,6.5-0.7,8.3c-0.6,1.1-4.2,1.2-4.4,2.4
			c-0.2,2.1-0.6,4.4-1.9,4.6c-2,0.3-6,0.9-8,1.1c-2.5,0.2-7.8-0.6-9.9,0.6c-1.1,0.6-2.4,2.9-2.8,4c-0.6,1.5-0.6,5.1-1.7,6.2
			c-2.2,2.3-8.9,3.5-12,3.5c-2.9,0-8.8-0.2-11.6-1.2c-1.5-0.5-4.6-1.9-5.7-3.1C-114.2,225.4-115.4,223-116,221.9z"/>
		<path class="st8" d="M-114.8,221.3c-0.8-1.3-2.4-3.9-3.2-5.2c-0.8-1.3-2.3-4.5-1.6-5.8c0.4-0.9,3.1-0.8,3.3-1.6
			c0.3-1-0.7-4.5,1.5-5.6c1.5-0.7,4.8-1.7,6.4-1.5c2.2,0.3,6,3.3,8.2,3.8c1,0.2,3.5,0.7,3.9-0.2c0.5-1,0.5-3.7,1.7-4.4
			c1-0.5,3.1-1.6,4.2-1.7c3.3-0.3,4.8,1.5,6.4,2.4c1.2,0.6,4.2,1.1,5.1,0.8c1.2-0.5,0.6-3.5,1.3-4.7c0.4-0.7,1.6-1.7,2.4-1.9
			c1.3-0.2,3.8,2.2,5,1.6c1.3-0.6,1.7-4.1,1.6-5.6c-0.1-1.2-0.4-3.8-1-4.9c-0.6-1.1-2.8-2.5-3-3.7s0.7-3.6,1.5-4.4
			c0.8-0.8,3-1.5,3.9-2.1c0.8-0.6,2.5-1.8,3.1-2.6c0.7-1,0.5-3.7,1.4-4.5c1.2-1,4.6-0.8,6.1-0.8c3.4,0.2,10,3.4,13.4,3.1
			c1-0.1,2.8-1,3.6-1.6c0.3-0.2,0.5-1.2,0.9-1.1c1.2,0.4,0.5,3.8,0,5c-0.5,1.1-2.6,2.7-3.8,3.1c-1,0.3-3.2,0.2-4.1-0.2
			c-1-0.3-2.5-2.7-3.5-2.5c-1.4,0.2-1.7,3.6-3.1,3.8c-1.5,0.2-2.9-3-5.4-2.8c-1.6,0.1-4.1,2.6-5,3.9c-0.8,1.1-2,3.6-1.8,4.9
			c0.1,1.1,1.8,2.7,2.3,3.6c0.6,1.1,2.1,3.4,1.9,4.6c-0.2,1.7-3.5,3.9-4.3,5.5c-0.4,0.9-0.4,2.8-0.3,3.8s1,2.6,0.8,3.7
			c-0.3,1.4-2.5,3.5-3.7,4.2c-1,0.5-3,0.8-4.1,0.9c-0.9,0-2.7-0.4-3.5-0.2c-0.9,0.2-2.2,1.6-3.1,1.7c-1,0.2-3.1-0.8-4.1-0.7
			c-0.9,0.1-2.4,1-3.2,0.8c-0.7-0.2-1.6-1.2-2-1.9c-0.3-0.8,0.2-2.9-0.5-3.4c-0.9-0.6-3.2,0.4-4,1.1c-0.8,0.6-1.9,2.4-2.1,3.4
			c-0.1,1,0.6,2.8,1,3.7c0.4,0.8,1.8,1.9,2,2.7c0.1,0.7-0.3,2-0.8,2.5c-1.5,1.4-3.6,0.2-4.4,1.1c-0.8,0.9,0.5,3.1,0.1,4.2
			c-0.5,1.2-3,2.6-4.3,3.1c-1.3,0.4-4.3,0.4-5.7,0c-1.3-0.4-3.7-2-4.7-3C-113,224.6-114.2,222.4-114.8,221.3z"/>
		<path class="st9" d="M-54.9,188.1c0,0,0.2,4.5-0.5,5.7s-3.9,1.9-4.7,3.1c-0.3,0.5-0.2,1.9,0,2.4c0.7,1.6,5.2,4.8,5.2,4.8
			s-0.2-3.4,0.3-4.3c0.5-0.9,2.8-1.4,3.3-2.3c0.9-1.5-0.4-5.6,0.5-7.1c1.2-1.9,7.7-4.5,7.7-4.5c-2.2-1.4-7.1-0.9-7.1-0.8
			C-50.1,185.2-53.3,186.8-54.9,188.1z"/>
		<path class="st0" d="M-161.1,228l-0.8-8.8c8.6,3.3,17.3,5.7,26.2,5.4c10.2-0.2,19.1-1.3,23.6-5.1c0.2,0.2,0.6,0.5,1.2,1
			c1.3,0.4,2.5,0.2,3.5-0.4c-2.2,3.9-6.8,7.3-12.2,10.4c-7,2.6-14.5,4-22.4,4.1c-4.6,0.2-8.5-0.1-12.1-0.7L-161.1,228z"/>
		<path class="st10" d="M-147.4,240.6c1.6,0.3,7.5-1.1,7.5-1.1s13.7-4.3,20.2-9c-7.3,2.6-14.8,4.1-22.4,4.1l-12.1-0.7L-147.4,240.6z
			"/>
		<path class="st2" d="M-122.4,305.5c-1.9-5.2-5.4-9.5-14.1-10.7c-1,0.1-1.6,0.4-1.9,1c-0.4,0.6-0.4,1.4-0.1,2.3
			c3.6,0.6,7.2,5.7,7.5,5.9C-130.9,304.1-124.4,306-122.4,305.5z"/>
		<path class="st2" d="M-143.6,300.7c-0.3-0.8-0.1-1.4,0.2-1.9c1.6-1,3.3-1.2,4.9-0.6c3.4,0.4,7.5,5.9,7.5,5.9s2.8,3.5,2.9,5.4
			c-3.8-0.4-7.3-1.1-9.8-2.7C-139.5,304.3-141.3,301.9-143.6,300.7z"/>
		<path class="st2" d="M-152.7,305.8c-0.9-1.9-0.3-3.8,2.1-5.7c2.5-1.5,4.8-1.1,7,0.5c2.2,1.2,4,3.5,5.8,6.1l1.1,3.2
			C-142.9,308.7-148.6,307.3-152.7,305.8z"/>
		<path class="st5" d="M-278.8,257.9c-27.1-3.4-42.8-13.5-41.8-33.2c-2.7,11.5-0.8,24.2,16.5,41.2c7.2,6.1,15.6,9.8,25.2,10.9
			c-0.3-3.5-0.6-7.6-1-12.2C-279.7,262.3-279.3,260-278.8,257.9z"/>
		<path class="st11" d="M-277.6,252.9l-1.2,5c-28.4-3.6-42.9-14.4-41.8-33.2l2.3-8C-320,240.2-304.3,250.7-277.6,252.9z"/>
		<path class="st0" d="M-263.5,228.3c-12.4-3.7-19.1-8.9-21.2-15.4c10.6-4.1,21.9-3.6,33.7,0.6l2.2-10.2c-1.9,0.7-4.4,0.3-7.3-1
			c-2.8-1.3-4.1-3.2-4.5-5.4c-8.3-3.2-16.6-3.8-25.1-3.2c-19.1,1.4-28.8,9-32.6,23l-2.3,8c-1.2,20.2,15.5,29.6,41.8,33.2l1.2-5
			C-274.7,244.6-270,236.5-263.5,228.3z"/>
		<path class="st5" d="M-250.3,215l-0.8-1.5c-13-4.5-24.2-4.6-33.7-0.6c1.2,3.9,4.2,7.8,11.8,11.7c4.4-2.2,8.6-2.1,12.6,0
			L-250.3,215z"/>
		<path class="st12" d="M-261.8,185.8c1.2,3.8,1.6,7.5,1.1,11.1c0.3,2.2,1.8,4,4.5,5.4c2.1,1.2,4.5,1.6,7.3,1c3.9-1,8-2.1,9.3-3.1
			c5-2.5,8.7-5.4,11.5-8.5l5.1-11.5c-2.8-0.2-7.2-2.7-6.9-4h-7.2l-8.5,7l0.4,4.9c-6.9,0.8-11.7,0.5-14.7-2.6L-261.8,185.8z"/>
		<path class="st0" d="M-250.3,157.9l-4.3,3.6l-9.1,1c-4.5,2.5-6.8,6.5-7.2,12.1c0,7.1,4,9.8,9.1,11.2l2-0.2l-5.8-5.3
			c-1-3.2,0-5.9,2-8.3c2.5-1.8,5.2-1.9,8-0.9c3.6,1.5,6.2,3.7,7.9,6.8l2.2,5.4l8.5-7h7.2c0.1,1.5,2.4,2.8,6.9,4l1.9-1.1
			c-0.4-1.9-1.5-3.3-3.1-4.5c-0.7-1.4-0.5-2.7,1.2-3.7c2.8-1.7,5.5-2.8,7.6-2.6c1.4-0.5,2.8,1,4.1,3.5c0.6-2.9,0-4.9-1.7-6
			c-2.9-1.2-5.4-2.9-7.4-5.6c-7.2-1.6-10.9-4.6-12.7-8.4c0.2,5.4-0.5,10.3-2.3,14.7c-4.1-1.5-7.2-3.5-8.6-6.3
			C-246.5,161.2-248.6,160.7-250.3,157.9z"/>
		<path class="st2" d="M-245.1,188.1l-0.4-4.9l-2.2-5.4c-2.2-3.4-4.8-5.8-7.9-6.8c-2.5-1.2-5.2-0.8-8,0.9c-2.2,2.1-2.6,5-2,8.3
			l5.8,5.3C-257.3,188.4-252.1,189-245.1,188.1z"/>
		<path class="st2" d="M-221.1,179.1c1.2,2.2,1.6,5,1.9,8c4.4-1.3,7.3-4.5,8.2-10.5c0.1-2,0-3.6-0.2-4.8c-1.5-2.9-2.9-3.9-4.1-3.5
			c-2.8-0.1-5.3,1.2-7.6,2.6c-1.6,0.9-2,2.1-1.2,3.7C-222.7,175.6-221.7,177-221.1,179.1z"/>
		<path class="st0" d="M-250.3,157.9c-2.8-1.1-3.8-5.2-4.3-10.1c-0.8-5.4,1.4-9.7,8.6-12.2c6.2-0.1,10.5,2.5,12.2,8.4
			c0.7,3.2,1.1,6,0.8,7.9c0.1,5.6-0.5,10.7-2.3,14.7c-4.2-1.4-6.9-3.6-8.6-6.3C-246.5,161.3-248.6,160.6-250.3,157.9z"/>
		<path class="st13" d="M-244,160.2l-4.8-6.6c-0.2-4.1,2.5-8.4,6.5-9.2c3.6-1.5,9.3,7.4,9.3,7.4c0.4,3.7-0.3,8.6-2.3,14.7
			C-238.7,165.7-241.6,163.6-244,160.2z"/>
		<path class="st14" d="M-250.3,215c7.4,7.1,16.7,14.9,24.2,29.3c4.8,18.7,2,28.2-1.9,37.6c-5.1,9-14.4,14.3-25.3,18.2l0.5,7.1
			l2.3,6.2c-2.4-0.6-4.5-0.2-6.4,1.6c-0.9,2.1-1.1,4.4-0.8,6.9l-3.1-1c-0.7-6-3.2-9.4-7.4-10.4c-3.8,2.8-5,6.4-4.3,10.7l-3.9-2.5
			c0.5-4.4-0.6-7.2-3.8-8.2c-4.6,1.7-6.7,5.3-7.2,9.9l-1.2-3.9c0.6-4.1,1.5-7.9,2.9-10.8c0.3-0.7,0.8-1.3,1.2-1.9
			c1.4-6.5,1.9-13,1.8-19.6l3.9-5.8l-1.2-14C-278.1,247.3-268.6,231-250.3,215z"/>
		<path class="st0" d="M-251,213.6l2.2-10.2c4-1,7.2-2.1,9.3-3.1c4.5-2.4,8.5-5.1,11.5-8.5l5.1-11.5l1.9-1.1c1.2,2.7,1.7,5.4,1.9,8
			c4.5-1.2,7.2-4.6,8.2-10.5v-2.5c2.9,0.2,5.6-2.5,7.9-8.4c2.2-8.2,1.8-15.2-1.7-20.5c-1.7,5.9-4.2,9.4-7.1,11.7
			c-0.7,0-1.3,0.3-1.7,0.7c-0.4-0.9-0.9-1.5-1.7-1.9c2.7-1.4,5.4-3.2,7.9-5.2c-1.4-0.8-3.5-1.4-5.9-1.9c4.7-3.6,9.4-5.7,14.1-5.9
			c2.6-1,4.7-2,5.1-3.3c-1.5-1.4-3.5-2.2-5.7-2.6c1.1-1.2,2.3-2.4,3.7-2.6l1.1,1.1c0.7-0.7,0.9-1.6,0.9-2.6c1.3-0.9,2.7-1.6,4.4-2.1
			c-0.3,0.9-0.3,1.8,0,2.6l-1.3,2.5c-1-0.1-1.5-0.5-1.9-1.2c0.1,2.1,0.5,3.8,1.2,5.1c-0.5,0.9-0.7,1.9-0.5,2.9
			c0.3,1.1,1.6,1.9,3,2.3c2.2,0.7,4.2,0.2,7-0.4l-7,9.3c-18,22-29.4,48-36.1,76.9c-7.5-3.1-15.7-7.7-25.1-15.3"/>
		<path class="st15" d="M-260.6,196.9c0.5-4,0-7.7-1.1-11.1c-0.9,3.8-1.6,7.3-1.9,10.1L-260.6,196.9z"/>
		<path class="st0" d="M-231.7,154c2.3-1.5,5-2.6,8.8-2.9c3.1,0.8,5.7,2.2,7.6,4.8c1,0.6,1.5,1.2,1.7,1.9c0.6-0.4,1.2-0.7,1.7-0.7
			c2.8-2.1,5.2-5.6,7.1-11.7c3.2,4.8,4.1,11.4,1.8,20.3c-1.9,5.1-4.4,8.5-8,8.6c0.1-0.8,0-1.6-0.2-2.3c0.8-2.2,0.6-4.3-1.7-6
			c-2.8-1-5.3-2.9-7.4-5.6C-225.2,159.3-229,157.3-231.7,154z"/>
		<path class="st16" d="M-203,165.8c-5.7,0.4-8.8-2.3-8.8-8.8c4.2-3.9,6.3-8,7.1-11.7C-201.3,150.8-200.8,157.6-203,165.8z"/>
		<path class="st17" d="M-227.1,151.8c-1.5-1.2-2.2-2.7-2.2-4.6c-2.1,0.7-3.6-0.2-4.5-2.9c0.6,2.7,1,5.3,0.8,7.6
			c0.3,0.7,0.8,1.4,1.3,2.1C-230.4,153.1-228.9,152.4-227.1,151.8z"/>
		<path class="st16" d="M-227.5,133.6c-3.9,2.1-6.5,4.6-7.5,7.5c0.4,0.7,0.8,1.7,1.2,3.2c0.8,2.6,2.3,3.6,4.5,2.9
			C-229.8,141.9-229.2,137.4-227.5,133.6z"/>
		<path class="st0" d="M-229.2,139.9c2.4-0.2,4.6-0.3,6.3,0c5.3,1,9,6.4,12.2,13.3c-1.8,1.2-2.7,1.9-4.5,2.7
			c-1.5-1.9-3.6-3.8-7.6-4.8c-1.4,0.1-2.8,0.3-4.2,0.7c-1.5-1.1-2.2-3-2.2-4.6C-229.5,145.9-229.6,142.4-229.2,139.9z"/>
		<path class="st0" d="M-233.2,138c-8.3-10.1-13.7-20.2-16.8-30.3c0-10.7,0.3-23.5-1-26.9c0,0,1.7-0.6,2.2-1c0.5-0.3,2-2,2-2
			c9.7-1.1,18.1,2.2,24.7,10.4c0.8-20.2-6.6-32.3-25.7-32.8c0,0-1.2-4-4.7-4.9c-2.7-0.8-8.2,0.1-8.2,0.1c-5.5-1.2-10.3-2.8-14.3-5
			c-15.6-11.2-34-16.1-54-17.1c1,5.3,41.9,15.4,56.3,30.7c5.1,3.5,9.1,8.3,12.1,14.6c2.5,10.6,1.5,22.3-1.5,34.5
			c2.5,1.5,4.5,3.1,5.2,5.2c5.8,9.6,9.5,17.1,10.9,22.2c5.2-0.2,8.8,1.8,11,5.6L-233.2,138z"/>
		<path class="st18" d="M-235,141.1c0.3-1,0.9-2.1,1.8-3.1c-3.8-5.2-8.5-7.2-14.1-6c0.4,1.1,0.9,2.3,1.2,3.6
			C-241.2,135.4-237.4,137.1-235,141.1z"/>
		<path class="st1" d="M-222.2,88.2c-6.4-7.7-14.4-11.6-24.7-10.4c0,0-1.4,1.6-2,2c-0.5,0.3-2.2,1-2.2,1c-4.6-1.6-6.7-4.3-7.4-7.6
			c1.6-3.1,2.2-5.6,1.7-7.5C-239.3,64.8-228.3,73.1-222.2,88.2z"/>
		<path class="st19" d="M-293.6,45.5c-18.4-6.1-33.3-7.9-45.8-6.9c10.4,13.6,24.8,24.5,44.4,32.1c-28.1,1.4-53.1,11.7-75.7,28.9
			c20.8,9.8,40,12.2,58,9.1c-29.6,15.1-49.6,31.6-63.5,49.1c16.9,5.9,44.4,2.6,88.4-15c-16.8,15-30,34.2-35.8,48.6
			c9.1,1.6,22.8-0.4,52.7-15.2c0-7,2.7-11.3,7.2-13.7c3.1-0.3,6.1-0.7,9.1-1l4.3-3.6c-2.8-1.3-3.9-5.2-4.3-10.1
			c-1.1-5.5,1.6-9.6,8.6-12.2c-2.4-7.2-6.2-14.6-10.9-22.2c-1.2-2.2-2.8-4.1-5.2-5.2c3.2-11.7,3.7-23.2,1.5-34.5
			c-4-7.8-8.1-12-12.1-14.6C-278.9,53.2-285.9,48.9-293.6,45.5z"/>
		<path class="st20" d="M-323.6,191.4c9.2,3.5,26.2-2,52.7-15.2c-0.3-5.2,1.4-10,7.2-13.7l9.1-1l4.3-3.6c-2.8-2-4.2-5.4-4.3-10.1
			c-0.9-6.8,2.7-10.2,8.6-12.2c-2.4-7.2-6.2-14.6-10.9-22.2c-1.8-3-3.5-4.6-5.2-5.2c3.3-11.8,3.7-23.3,1.5-34.5
			c-2.8-5.9-6.8-10.8-12.1-14.6c-4.6-4.9-12.3-9.4-20.8-13.6c-4.5-1.6-11.7-3.4-19.1-5.1c20.1,7.1,37.3,16.3,46.1,31.5
			c5,10.5,5,23.3,1.2,37.8l9.1,10.6l5.2,11.4c-19,20.3-40.3,34.1-63.6,42.5C-318.8,179.2-321.6,185-323.6,191.4z"/>
		<path class="st1" d="M-171.5,177.7c3.9-0.8,8.2-4.8,12.7-11.8c1.4,8.2,0.4,15.7-6.3,21.3c0,0,1,0.9,1.1,1.3
			c0.2,0.9-1.1,3.3-1.1,3.3c2.9,3.3,6.4,6.4,10.9,9.3c2.6-0.3,4.8-0.8,6-1.7c-2.4-0.9-4-2.1-4.6-3.7c1.6-0.3,2.8-0.9,3.1-2.1
			c0.3-1.2,0.4-2.5-1.2-3.5c-1-0.9-2.2-1.1-3.5-0.8c0.4-1.8,2.2-2.8,5.2-3.1c1.5,0,2.6,1,3.6,2.2c0,0.7,0.5,1.6,2.2,2.9
			c1.9-0.4,2.8-1.1,2.9-1.9l2.7,0.1c-0.4,1.3-0.6,2.5,0.8,2.9c3.1-0.8,5.9-0.8,7.6,2.5c2.5,2.2,3.4,4.9,2.5,8.1
			c-0.3,5-3.1,7.5-7.8,8c-1.6-0.1-3.3,0.1-4.9,0.9c-2.7,1.7-6.5,3.1-11.1,4.1c-6.5-1.3-11.1-3.8-13.1-8l-1.4-1.1
			C-169.3,195.4-170.9,186.1-171.5,177.7z"/>
		<path class="st21" d="M-158.8,165.9c-2.2,3.5-4.6,6.5-7.5,9.1c-0.2,3.1,1.3,5.7,5.1,7.8C-158.6,179.1-157.6,173.7-158.8,165.9z"/>
		<path class="st22" d="M-158.6,195.6c0.9-2.5,2-4.9,4.2-6.2c1.3-0.4,2.5-0.1,3.5,0.8c1.2,0.6,1.6,1.7,1.2,3.5
			c-0.3,1.1-1.3,1.9-3.1,2.1C-154.7,196.2-156.7,196.1-158.6,195.6z"/>
		<path class="st22" d="M-146,189.7c1-5.2,3.8-9,9-10.8c1.5,0.5,2.6,1.9,3.5,3.8c0,3.1-0.9,5.4-2.6,7
			C-139.1,189.3-142.4,189.4-146,189.7z"/>
		<path class="st22" d="M-145.7,203.9c1-3.8,2.7-7.2,6.6-9.6c1.2-0.1,2.2,0,3.1,0.4c1.6,1.1,2.1,2.4,1.9,3.8
			c-0.3,2.5-1.5,3.9-3.7,4.5C-140.9,202.6-143.4,202.9-145.7,203.9z"/>
		<path class="st23" d="M-129.4,195c1.9-1,3.7-2.2,4-8.9c0-4.5-2-7.5-7.1-8c-2.5,0.1-3.6,0.4-4.5,0.8c1.3,0.4,2.4,1.6,3.5,3.8
			c-0.1,3.9-1.4,6-2.6,7l-1.6-0.2c-0.5,1.4-0.5,2.4,0.8,2.9C-133.6,191.2-130.7,192.3-129.4,195z"/>
		<path class="st0" d="M-171.5,177.7c3.8-0.7,8.1-4.7,12.7-11.8l0.3,2.5c5.1-7.3,8.6-16.5,11-27c2.3-3.7,4.9-6.9,7.6-9.4
			c3.6-3.9,6.5-8.2,8.9-12.8c1.5-3.4,2.5-7.3,3.2-11.5c1.5-1.5,2.9-4.3,4.3-7.3c0,0-3.1,2.5-4,3.6c-1.3,1.6-3.2,7.1-4.8,8.3
			c-2.1,1.6-7.6,0.3-10.1,1.3c-2.9,1.2-4.8,7-10.4,8.2c-4.4,1-7.4-0.9-7.4-0.9c0.2,5.1-0.6,10.4-2.3,16c-1.1,5.3-2.9,10.5-5.1,15.5
			l-2.1,4.1C-171.6,163.2-172.1,170.3-171.5,177.7z"/>
		<path class="st1" d="M-171.7,172.5c3.8-0.7,12.6-12.1,16.7-22.1c1.7-4,5.1-15.4,6.9-18.7c2.4-4.5,9.5-6.7,11.7-11.4
			c1.6-3.3,5.8-9.3,4.2-8c-2.1,1.6-7.6,0.3-10.1,1.3c-2.9,1.2-4.8,7-10.4,8.2c-4.4,1-7.4-0.9-7.4-0.9c0.2,5.1-0.6,10.4-2.3,16
			c-1.1,5.3-2.9,10.5-5.1,15.5l-2.1,4.1C-171.6,163.2-172.3,165-171.7,172.5z"/>
		<path class="st24" d="M-149.1,162c-0.5-4-0.8-8.3-0.5-12.9l2.1-7.9c2.3-3.6,4.8-6.8,7.6-9.4c3.6-3.9,6.5-8.2,8.9-12.8
			c1.4-3.1,2.4-7.1,3.2-11.5c1.8-2.3,3.3-4.8,4.3-7.3c0,0,3.9-0.9,4.9-1.2c2.1-0.7,5.8-0.6,8.3-3.1c1.2-1.2,4.6-2.6,4.6-2.6l2.2,1.2
			c-1.4,1.9-1.8,4.2-1.5,6.9c-0.4,25.3-7.2,47.5-24.2,62.4c-1.9-12-2.1-24.2-1-36.7C-136.5,143.7-142.8,155.4-149.1,162z"/>
		<path class="st20" d="M-149.1,162c-0.5-4-0.8-8.3-0.5-12.9l2.1-7.9c2.3-3.6,4.8-6.8,7.6-9.4c3.6-3.9,6.5-8.2,8.9-12.8
			c1.4-3.1,2.4-7.1,3.2-11.5c1.8-2.3,3.3-4.8,4.3-7.3c0,0,3.9-0.9,4.9-1.2c2.1-0.7,5.8-0.6,8.3-3.1c1.2-1.2,4.6-2.6,4.6-2.6l2.2,1.2
			c-0.6,0.7-1.3,2.5-1.2,2.5l-4,1.7c0,0-4.1,45.9-21,60.8c-1.9-12-1.5-20-0.4-32.6C-136.5,143.7-142.8,155.4-149.1,162z"/>
		<path class="st25" d="M-182.2,120.9c0.5,2.1,3.1,3.4,7.5,3.8c4.5,0,6.8-4.8,10.1-5.1c0.7,0.2,1.4,0.4,2.1,0.6l2.3,0.7
			c2.4,1.2,4.9,1.5,7.4,0.9c5.2-1.1,7.3-6.8,10.4-8.2c1.1-0.6,8.5,0.2,10.1-1.3c1.6-2.1,3.2-5,4.8-8.3c1.1-1,2.5-2.3,4-3.6l4.9-1.2
			c1.6-0.2,7-1.3,8.3-3.1l1.9-5.2c2.3-0.9,4.9-4.1,4.9-4.1s1.8-5.8,1.4-9.3c0-2.8,2.3-5,5.2-7.2c-3.3-0.3-6.1,0.7-8,3.8
			c0.1-1.8,0.6-3.5,2.8-5.1c0.9-1.3,3.5-2.6,7.6-3.9c2.6-1.5,4.1-3.6,4.5-6.3c0.6-3.8,0.1-7.3-0.8-10.7c-0.1-2.4,2-4.5,5.1-6.4
			c-5.8,1.9-11.2,4.8-14.8,12.3c-0.8,3.2-2.6,5.9-5.6,7.8c-6.5,1.7-10.4,3.5-12.3,5.4c-4.2,2.9-1.2,15-7.2,19.6
			c-1,3.2-7.9,0.4-17.3-0.1c-6.8-0.4-12,4.4-15.4,10.9c-2,1.3-4.8,1.7-8,1.7c-3.4,0-6.9,3.9-6.9,3.9s-3.6,4.4-4.8,10.7
			C-178.5,116.2-179.9,118.5-182.2,120.9z"/>
		<path class="st26" d="M-190.9,135.6c0.6,0.1,1.1,0.2,1.4,0.6c0.1,1.1,0.2,2.2-0.5,4c-0.8-0.2-1.3-0.4-1.5-0.8
			c-0.9-1.5-1.3-3.1-1.3-5C-192.5,135.2-191.8,135.6-190.9,135.6z"/>
		<path class="st26" d="M-182,139c-0.9-1.5-1.5-3-1.7-4.4c1.6,0.5,3.1,1.2,4.2,2.1c0.3,0.8-0.2,2.4-0.2,2.4S-181.1,139.3-182,139z"
			/>
		<path class="st3" d="M-190,140.2c0,0.8,1.2,1.2,3,1.4c3-0.3,5.7-0.8,7-1.6c3.6-5,5.9-10.2,7.5-15.6c3.4-1.2,5-4.3,8-4.7l2.1,0.6
			c-4.7,6.5-8.1,13.2-10.4,19.9c-1.9,2.4-5.2,3.6-9.4,3.9c-2.5,0.8-4.9,1.1-7,0.4c-1.3-0.4-2.7-1.3-3-2.3c-0.2-1,0-2,0.5-2.9
			C-191.2,139.8-190.7,140.1-190,140.2z"/>
		<path class="st27" d="M-189.7,133.1l-1.3,2.5c0.5,0,1,0.2,1.4,0.6c0.2,1.4,0,2.7-0.5,4c0.3,1,1.5,1.3,3,1.4c2.6-0.2,4.9-0.7,7-1.6
			c3.8-5.1,6.5-11.5,7.5-15.6c-0.8,0.3-1.8,0.4-2.9,0.3c-3.1,3.5-5.7,7.3-6.9,10.4l-0.5,2.8c-0.2,0.9-0.9,1.5-1.9,2.1
			C-188.2,138.6-189,135.9-189.7,133.1z"/>
		<path class="st28" d="M-182.2,120.9c-1.2,1.9-3.1,3.2-6.1,3.8c-0.8,1.9-1.3,3.8-1.4,5.8c-0.3,1.2-0.3,2,0,2.6
			c0.7,3.7,2.3,6,4.9,6.8c1-0.5,1.6-1.2,1.9-2.1l0.5-2.8c1.3-3.2,3.7-6.7,6.9-10.4C-179.3,124.2-181.5,123-182.2,120.9z"/>
		<path class="st0" d="M-193.6,126c0,0,4-1,5.3-1.2c2.9-0.6,4.9-1.9,6.1-3.8c2.1-1.9,3.4-4.3,4.2-6.9c0.8-3.9,2.5-7.5,4.8-10.7
			c1.9-2,4-3.6,6.9-3.9c2.2-0.1,4.3-0.2,5.7-0.7c-0.3-3-0.1-6.2,0.4-9.5c3.4-3.8,7.6-7,12.5-9.7c-1.7-0.9-5-0.7-10.7,1.1
			c10.7-10.5,15-23.5,14.7-38.2c-7.1,11.5-15.9,22-27.2,31.2c-4.1,2-5.6,4.8-6.6,7.6c-0.9-0.4-2-0.5-3.7-0.2c0.6-2.5,2-4.6,4.1-6.3
			c-2.3,0.3-4.5,0.9-5.5,2.9c3.3-11.8,2.5-24.3-2-37.4c-3.4,15.5-8,30.5-13.8,45.2c-0.4,2.4-5.9,7.2-9.9,12.7
			c-1,1.3-0.3,8.7,2.9,12.1c1.1,1.2-2.9,5.7-2.9,5.7c0.1-0.1-3.5-0.2-4.6,0.7c-1.6,1.2-3.1,2.3-2.9,7.4c0.2,6.6,6.2,7.8,6.2,7.8
			s4,2.9,5.6,2.9c4.2,0,5.9-3.4,5.9-3.4C-196.9,128.5-195.5,126.5-193.6,126z"/>
		<path class="st29" d="M-213.2,118.7c0.7,1.9,1.8,2.9,3.5,3.2c2,0.1,4,0.3,5.2-0.5c-1.6,2.4-1.6,4.4-1.9,6.6
			c-3.3,1-6.2-0.2-7.5-2.7C-214,123-213.8,120.8-213.2,118.7z"/>
		<path class="st30" d="M-183.8,99.3c1.9,1.9,3.2,4.5,3.2,8.6c-1.7,1-4.4,3.1-8.2,5.5c-1.7,0.4-3.1-0.4-3.8-2.8
			C-191.2,107.8-187.6,103.6-183.8,99.3z"/>
		<path class="st31" d="M-187.4,103.4c1.7,1.7,2.4,4.3,1.8,7.8c-0.6,0.4-1.7,1.1-3.2,2.2c-1.9,0.5-3.2-0.7-3.8-2.8
			C-191.3,108.2-189.5,105.8-187.4,103.4z"/>
		<path class="st32" d="M-189.1,105.5c0.7,1.8,0.9,3.5,0.1,4.8c-0.2,0.3-0.5,0.5-1.3,0.4c-0.6-0.4-1-1.1-1.1-2.2
			C-190.7,107.5-189.9,106.5-189.1,105.5z"/>
		<path class="st33" d="M-180.7,107.9V95.2l-3.2,4.1C-181.5,101.7-180.5,104.6-180.7,107.9z"/>
		<path class="st34" d="M-198.1,107.9c0.7,3.5,2.7,5.5,5.5,2.6c0.8,2.8,2.2,3.3,3.8,2.8c-1.2,1.1-2.6,1.9-7.1,1.1
			C-199.8,113.1-198.6,110.4-198.1,107.9z"/>
		<path class="st26" d="M-194.1,126.1c0.2,2.4,0.3,4.6,0,6.5c0,1.3-0.3,2.2-0.9,2.6c-0.4-0.4-0.8-0.8-1.1-1.1c-1-0.9-1.7-1.9-2-3
			C-197.1,128.7-195.7,127.1-194.1,126.1z"/>
		<path class="st35" d="M-208.3,115.7c0.3,0,4-4.7,2.9-5.7c-1.2-1.2-1.9-2.9-2.7-5.4c-3.5,2.3-6.2,4.5-5.8,6.7c0.3,2,1,5.1,1,5.1
			C-211.5,115.9-210,115.6-208.3,115.7z"/>
		<path class="st36" d="M-204.9,93.7c3.2-3.7,6.3-6.8,6.5-8.5l0.8-2c-3.5-0.6-6.4,0.1-8.1,2.6C-208.1,89.1-207.7,91.7-204.9,93.7z"
			/>
		<path class="st37" d="M-181.6,73.1c0,0,3.7-1.5,3.8-3.9c0.1-1.3-2.4-3.5-2.3-4.8c0.1-1.6,2-2.7,2.7-4.2c0.6-1.2,1.2-3.9,0.5-5.4
			c-0.4-0.9-1-2.1-1.1-3.2c0.2-11.4,7.6-17.4,19.4-19.9c0,0-10.6,7.9-10.5,11.8c0.1,3.5,4.4,4.7,4.7,6.4c0.6,2.2-3.1,4.5-4.1,6
			c-0.7,1.2-0.8,3.4-0.7,5.6c1.4-3.5,3.4-5.2,6.4-4.2c-1.5,2-2.7,4.2-3.3,6.7c0.4,1.4,0.7,2.9,0.6,4.6c-1.6,1.4-3.2,2.9-5.4,4.7
			c-3.4,1.6-5.5,4.2-6.6,7.6c-1.2-0.4-2.4-0.5-3.7-0.2c0.5-2.3,1.9-4.4,4.1-6.3c-2.8,0.4-4.6,1.2-5.5,2.9L-181.6,73.1z"/>
		<path class="st38" d="M-182.6,77.5c0.9-1.7,2.8-2.6,5.5-2.9c-1.1,0.9-2,1.9-2.8,3.1c1.4,0.5,2.8,0.3,4.3-0.4
			c1-1.4,2.6-2.8,4.7-3.8c0,0,0.4-5.7,0-7.5c-0.3-1.3-2-4.9-2-4.9c-0.3-1.9,0.5-3.4,1.5-4.9c-1.8-0.2-3,1.6-3.9,4.1
			c0.2-2.6,1.7-4.8,1.7-7.5c0-0.8-1.2-2-1.5-2.7c-0.6-1.2-0.3-2.5-0.4-4.8c0-0.7-0.3-1.3-0.4-1.9c-1.2,2.4-1.8,5.2-1.9,8.4
			c0.2,1,0.5,2.1,1.1,3.2c0.5,1,0.3,3.4-0.5,5.4c-0.7,1.3-2.4,2.3-2.7,4.2c-0.1,1.2,2.3,3.4,2.3,4.8s-1.5,2.7-3.8,3.9L-182.6,77.5z"
			/>
		<path class="st39" d="M-121.5,77c-6.1,1.7-10.5,5.1-12.9,10.6c5.4,0.9,8.3,1,8.8-0.9C-122.5,84.4-122,80.6-121.5,77z"/>
		<path class="st40" d="M-110.4,96l1.9-5.2l2.7,2.6C-107.5,94.1-109,95-110.4,96z"/>
		<path class="st0" d="M-102.2,77.5c12.7,2.9,15.4,13.6,5.1,34.6c-1-7.6-3.1-13.7-6.5-17.5l-2.2-1.2l-2.7-2.6c1.4-0.5,3.1-2,4.9-4.1
			C-102.5,83.5-102,80.3-102.2,77.5z"/>
		<path class="st41" d="M-108.5,90.8c2-1,3.7-2.5,5-4.4c6.6,5,9,13.4,6.4,25.7c-1-7.4-2.9-13.5-6.5-17.5l-2.2-1.2L-108.5,90.8z"/>
		<path class="st0" d="M-97.5,70.7c2.5,3,3.3,6.2,2.2,9.8c-2-1.5-4.3-2.4-6.8-3C-102.2,75.2-100.5,73-97.5,70.7z"/>
		<path class="st0" d="M-102.2,69.1l4,1.2c-3.2-0.1-5.4,1.5-6.9,3.9C-104.9,72.1-104.1,70.3-102.2,69.1z"/>
		<path class="st26" d="M-209.1,132.1c-0.1,1.7,1.8,4.1,1.8,4.1s0.8-1.4,1.2-2.3C-207.1,133.4-208.1,132.7-209.1,132.1z"/>
		<path class="st42" d="M-182.2,120.9c0,0,2.1-0.7,3.1-0.6c1.2,0.1,2,3,5.3,1.8c3.8-1.4,3.4-6,5.3-7.3c0.9-0.7,3.2-1.3,4.3-1.3
			c1.5-0.1,4.6,1.1,6,0.6c2.8-0.9,3.2-8.8,8.6-8.6c2,0.1,2.7,5.2,4.6,5.7c1.8,0.4,4-3,5.8-3.5c1.2-0.3,4.2,1.3,5.3,0.8
			c1.9-1,3.7-5.1,4.8-6.9c0.7-1.2,1.6-3.9,2.6-4.8c0.8-0.7,3-1.1,4-1.6c0.9-0.4,2.2-1.9,2.5-2.8c0.5-1.9-1.3-3.5-0.6-5.1
			c0.5-1.1,4.6-2.5,4.7-4.9c0.2-3-1.6-4.8-1.6-6.8c0.1-5.5,9.2-13.1,9.2-13.1c-4.4,1.3-7.8,2.7-10,4.8c-1.8,1.3-2.4,4.4-3,9.8
			c-0.5,4.4-1.6,7.9-4.2,9.8c-0.7,2-4.3,1.7-8.8,0.9c-3-0.5-5.9-0.8-8.5-1c0,0,7.7,4.5,8.5,6.7c0.7,1.9-0.7,6.1-2.6,7
			c-1.7,0.8-4.8-3.7-6.7-3.7c-1.4,0-3.8,3.4-5,2.7c-0.7-0.4-0.4-1.7-1.1-2.2c-1.7-1.2-4.9,0.5-6.8,1.3c-1.5,0.6-4.8,1.9-5.9,3.1
			c-0.5,0.6-0.6,2.5-1.1,3.1c-0.8,0.8-3,1.8-4.1,1.8c-1.3,0-3.6-1.8-4.9-1.8c-0.6,0-2.1,0.7-2.1,0.7c-1.6,2.7-2.7,5.6-3.4,8.7
			C-178.6,116.7-180.4,119.2-182.2,120.9z"/>
		<path class="st0" d="M-171.5,177.7c1.7-0.3,3.5-1.3,5.2-2.7c-0.1,1.3,0.1,2.6,0.7,3.7c-1.7,1.3-3.6,2.2-5.6,2.7L-171.5,177.7z"/>
		<path class="st0" d="M-168.2,188.6c1-0.5,2-1,3-1.5c0.5,0.4,0.9,1,1.1,1.3c0.1,0.6-0.3,1.8-1.1,3.3c2.6,3.2,6.4,6.3,10.9,9.3
			c-5.3-1.5-10-4.1-13.3-9.2C-167,190.7-167.3,189.6-168.2,188.6z"/>
	</g>
	<g>
		<path class="st40" d="M-250.3,215c8.9,6.8,17,16.6,24.2,29.3c3.9,13.7,3.1,26-1.5,37c-4.8,8.4-13.4,14.6-25.7,18.7
			c-0.4,4.8,0.7,9.2,2.8,13.3c-1.8-1-3.9-0.7-6.4,1.6c-1,2.3-1.3,4.6-0.8,6.9l-3.1-1c-0.5-5.5-2.9-9.3-7.4-10.4
			c-3.7,2.7-5.1,6.3-4.3,10.7l-3.9-2.5c0.5-4.7-0.9-7.3-3.8-8.2c-4.5,1.4-6.5,5.1-7.2,9.9l-1.2-3.9c0.9-5.4,2.1-10.2,4.1-12.7
			c1.3-5.7,1.8-12.3,1.8-19.6l3.9-5.8l-1.2-14C-277.7,245.1-266.6,229.1-250.3,215z"/>
		<path class="st40" d="M-283.4,332c3.8-1.9,6-6.4,7-13.2c0.5-4.5-0.8-7.2-3.8-8.2c-4,1.4-6.6,4.6-7.2,9.9
			C-287.3,323.5-285.6,327.6-283.4,332z"/>
		<path class="st40" d="M-272.5,321.3c-0.9-4.7,0.8-8.2,4.3-10.7c4.1,0.8,6.5,4.2,7.4,10.4l0.9,9.5
			C-264.9,327.6-269.4,324.6-272.5,321.3z"/>
		<path class="st40" d="M-257.7,322c-0.3-2.6-0.1-4.9,0.8-6.9c1.8-1.9,3.8-2.7,6.4-1.6c5.4,2.8,7.2,8.6,8.3,15
			C-248,325.4-253.1,322.9-257.7,322z"/>
		<path class="st40" d="M-165.3,207c2.5,6.3,3.9,13.2,4.1,21l0,0c-2.1,19.8-11.5,35.6-29.6,46.8c-4.3,2.3-8.9,4-13.8,5.2l0,0
			c-7.2,1.7-15,2.3-23.3,1.8l0,0c0.1-0.1,0.1-0.2,0.2-0.3c0.6-1.2,1.2-2.7,1.9-4.7c0-0.1,0.1-0.2,0.1-0.3c0.2-0.5,0.3-1.1,0.5-1.6
			c0-0.1,0.1-0.3,0.1-0.4c0.8-3.2,1.4-6.6,1.6-10.3c0.3-5.8-0.4-12.3-2.5-19.9v-0.1c-0.6-3.6,0-8.6,0.9-13.9c0-0.2,0.1-0.4,0.1-0.6
			c5.4-24.5,15-46.9,29-67l14-18.6c3.6-0.4,7-1.2,9.4-3.9c0.9-2.6,1.9-5,2.9-7.2c1.7-4,4.4-8.3,7.4-12.7l2.3,0.7
			c0,5.9-0.5,11.4-2.3,16c-1.5,6.7-3.6,13.3-7.2,19.6c-1.9,6.5-2.4,13.6-1.8,21.2C-170.8,187.7-168.7,197.5-165.3,207z"/>
		<path class="st40" d="M-161.1,228c18.4,14.9,25.5,25.8,25.8,34.3c0.2,8.1-3.6,13.9-12.3,16.9c-2.9,1.7-4.4,3.5-3.9,5.1
			c0.2,2.9,2.3,5,5.8,6.3l9.4,4.3c-0.8,0.1-1.5,0.2-1.9,1c-0.4,0.6-0.4,1.4-0.1,2.3c-2-0.7-3.6-0.3-4.9,0.6
			c-0.4,0.6-0.5,1.2-0.2,1.9c-2.3-1.8-4.6-1.9-7-0.5c-1,0.8-1.8,1.6-2.2,2.7s-0.4,2.1,0.1,2.9c-4.6-1.5-9.5-2.3-14.7-2.5
			c-11-1-16.8-3.5-16.7-7.8c0-2.3,3-7.7,3-7.7s1.2-2.8,0.4-4.3c-1.6-2.9-4.4-4.3-10.1-8.7C-176,266.1-163,249.4-161.1,228z"/>
		<path class="st40" d="M-33.4,168.2c-0.7,0.8-1,3.1-0.8,4.1c0.4,1.7,1.3,5.2-0.5,6.1c-1.2,0.6-4,0.8-5.4,0.9
			c-2.2,0.2-6.8-0.1-8.7,0.9c-2.2,1.2-6,7.7-6.2,7.9c0.1-0.1,3.5-2.5,4.9-2.9c2.4-0.7,7.8,0.3,7.1,0.8c0,0-6.5,2.5-7.7,4.5
			c-0.9,1.5,0.3,5.5-0.5,7.1c-0.4,0.9-2.7,1.5-3.3,2.3c-1.2,1.7,0.3,6.5-0.7,8.3c-0.6,1.1-4.2,1.2-4.4,2.4c-0.2,2.1-0.6,4.4-1.9,4.6
			c-2,0.3-6,0.9-8,1.1c-2.5,0.2-7.8-0.6-9.9,0.6c-1.1,0.6-2.4,2.9-2.8,4c-0.6,1.5-0.6,5.1-1.7,6.2c-2.2,2.3-8.9,3.5-12,3.5
			c-2.9,0-8.8-0.2-11.6-1.2c-1.5-0.5-4.6-1.9-5.7-3.1l0,0c2.4-1.8,4.3-3.7,5.6-5.8c0.1-0.1,0-0.2-0.1-0.1c-0.9,0.5-2,0.6-3.1,0.2
			c-0.5-0.4-0.9-0.8-1.2-1c-1.1,0.9-2.4,1.7-4,2.3l0,0c-2-3.2-6.7-9.1-6.8-13.2c-0.6-4.6,1.6-5.9,4.5-6.4c2-0.4,3.3-1.2,3.7-2.1
			c0.3-1.9,0.8-3.9,1.6-4.9c2-2.3,6.5-4.5,11.2-4.8c0,0,15,3.9,20.1,3.1c2.3-0.4,7.6-2,8.2-4.2c0.4-1.7-3.9-4.3-3.9-6.1
			c0-2.7,5.4-5.8,7.4-7.6c1.3-1.2,2.9-4.8,4.5-5.8c1.9-1.1,6.6-1.3,8.9-1.1c3.4,0.4,10,3.3,13.4,3.1c1-0.1,2.9-1,3.6-1.6
			c1.1-1,2.8-3.6,3.8-4.8c2.4-2.9,10.5-0.7,10.5,0.7C-25.3,166.1-32,166.7-33.4,168.2z"/>
		<path class="st40" d="M-107.8,220.3c0.1,0,0.2,0.1,0.1,0.1c-1.3,2.1-3.2,4-5.6,5.8c-1.9,1.5-4.1,2.9-6.4,4.2
			c-7,2.6-14.5,4-22.4,4.1c-4.6,0.2-8.5-0.1-12.1-0.7l-6.9-5.9l-0.8-8.8c8.6,3.3,17.3,5.7,26.2,5.4c7.8-0.2,14.8-0.8,19.6-2.8
			c1.5-0.6,2.9-1.4,4-2.3c0.2,0.2,0.6,0.5,1.2,1C-109.7,220.9-108.7,220.8-107.8,220.3z"/>
		<path class="st40" d="M-147.4,240.6c1.6,0.3,7.5-1.1,7.5-1.1s13.7-4.3,20.2-9c-7.3,2.6-14.8,4.1-22.4,4.1c-3.8,0.3-7.8,0-12.1-0.7
			C-151.6,236.3-149.2,238.6-147.4,240.6z"/>
		<path class="st40" d="M-122.4,305.5c-1.9-5.2-5.4-9.5-14.1-10.7c-1,0.1-1.6,0.4-1.9,1c-0.4,0.6-0.4,1.4-0.1,2.3
			c3.6,0.6,7.2,5.7,7.5,5.9C-130.9,304.1-124.4,306-122.4,305.5z"/>
		<path class="st40" d="M-143.6,300.7c-0.3-0.8-0.1-1.4,0.2-1.9c1.6-1,3.3-1.2,4.9-0.6c3.4,0.4,7.5,5.9,7.5,5.9s2.8,3.5,2.9,5.4
			c-3.8-0.4-7.3-1.1-9.8-2.7C-139.5,304.3-141.3,301.9-143.6,300.7z"/>
		<path class="st40" d="M-152.7,305.8c-0.9-1.9-0.3-3.8,2.1-5.7c2.5-1.5,4.8-1.1,7,0.5c2.2,1.2,4,3.5,5.8,6.1l1.1,3.2
			C-142.9,308.7-148.6,307.3-152.7,305.8z"/>
		<path class="st40" d="M-278.8,257.9c-27.1-3.4-42.8-13.5-41.8-33.2c-2.7,11.5-0.8,24.2,16.5,41.2c7.2,6.1,15.6,9.8,25.2,10.9
			c-0.3-3.5-0.6-7.6-1-12.2C-279.7,262.3-279.3,260-278.8,257.9z"/>
		<path class="st40" d="M-263.5,228.3c-12.4-3.7-19.1-8.9-21.2-15.4c10.6-4.1,21.9-3.6,33.7,0.6l2.2-10.2c-1.9,0.5-4.4,0.3-7.3-1
			c-2.8-1.3-4.1-3.2-4.5-5.4c-8.3-3.2-16.6-3.8-25.1-3.2c-19.1,1.4-28.8,9-32.6,23l-2.3,8c-1.1,20,15.3,29.8,41.8,33.2l1.2-5
			C-274.9,244.6-270.2,236.4-263.5,228.3z"/>
		<path class="st40" d="M-250.3,215l-0.8-1.5c-13-4.5-24.2-4.6-33.7-0.6c1.2,3.9,4.2,7.8,11.8,11.7c4.4-2.2,8.6-2.1,12.6,0
			C-256.9,221.1-253.5,217.7-250.3,215z"/>
		<path class="st40" d="M-261.8,185.8c1.2,3.8,1.6,7.5,1.1,11.1c0.8,2.5,1.8,4,4.5,5.4c1.9,0.7,4.8,1.7,7.3,1c3.9-1,8-2.1,9.3-3.1
			c5-2.5,8.7-5.4,11.5-8.5l5.1-11.5c-4.2-1.1-6.7-2.3-6.9-4h-7.2l-8.5,7l0.4,4.9c-6.9,0.8-11.7,0.5-14.7-2.6L-261.8,185.8z"/>
		<path class="st40" d="M-250.3,157.9l-4.3,3.6l-9.1,1c-4.5,2.5-6.8,6.5-7.2,12.1c0,7.1,4,9.8,9.1,11.2l2-0.2l-5.8-5.3
			c-1-3.2,0-5.9,2-8.3c2.5-1.8,5.2-1.9,8-0.9c3.6,1.5,6.2,3.7,7.9,6.8l2.2,5.4l8.5-7h7.2c0.1,1.5,2.4,2.8,6.9,4l1.9-1.1
			c-0.4-1.9-1.5-3.3-3.1-4.5c-0.7-1.4-0.5-2.7,1.2-3.7c2.8-1.7,5.5-2.8,7.6-2.6c1.4-0.5,2.8,1,4.1,3.5c0.6-2.9,0-4.9-1.7-6
			c-2.9-1.2-5.4-2.9-7.4-5.6c-7.2-1.6-10.9-4.6-12.7-8.4c0.2,5.4-0.5,10.3-2.3,14.7c-4.1-1.5-7.2-3.5-8.6-6.3
			C-246.5,161.2-248.6,160.7-250.3,157.9z"/>
		<path class="st40" d="M-245.1,188.1l-0.4-4.9l-2.2-5.4c-2.2-3.4-4.8-5.8-7.9-6.8c-2.5-1.2-5.2-0.8-8,0.9c-2.2,2.1-2.6,5-2,8.3
			l5.8,5.3C-257.3,188.4-252.1,189-245.1,188.1z"/>
		<path class="st40" d="M-221.1,179.1c1.2,2.2,1.6,5,1.9,8c4.4-1.3,7.3-4.5,8.2-10.5c0.1-2,0-3.6-0.2-4.8c-1.5-2.9-2.9-3.9-4.1-3.5
			c-2.8-0.1-5.3,1.2-7.6,2.6c-1.6,0.9-2,2.1-1.2,3.7C-222.7,175.6-221.4,177.4-221.1,179.1z"/>
		<path class="st40" d="M-250.3,157.9c-2.8-1.1-3.8-5.2-4.3-10.1c-0.8-5.4,1.4-9.7,8.6-12.2c6.2-0.1,10.5,2.5,12.2,8.4
			c0.7,3.2,1.1,6,0.8,7.9c0.3,4.4-0.5,10.7-2.3,14.7c-4.2-1.4-6.9-3.6-8.6-6.3C-246.5,161.3-248.6,160.6-250.3,157.9z"/>
		<path class="st40" d="M-244,160.2l-4.8-6.6c-0.2-4.1,2.5-8.4,6.5-9.2c3.6-1.5,9.3,7.4,9.3,7.4c0.3,3.3-0.5,10.8-2.3,14.7
			C-238.7,165.7-241.6,163.6-244,160.2z"/>
		<path class="st40" d="M-260.6,196.9c0.4-0.2,0.4-7.9-1.1-11.1c-0.9,3.8-1.6,7.3-1.9,10.1L-260.6,196.9z"/>
		<path class="st40" d="M-231.7,154c2.3-1.5,5-2.6,8.8-2.9c3.1,0.8,5.7,2.2,7.6,4.8c1,0.6,1.5,1.2,1.7,1.9c0.6-0.4,1.2-0.7,1.7-0.7
			c2.8-2.1,5.2-5.6,7.1-11.7c3.2,4.8,4.1,11.4,1.8,20.3c-1.9,5.1-4.4,8.5-8,8.6c0.1-0.8,0-1.6-0.2-2.3c0.8-2.2,0.6-4.3-1.7-6
			c-2.8-1-5.3-2.9-7.4-5.6C-225.2,159.3-229,157.3-231.7,154z"/>
		<path class="st40" d="M-203,165.8c-5.7,0.4-8.8-2.3-8.8-8.8c4.2-3.9,6.3-8,7.1-11.7C-201.3,150.8-200.8,157.6-203,165.8z"/>
		<path class="st40" d="M-227.1,151.8c-1.5-1.2-2.2-2.7-2.2-4.6c-2.1,0.7-3.6-0.2-4.5-2.9c0.6,2.7,1,5.3,0.8,7.6
			c0.3,0.7,0.8,1.4,1.3,2.1C-230.4,153.1-228.9,152.4-227.1,151.8z"/>
		<path class="st40" d="M-227.5,133.6c-3.9,2.1-6.5,4.6-7.5,7.5c0.4,0.7,0.8,1.7,1.2,3.2c0.8,2.6,2.3,3.6,4.5,2.9
			C-229.8,141.9-229.2,137.4-227.5,133.6z"/>
		<path class="st40" d="M-229.2,139.9c2.4-0.2,4.6-0.3,6.3,0c5.3,1,9,6.4,12.2,13.3c-1.8,1.2-2.7,1.9-4.5,2.7
			c-1.5-1.9-3.6-3.8-7.6-4.8c-1.4,0.1-2.8,0.3-4.2,0.7c-1.5-1.1-2.2-3-2.2-4.6C-229.5,145.9-229.6,142.4-229.2,139.9z"/>
		<path class="st40" d="M-233.2,138c-8.3-10.1-13.7-20.2-16.8-30.3c0-10.7,0.3-23.5-1-26.9c0,0,1.7-0.6,2.2-1c0.5-0.3,2-2,2-2
			c9.7-1.1,18.1,2.2,24.7,10.4c0.8-20.2-6.6-32.3-25.7-32.8c0,0-1.2-4-4.7-4.9c-2.7-0.8-8.2,0.1-8.2,0.1c-5.5-1.2-10.3-2.8-14.3-5
			c-15.6-11.2-34-16.1-54-17.1c1,5.3,41.9,15.4,56.3,30.7c5.1,3.5,9.1,8.3,12.1,14.6c2.5,10.6,1.5,22.3-1.5,34.5
			c2.5,1.5,4.5,3.1,5.2,5.2c5.8,9.6,9.5,17.1,10.9,22.2c5.2-0.2,8.8,1.8,11,5.6L-233.2,138z"/>
		<path class="st40" d="M-293.6,45.5c-18.4-6.1-33.3-7.9-45.8-6.9c10.4,13.6,24.8,24.5,44.4,32.1c-28.1,1.4-53.1,11.7-75.7,28.9
			c20.8,9.8,40,12.2,58,9.1c-29.6,15.1-49.6,31.6-63.5,49.1c16.9,5.9,44.4,2.6,88.4-15c-16.8,15-30,34.2-35.8,48.6
			c9.1,1.6,22.8-0.4,52.7-15.2c0-7,2.7-11.3,7.2-13.7c3.1-0.3,6.1-0.7,9.1-1l4.3-3.6c-2.8-1.3-3.9-5.2-4.3-10.1
			c-1.1-5.5,1.6-9.6,8.6-12.2c-2.4-7.2-6.2-14.6-10.9-22.2c-1.2-2.2-2.8-4.1-5.2-5.2c3.2-11.7,3.7-23.2,1.5-34.5
			c-4-7.8-8.1-12-12.1-14.6C-278.9,53.2-285.9,48.9-293.6,45.5z"/>
		<path class="st40" d="M-171.5,177.7c3.9-0.8,8.2-4.8,12.7-11.8c1.4,8.2,0.4,15.7-6.3,21.3c0,0,1,0.9,1.1,1.3
			c0.2,0.9-1.1,3.3-1.1,3.3c2.9,3.3,6.4,6.4,10.9,9.3c2.6-0.3,4.8-0.8,6-1.7c-2.4-0.9-4-2.1-4.6-3.7c1.6-0.3,2.8-0.9,3.1-2.1
			c0.3-1.2,0.4-2.5-1.2-3.5c-1-0.9-2.2-1.1-3.5-0.8c0.4-1.8,2.2-2.8,5.2-3.1c1.5,0,2.6,1,3.6,2.2c0,0.7,0.5,1.6,2.2,2.9
			c1.9-0.4,2.8-1.1,2.9-1.9l2.7,0.1c-0.4,1.3-0.6,2.5,0.8,2.9c3.1-0.8,5.9-0.8,7.6,2.5c2.5,2.2,3.4,4.9,2.5,8.1
			c-0.3,5-3.1,7.5-7.8,8c-1.6-0.1-3.3,0.1-4.9,0.9c-2.7,1.7-6.5,3.1-11.1,4.1c-6.5-1.3-11.1-3.8-13.1-8l-1.4-1.1
			C-169.3,195.4-170.9,186.1-171.5,177.7z"/>
		<path class="st40" d="M-158.8,165.9c-2.2,3.5-4.6,6.5-7.5,9.1c-0.2,3.1,1.3,5.7,5.1,7.8C-158.6,179.1-157.6,173.7-158.8,165.9z"/>
		<path class="st40" d="M-158.6,195.6c0.9-2.5,2-4.9,4.2-6.2c1.3-0.4,2.5-0.1,3.5,0.8c1.2,0.6,1.6,1.7,1.2,3.5
			c-0.3,1.1-1.3,1.9-3.1,2.1C-154.7,196.2-156.7,196.1-158.6,195.6z"/>
		<path class="st40" d="M-146,189.7c1-5.2,3.8-9,9-10.8c1.5,0.5,2.6,1.9,3.5,3.8c0,3.1-0.9,5.4-2.6,7
			C-139.1,189.3-142.4,189.4-146,189.7z"/>
		<path class="st40" d="M-145.7,203.9c1-3.8,2.7-7.2,6.6-9.6c1.2-0.1,2.2,0,3.1,0.4c1.6,1.1,2.1,2.4,1.9,3.8
			c-0.3,2.5-1.5,3.9-3.7,4.5C-140.9,202.6-143.4,202.9-145.7,203.9z"/>
		<path class="st40" d="M-129.4,195c1.9-1,3.7-2.2,4-8.9c0-4.5-2-7.5-7.1-8c-2.5,0.1-3.6,0.4-4.5,0.8c1.3,0.4,2.4,1.6,3.5,3.8
			c-0.1,3.9-1.4,6-2.6,7l-1.6-0.2c-0.5,1.4-0.5,2.4,0.8,2.9C-133.6,191.2-130.7,192.3-129.4,195z"/>
		<path class="st40" d="M-171.5,177.7c3.8-0.7,8.1-4.7,12.7-11.8l0.3,2.5c5.1-7.3,8.6-16.5,11-27c2.3-3.7,4.9-6.9,7.6-9.4
			c3.6-3.9,6.5-8.2,8.9-12.8c1.5-3.4,2.5-7.3,3.2-11.5c1.5-1.5,2.9-4.3,4.3-7.3c0,0-3.1,2.5-4,3.6c-1.3,1.6-3.2,7.1-4.8,8.3
			c-2.1,1.6-7.6,0.3-10.1,1.3c-2.9,1.2-4.8,7-10.4,8.2c-4.4,1-7.4-0.9-7.4-0.9c0.2,5.1-0.6,10.4-2.3,16c-1.1,5.3-2.9,10.5-5.1,15.5
			l-2.1,4.1C-171.6,163.2-172.1,170.3-171.5,177.7z"/>
		<path class="st40" d="M-149.1,162c-0.5-4-0.8-8.3-0.5-12.9l2.1-7.9c2.3-3.6,4.8-6.8,7.6-9.4c3.6-3.9,6.5-8.2,8.9-12.8
			c1.4-3.1,2.4-7.1,3.2-11.5c1.8-2.3,3.3-4.8,4.3-7.3c0,0,3.9-0.9,4.9-1.2c2.1-0.7,5.8-0.6,8.3-3.1c1.2-1.2,4.6-2.6,4.6-2.6l2.2,1.2
			c-1.4,1.9-1.8,4.2-1.5,6.9c-0.4,25.3-7.2,47.5-24.2,62.4c-1.9-12-2.1-24.2-1-36.7C-136.5,143.7-142.8,155.4-149.1,162z"/>
		<path class="st40" d="M-182.2,120.9c0.5,2.1,3.1,3.4,7.5,3.8c4.5,0,6.8-4.8,10.1-5.1c0.7,0.2,1.4,0.4,2.1,0.6l2.3,0.7
			c2.4,1.2,4.9,1.5,7.4,0.9c5.2-1.1,7.3-6.8,10.4-8.2c1.1-0.6,8.5,0.2,10.1-1.3c1.6-2.1,3.2-5,4.8-8.3c1.1-1,2.5-2.3,4-3.6l4.9-1.2
			c1.6-0.2,7-1.3,8.3-3.1l1.9-5.2c2.3-0.9,4.9-4.1,4.9-4.1s1.8-5.8,1.4-9.3c0-2.8,2.3-5,5.2-7.2c-3.3-0.3-6.1,0.7-8,3.8
			c0.1-1.8,0.6-3.5,2.8-5.1c0.9-1.3,3.5-2.6,7.6-3.9c2.6-1.5,4.1-3.6,4.5-6.3c0.6-3.8,0.1-7.3-0.8-10.7c-0.1-2.4,2-4.5,5.1-6.4
			c-5.8,1.9-11.2,4.8-14.8,12.3c-0.8,3.2-2.6,5.9-5.6,7.8c-6.5,1.7-10.4,3.5-12.3,5.4c-4.2,2.9-1.2,15-7.2,19.6
			c-1,3.2-7.9,0.4-17.3-0.1c-6.8-0.4-12,4.4-15.4,10.9c-2,1.3-4.8,1.7-8,1.7c-3.4,0-6.9,3.9-6.9,3.9s-3.6,4.4-4.8,10.7
			C-178.5,116.2-179.9,118.5-182.2,120.9z"/>
		<path class="st40" d="M-190.9,135.6c0.6,0.1,1.1,0.2,1.4,0.6c0.1,1.1,0.2,2.2-0.5,4c-0.8-0.2-1.3-0.4-1.5-0.8
			c-0.9-1.5-1.3-3.1-1.3-5C-192.5,135.2-191.8,135.6-190.9,135.6z"/>
		<path class="st40" d="M-190,140.2c0,0.8,1.2,1.2,3,1.4c3-0.3,5.7-0.8,7-1.6c3.6-5,5.9-10.2,7.5-15.6c3.4-1.2,5-4.3,8-4.7l2.1,0.6
			c-4.7,6.5-8.1,13.2-10.4,19.9c-1.9,2.4-5.2,3.6-9.4,3.9c-2.5,0.8-4.9,1.1-7,0.4c-1.3-0.4-2.7-1.3-3-2.3c-0.2-1,0-2,0.5-2.9
			C-191.2,139.8-190.7,140.1-190,140.2z"/>
		<path class="st40" d="M-179.7,139c0,0-1.4,0.3-2.3,0c-0.3-0.5-0.6-1.1-0.8-1.6l0,0c-0.4-1-0.7-1.9-0.9-2.8
			c0.5,0.1,0.9,0.3,1.3,0.5l0,0c1.1,0.4,2,1,2.9,1.6C-179.2,137.4-179.7,139-179.7,139z"/>
		<path class="st40" d="M-172.6,124.4c-1,4-3.8,10.5-7.5,15.6c-2,0.9-4.4,1.4-7,1.6c-1.5,0-2.7-0.4-3-1.4c0.5-1.3,0.8-2.6,0.5-4
			c-0.4-0.4-1-0.6-1.4-0.6l1.3-2.5c0.6,2.9,1.8,5.9,4.9,6.8c1.1-0.6,1.7-1.2,1.9-2.1l0.1-0.4l0,0c0.2,0.5,0.5,1,0.8,1.6
			c0.9,0.3,2.3,0,2.3,0s0.5-1.6,0.2-2.4c-0.9-0.6-1.8-1.2-2.9-1.6l0,0l0,0c1.2-3.1,3.8-6.9,6.9-10.4
			C-174.4,124.8-173.4,124.7-172.6,124.4z"/>
		<path class="st40" d="M-182.4,135c-0.4-0.2-0.9-0.3-1.3-0.5c0.2,0.9,0.5,1.9,0.9,2.8l-0.1,0.4c-0.2,0.9-0.9,1.5-1.9,2.1
			c-2.6-0.8-4.2-3.1-4.9-6.8c-0.3-0.6-0.3-1.4,0-2.6c0.1-2,0.6-3.9,1.4-5.8c3-0.6,4.9-2,6.1-3.8c0.6,2.1,2.9,3.3,6.7,3.8
			C-178.7,128.3-181.1,131.8-182.4,135z"/>
		<path class="st40" d="M-193.6,126c0,0,4-1,5.3-1.2c2.9-0.6,4.9-1.9,6.1-3.8c2.1-1.9,3.4-4.3,4.2-6.9c0.8-3.9,2.5-7.5,4.8-10.7
			c1.9-2,4-3.6,6.9-3.9c2.2-0.1,4.3-0.2,5.7-0.7c-0.3-3-0.1-6.2,0.4-9.5c3.4-3.8,7.6-7,12.5-9.7c-1.7-0.9-5-0.7-10.7,1.1
			c10.7-10.5,15-23.5,14.7-38.2c-7.1,11.5-15.9,22-27.2,31.2c-4.1,2-5.6,4.8-6.6,7.6c-0.9-0.4-2-0.5-3.7-0.2c0.6-2.5,2-4.6,4.1-6.3
			c-2.3,0.3-4.5,0.9-5.5,2.9c3.3-11.8,2.5-24.3-2-37.4c-3.4,15.5-8,30.5-13.8,45.2c-0.4,2.4-5.9,7.2-9.9,12.7
			c-1,1.3-0.3,8.7,2.9,12.1c1.1,1.2-2.9,5.7-2.9,5.7s-3.7,0-4.6,0.7c-1.6,1.2-3.1,2.3-2.9,7.4c0.2,6.6,6.2,7.8,6.2,7.8
			s4,2.9,5.6,2.9c4.2,0,5.9-3.4,5.9-3.4C-196.9,128.5-195.5,126.5-193.6,126z"/>
		<path class="st40" d="M-183.8,99.3c1.9,1.9,3.2,4.5,3.2,8.6c-1.7,1-4.4,3.1-8.2,5.5c-1.7,0.4-3.1-0.4-3.8-2.8
			C-191.2,107.8-187.6,103.6-183.8,99.3z"/>
		<path class="st40" d="M-187.4,103.4c1.7,1.7,2.4,4.3,1.8,7.8c-0.6,0.4-1.7,1.1-3.2,2.2c-1.9,0.5-3.2-0.7-3.8-2.8
			C-191.3,108.2-189.5,105.8-187.4,103.4z"/>
		<path class="st40" d="M-189.1,105.5c0.7,1.8,0.9,3.5,0.1,4.8c-0.2,0.3-0.5,0.5-1.3,0.4c-0.6-0.4-1-1.1-1.1-2.2
			C-190.7,107.5-189.9,106.5-189.1,105.5z"/>
		<path class="st40" d="M-194.1,126.1c0.2,2.4,0.3,4.6,0,6.5c0,1.3-0.3,2.2-0.9,2.6c-0.4-0.4-0.8-0.8-1.1-1.1c-1-0.9-1.7-1.9-2-3
			C-197.1,128.7-195.7,127.1-194.1,126.1z"/>
		<path class="st40" d="M-208.3,115.7c0.2,0,3.9-5,2.9-5.7c-1.2-1.2-1.9-2.9-2.7-5.4c-3.5,2.3-6.2,4.5-5.8,6.7c0.3,2,1,5.1,1,5.1
			C-212.3,116-210.8,115.7-208.3,115.7z"/>
		<path class="st40" d="M-204.9,93.7c3.2-3.7,6.3-6.8,6.5-8.5l0.8-2c-3.5-0.6-6.4,0.1-8.1,2.6C-208.1,89.1-207.7,91.7-204.9,93.7z"
			/>
		<path class="st40" d="M-181.6,73.1c0,0,3.7-1.5,3.8-3.9c0.1-1.3-2.4-3.5-2.3-4.8c0.1-1.6,2-2.7,2.7-4.2c0.6-1.2,1.2-3.9,0.5-5.4
			c-0.4-0.9-1-2.1-1.1-3.2c0.2-11.4,7.6-17.4,19.4-19.9c0,0-10.6,7.9-10.5,11.8c0.1,3.5,4.4,4.7,4.7,6.4c0.6,2.2-3.1,4.5-4.1,6
			c-0.7,1.2-0.8,3.4-0.7,5.6c1.4-3.5,3.4-5.2,6.4-4.2c-1.5,2-2.7,4.2-3.3,6.7c0.4,1.4,0.7,2.9,0.6,4.6c-1.6,1.4-3.2,2.9-5.4,4.7
			c-3.4,1.6-5.5,4.2-6.6,7.6c-1.2-0.4-2.4-0.5-3.7-0.2c0.5-2.3,1.9-4.4,4.1-6.3c-2.8,0.4-4.6,1.2-5.5,2.9L-181.6,73.1z"/>
		<path class="st40" d="M-121.5,77c-6.1,1.7-10.5,5.1-12.9,10.6c5.4,0.9,8.3,1,8.8-0.9C-122.5,84.4-122,80.6-121.5,77z"/>
		<path class="st40" d="M-110.4,96l1.9-5.2l2.7,2.6C-107.5,94.1-109,95-110.4,96z"/>
		<path class="st40" d="M-102.2,77.5c12.7,2.9,15.4,13.6,5.1,34.6c-1-7.6-3.1-13.7-6.5-17.5l-2.2-1.2l-2.7-2.6
			c1.4-0.5,3.1-2,4.9-4.1C-102.5,83.5-102,80.3-102.2,77.5z"/>
		<path class="st40" d="M-97.5,70.7c2.5,3,3.3,6.2,2.2,9.8c-2-1.5-4.3-2.4-6.8-3C-102.2,75.2-100.5,73-97.5,70.7z"/>
		<path class="st40" d="M-102.2,69.1l4,1.2c-3.2-0.1-5.4,1.5-6.9,3.9C-104.9,72.1-104.1,70.3-102.2,69.1z"/>
		<path class="st40" d="M-209.1,132.1c-0.1,1.7,1.8,4.1,1.8,4.1s0.8-1.4,1.2-2.3C-207.1,133.4-208.1,132.7-209.1,132.1z"/>
		<path class="st40" d="M-147.2,195.9c0.2,1.4,0.5,3,1.6,4"/>
		<path class="st40" d="M-150.4,203.8c0.4-1.3,0.8-2.6,1.7-3.6c0.6-0.7,1.4-1.3,2.1-1.9"/>
		<path class="st40" d="M-142.4,202.9c1.7,1.8,4.1,2.9,6.5,2.9"/>
		<path class="st40" d="M-137.8,208.4c-1.1-0.6-1.9-1.7-2-3"/>
		<path class="st40" d="M-175.5,164.5c1.3-0.6,5.5-7.3,5.8-8"/>
		<path class="st40" d="M-253.1,168.1c1,0.1,2,0.7,2.7,1.5s1.8,2.2,2.2,3.1c0.6,1.8,0.8,3.2,0.5,5"/>
		<path class="st40" d="M-247.1,179.4c0.6-0.9,1.5-2.1,2.2-3c1.3-1.9,2.7-3.9,4.5-5.3"/>
		<path class="st40" d="M-232.1,170.6c0.6,1.5,1,2.9,2.6,3.4"/>
		<path class="st40" d="M-248.7,166.7c-0.1,1.3-0.8,3.2-0.6,4.4"/>
		<path class="st40" d="M-230.5,169c0.7,0.3,0.9,0.6,1.2,1.3s-0.1,1.9-0.2,2.7c-0.1,1.2,0.2,2.2-0.3,3.2"/>
		<path class="st40" d="M-236.3,191.6c2-1.8,3.4-4.2,4.3-6.8c0.8-2.6,2-5.9,2.1-8.6"/>
		<path class="st40" d="M-259.8,172.2c0.1,0,0.3,0.1,0.4,0.2c1.1,1,2.6,1.3,4,1.9c1.3,0.6,2.5,1.5,3.4,2.6"/>
		<path class="st40" d="M-214.7,171c0.8,0.9,1.3,2.1,1.4,3.3c0,1-0.2,2-0.5,3"/>
		<path class="st40" d="M-238.8,148.6c1.1,1,1.9,2.3,2.3,3.7c0.3,0.8,0.4,1.7,0.5,2.5c0.1,0.4,0.1,0.9,0.2,1.3"/>
		<path class="st40" d="M-287.8,142.7c0.6-0.2,5.3-2.9,6.4-3.4"/>
		<path class="st40" d="M-312.7,108.7c3-0.8,12.4-2.1,13.4-1.9"/>
		<path class="st40" d="M-202.6,150.1c2-1.1,4-2.7,5.5-4.4"/>
		<path class="st40" d="M-186.8,133.1c0.4-2.4,0.7-4.8,1.8-6.9"/>
		<path class="st40" d="M-184.3,125c0.6-1.3,1.3-2.9,2.1-4.1"/>
		<path class="st40" d="M-197.4,101.1c-0.4,0.4-0.6,2.4-0.7,3.8c-0.1,1.3-0.2,1.7,0,3c0.3,1.9,1.4,3.7,2.3,3.9
			c0.8,0.2,2.4-0.3,3.1-1.3c0.4-0.6,1.3-2,1.3-2"/>
		<path class="st40" d="M-204.2,102.4c-0.2,2.4,0.4,4.9,1.6,6.9"/>
		<path class="st40" d="M-206,125.7c0.1-1,0.4-1.9,0.8-2.8c0.2-0.5,2.3-3.9,3.3-5c0.5-0.5,1.1-1.1,1.9-1.1c1.4-0.1,2.6,1.7,4,1.4"/>
		<path class="st40" d="M-203,128.7c-0.1-0.7,0-1.5,0.2-2.2c0.3-0.9,1.3-2,2.4-2.8"/>
		<path class="st40" d="M-214.2,122.8c-0.1,1.5,0.2,3.1,2.1,4.4"/>
		<path class="st40" d="M-183.8,99.3c0.1-0.5,2.5-3.2,3.4-4.1"/>
		<path class="st40" d="M-191.8,85.1c0.1-0.7,3.8-2.8,4.7-2.7"/>
		<path class="st40" d="M-185.2,81.8c1.6-0.5,2.3-0.8,4-0.9"/>
		<path class="st40" d="M-130.2,127.3c2.4-3.7,4.4-7.6,6.1-11.7"/>
		<path class="st40" d="M-252.5,57.1c-3.5,2.3-5.5,6.7-4.9,10.8"/>
		<path class="st40" d="M-256.7,75.3c0,0.3,0.1,0.6,0.3,0.9c0.5,1.1,1.1,2.2,2.1,2.8"/>
		<path class="st40" d="M-187.7,166.2c0.7,0.8,1.4,1.6,1.9,2.5c0.3,0.4,0.5,0.8,0.7,1.2c0.2,0.3,0.3,0.5,0.5,0.8
			c0.5,0.9,1,1.7,1.3,2.7"/>
		<path class="st40" d="M-177.1,174.6c1.1-2.1,3.4-3.4,4.4-5.5"/>
		<path class="st40" d="M-148.1,271c-0.3,1.1-0.4,2.2-0.4,3.3c0,0.8,0.1,1.7,0.6,2.4"/>
		<path class="st40" d="M-264.5,295.5c3.1,0.2,6.2-0.5,8.9-2.1c0.6-0.4,1.2-0.7,1.7-1.2c1-0.9,1.7-2.3,2.9-2.8"/>
		<path class="st40" d="M-263.3,284.2c-0.9,1.3-1.4,3.1-1.1,4.7"/>
		<path class="st40" d="M-278.7,278.9c0.1-0.1,0.3,0,0.4,0.1c1.2,1.1,1.8,2.6,2.5,4.1"/>
		<path class="st40" d="M-265.2,304.5c0.1,1.1,0.5,2.1,1.3,2.9"/>
		<path class="st43" d="M-143.6,42.3c-3.5,5.6-7.4,11.1-12,16.4c3.1,1.1,5.6,3.6,6.8,8.6C-144.7,58.5-143.4,50.2-143.6,42.3z"/>
		<path class="st43" d="M-184.6,40.1c2.5,6.9,3.9,14.7,4,23.4c-2.6-2.7-5.8-3.2-9.6-1.8C-188.4,56-186.5,48.1-184.6,40.1z"/>
		<path class="st40" d="M-112.3,215.7c-0.3,0.4-0.3,1-0.3,1.5c0,0.8-0.1,1.8,0.6,2.3c0.2,0.1,0.9,0.8,1.2,1c0.2,0.1,1.2,0.3,1.8,0.2
			c0.6,0,1.1-0.3,1.3-0.4c0.6-0.2,1.6-0.5,2.2-0.4c0.7,0.1,1.3,0.5,1.6,0.8c0.2,0.2,0.5,0.6,0.6,0.8"/>
		<path class="st40" d="M-226.1,244.4c-5.8-10.3-12.5-19.3-20.7-26.5c-0.5-0.4-1.1-0.8-1.6-1.3c-0.6-0.5-1.2-1-1.8-1.5l-0.7-1.6
			l2.2-10.2c4-1,7.2-2.1,9.3-3.1c4.5-2.4,8.5-5.1,11.5-8.5l5.1-11.5l1.9-1.1c1.2,2.5,1.7,5.4,1.9,8c4.5-1.2,7.2-4.6,8.2-10.5v-2.5
			c2.9,0.2,5.6-2.5,7.9-8.4c2.2-8.2,1.8-15.2-1.7-20.5c-1.7,5.9-4.2,9.4-7.1,11.7c-0.7,0-1.3,0.3-1.7,0.7c-0.4-0.9-0.9-1.5-1.7-1.9
			c2.7-1.4,5.4-3.2,7.9-5.2c-1.4-0.8-3.5-1.4-5.9-1.9c4.7-3.6,9.4-5.7,14.1-5.9c2.6-1,4.7-2,5.1-3.3c-1.5-1.4-3.5-2.2-5.7-2.6
			c1.1-1.2,2.3-2.4,3.7-2.6l1.1,1.1c0.7-0.7,0.9-1.6,0.9-2.6c1.3-0.9,2.7-1.6,4.4-2.1c-0.2,0.9-0.3,1.8,0,2.6l-1.3,2.5
			c-0.9,0-1.6-0.4-1.9-1.2c0.1,2.1,0.5,3.8,1.2,5.1c-0.5,0.9-0.7,1.9-0.5,2.9c0.3,1.1,1.6,1.9,3,2.3c2.2,0.7,4.2,0.2,7-0.4l-7,9.3
			c-18,22-29.4,48-36.1,76.8C-226.2,235.5-226.7,240.3-226.1,244.4z"/>
	</g>
</g>
<g id="Capa_2_1_">
	<path class="st44" d="M131.5,215c7.4,7.1,16.7,14.9,24.2,29.3c4.8,18.7,2,28.2-1.9,37.6c-5.1,9-14.4,14.3-25.3,18.2l0.5,7.1
		l2.3,6.2c-2.4-0.6-4.5-0.2-6.4,1.6c-0.9,2.1-1.1,4.4-0.8,6.9l-3.1-1c-0.7-6-3.2-9.4-7.4-10.4c-3.8,2.8-5,6.4-4.3,10.7l-3.9-2.5
		c0.5-4.4-0.6-7.2-3.8-8.2c-4.6,1.7-6.7,5.3-7.2,9.9l-1.2-3.9c0.6-4.1,1.5-7.9,2.9-10.8c0.3-0.7,0.8-1.3,1.2-1.9
		c1.4-6.5,1.9-13,1.8-19.6l3.9-5.8l-1.2-14C103.7,247.3,113.2,231,131.5,215z"/>
	<path class="st45" d="M131.5,215c8.9,6.8,17,16.6,24.2,29.3c3.9,13.7,3.1,26-1.5,37c-4.8,8.4-13.4,14.6-25.7,18.7
		c-0.4,4.8,0.7,9.2,2.8,13.3c-2.2-1-4.3-0.6-6.4,1.6c-1,2.3-1.3,4.6-0.8,6.9l-3.1-1c-0.5-5.5-2.9-9.3-7.4-10.4
		c-3.7,2.7-5.1,6.3-4.3,10.7l-3.9-2.5c0.5-4.7-0.9-7.3-3.8-8.2c-4.5,1.4-6.5,5.1-7.2,9.9l-1.2-3.9c0.9-5.4,2.1-10.2,4.1-12.7
		c1.3-5.7,1.8-12.3,1.8-19.6l3.9-5.8l-1.2-14C104.1,245.1,115.1,229.1,131.5,215z"/>
	<path class="st46" d="M106.1,248c-1,10.2-1.4,19.7,1.2,26.6c2.7,4.7,6.2,7.9,10.5,9.5l-1.5,11c0,0,5.8,0.5,7.6,0
		c2.2-0.7,7.7-5.1,7.7-5.1c7.8-1.3,15.9-5.9,24.3-13.6c-2.6,9.4-10.6,17.5-27.4,23.6c-0.2,2.2-0.1,4.6,0.5,7.1
		c-3.1-1.7-6.1-3-8.9-3.1c-1.7,1.5-2.5,3-2.6,4.5l-2.1-5.1c-6-0.3-12.5,0.7-19.3,2.4c0.3-0.7,0.7-1.3,1.2-1.9
		c1.3-5.6,1.8-12.2,1.8-19.6c1.1-1.6,2.4-3.6,3.9-5.8l-1.2-14C102.2,259.5,103.9,253.9,106.1,248z"/>
	<path class="st2" d="M98.3,332c3.8-1.9,6-6.4,7-13.2c0.5-4.5-0.8-7.2-3.8-8.2c-4,1.4-6.6,4.6-7.2,9.9
		C94.5,323.5,96.2,327.6,98.3,332z"/>
	<path class="st2" d="M109.3,321.3c-0.9-4.7,0.8-8.2,4.3-10.7c4.1,0.8,6.5,4.2,7.4,10.4l0.9,9.5
		C116.9,327.6,112.4,324.6,109.3,321.3z"/>
	<path class="st2" d="M124.1,322c-0.3-2.6-0.1-4.9,0.8-6.9c1.7-1.6,3.7-2.3,6.4-1.6c5.4,2.8,7.2,8.6,8.3,15
		C133.8,327,128.7,324.8,124.1,322z"/>
	<path class="st47" d="M216.5,207c2.5,6.3,3.9,13.2,4.1,21l0,0c-2.1,19.8-11.5,35.6-29.6,46.8c-4.3,2.3-8.9,4-13.8,5.2l0,0
		c-7.2,1.7-15,2.3-23.3,1.8l0,0c0.1-0.1,0.1-0.2,0.2-0.3c0.6-1.2,1.2-2.7,1.9-4.7c0-0.1,0.1-0.2,0.1-0.3c0.2-0.5,0.3-1.1,0.5-1.6
		c0-0.1,0.1-0.3,0.1-0.4c0.8-3.2,1.4-6.6,1.6-10.3c0.3-5.8-0.4-12.3-2.5-19.9v-0.1c-0.6-3.6,0-8.6,0.9-13.9c0-0.2,0.1-0.4,0.1-0.6
		c5.4-24.5,15-46.9,29-67l14-18.6c3.6-0.4,7-1.2,9.4-3.9c0.9-2.6,1.9-5,2.9-7.2c1.7-4,4.4-8.3,7.4-12.7l2.3,0.7
		c0,5.9-0.5,11.4-2.3,16c-1.5,6.7-3.6,13.3-7.2,19.6c-1.9,6.5-2.4,13.6-1.8,21.2C211,187.7,213,197.5,216.5,207z"/>
	<path class="st46" d="M155.6,244.2c-6.6-11.6-13.9-20.8-22.3-27.7c7.5,5.8,15.2,10.6,23.2,13.8C155.7,235.6,155,240.6,155.6,244.2z
		"/>
	<path class="st48" d="M220.7,228c-2.1,19.9-11.6,35.7-29.6,46.9c-4.1,2.4-8.7,4.1-13.9,5.2l0,0c-7.1,1.5-15,2-23.3,1.8l0.1-0.3
		l1.9-4.7l0.1-0.4c0.2-0.5,0.3-1,0.4-1.6c0-0.1,0.1-0.3,0.1-0.4c0.9-3.4,1.4-6.9,1.6-10.3c0.4-6.7-0.4-13.3-2.4-19.9
		c0,0,0-0.1-0.1-0.1c-0.6-3.6,0-8.6,0.9-13.9c6.3,2.5,12.7,4.2,19.4,4.7C195.5,237,212.7,236.9,220.7,228
		C220.6,228.1,220.6,228.1,220.7,228z"/>
	<path class="st48" d="M194.2,165.8c0,0,4.2,10.1,7.4,10.4c2.6,0.2,7.6-7.3,7.6-7.3s-5.6,2.4-7.5,2.1
		C199.4,170.6,194.2,165.8,194.2,165.8z"/>
	<path class="st48" d="M192.6,153.4c1.3,2.5,4.5,3.5,9,3.3c4.8,0,8.9-1.7,12.5-4.3c2.4-5.2,4-10.4,5.1-15.5c1.6-5.3,2.5-10.6,2.3-16
		l-2.3-0.7c-4.5,6.3-8,13-10.4,19.9c-2.2,2.5-5.5,3.6-9.4,3.9L192.6,153.4z"/>
	<path class="st45" d="M220.7,228c18.4,14.9,25.5,25.8,25.8,34.3c0.2,8.1-3.6,13.9-12.3,16.9c-2.9,1.7-4.4,3.5-3.9,5.1
		c0.2,2.9,2.3,5,5.8,6.3l9.4,4.3c-0.8,0.1-1.5,0.2-1.9,1c-0.4,0.6-0.4,1.4-0.1,2.3c-2-0.7-3.6-0.3-4.9,0.6c-0.4,0.6-0.5,1.2-0.2,1.9
		c-2.3-1.8-4.6-1.9-7-0.5c-1,0.8-1.8,1.6-2.2,2.7s-0.4,2.1,0.1,2.9c-4.6-1.5-9.5-2.3-14.7-2.5c-11-1-16.8-3.5-16.7-7.8
		c0-2.3,3-7.7,3-7.7s1.2-2.8,0.4-4.3c-1.6-2.9-4.4-4.3-10.1-8.7C206.8,265.9,217.4,251,220.7,228z"/>
	<path class="st46" d="M220.1,232.6c7.8,5.3,14.7,13.2,20.8,23.2c-4.5,5.7-7.9,11.1-7.3,15.7c-1.5,5-3.8,11.5-3.5,12.8
		c0.1,2.9,2.3,4.9,5.8,6.3c-2.1,0.9-3.9,1.9-4.2,2.9c-3.3-1-7.5-0.4-9,1.2c-1.6,1.7-1.7,6-1.2,9.3l-7.2-0.7
		c-10.2-1-16.9-2.3-16.7-7.8c0.6-2.9,1.7-5.4,3-7.7c1-1.5,1-2.9,0.4-4.3c-2.3-3.2-6-6-10.1-8.7C206.5,264.9,217.1,251.5,220.1,232.6
		z"/>
	<path class="st49" d="M265.7,221.9c-2-3.2-6.7-9.1-6.8-13.2c-0.6-4.6,1.6-5.9,4.5-6.4c2-0.4,3.3-1.2,3.7-2.1
		c0.3-1.9,0.8-3.9,1.6-4.9c2-2.3,6.5-4.5,11.2-4.8c0,0,15,3.9,20.1,3.1c2.3-0.4,7.6-2,8.2-4.2c0.4-1.7-3.9-4.3-3.9-6.1
		c0-2.7,5.4-5.8,7.4-7.6c1.3-1.2,2.9-4.8,4.5-5.8c1.9-1.1,6.6-1.3,8.9-1.1c3.4,0.4,10,3.3,13.4,3.1c1-0.1,2.9-1,3.6-1.6
		c1.1-1,2.8-3.6,3.8-4.8c2.4-2.9,10.5-0.7,10.5,0.7c0,0-6.7,0.6-8.1,2.1c-0.7,0.8-1,3.1-0.8,4.1c0.4,1.7,1.3,5.2-0.5,6.1
		c-1.2,0.6-4,0.8-5.4,0.9c-2.2,0.2-6.8-0.1-8.7,0.9c-2.2,1.2-6.2,8-6.2,8s3.5-2.5,4.9-2.9c2.4-0.7,7.8,0.3,7.1,0.8
		c0,0-6.5,2.5-7.7,4.5c-0.9,1.5,0.3,5.5-0.5,7.1c-0.4,0.9-2.7,1.5-3.3,2.3c-1.2,1.7,0.3,6.5-0.7,8.3c-0.6,1.1-4.2,1.2-4.4,2.4
		c-0.2,2.1-0.6,4.4-1.9,4.6c-2,0.3-6,0.9-8,1.1c-2.5,0.2-7.8-0.6-9.9,0.6c-1.1,0.6-2.4,2.9-2.8,4c-0.6,1.5-0.6,5.1-1.7,6.2
		c-2.2,2.3-8.9,3.5-12,3.5c-2.9,0-8.8-0.2-11.6-1.2c-1.5-0.5-4.6-1.9-5.7-3.1C267.6,225.4,266.4,223,265.7,221.9z"/>
	<path class="st50" d="M266.9,221.3c-0.8-1.3-2.4-3.9-3.2-5.2c-0.8-1.3-2.3-4.5-1.6-5.8c0.4-0.9,3.1-0.8,3.3-1.6
		c0.3-1-0.7-4.5,1.5-5.6c1.5-0.7,4.8-1.7,6.4-1.5c2.2,0.3,6,3.3,8.2,3.8c1,0.2,3.5,0.7,3.9-0.2c0.5-1,0.5-3.7,1.7-4.4
		c1-0.5,3.1-1.6,4.2-1.7c3.3-0.3,4.8,1.5,6.4,2.4c1.2,0.6,4.2,1.1,5.1,0.8c1.2-0.5,0.6-3.5,1.3-4.7c0.4-0.7,1.6-1.7,2.4-1.9
		c1.3-0.2,3.8,2.2,5,1.6c1.3-0.6,1.7-4.1,1.6-5.6c-0.1-1.2-0.4-3.8-1-4.9c-0.6-1.1-2.8-2.5-3-3.7s0.7-3.6,1.5-4.4
		c0.8-0.8,3-1.5,3.9-2.1c0.8-0.6,2.5-1.8,3.1-2.6c0.7-1,0.5-3.7,1.4-4.5c1.2-1,4.6-0.8,6.1-0.8c3.4,0.2,10,3.4,13.4,3.1
		c1-0.1,2.8-1,3.6-1.6c0.3-0.2,0.5-1.2,0.9-1.1c1.2,0.4,0.5,3.8,0,5c-0.5,1.1-2.6,2.7-3.8,3.1c-1,0.3-3.2,0.2-4.1-0.2
		c-1-0.3-2.5-2.7-3.5-2.5c-1.4,0.2-1.7,3.6-3.1,3.8c-1.5,0.2-2.9-3-5.4-2.8c-1.6,0.1-4.1,2.6-5,3.9c-0.8,1.1-2,3.6-1.8,4.9
		c0.1,1.1,1.8,2.7,2.3,3.6c0.6,1.1,2.1,3.4,1.9,4.6c-0.2,1.7-3.5,3.9-4.3,5.5c-0.4,0.9-0.4,2.8-0.3,3.8s1,2.6,0.8,3.7
		c-0.3,1.4-2.5,3.5-3.7,4.2c-1,0.5-3,0.8-4.1,0.9c-0.9,0-2.7-0.4-3.5-0.2c-0.9,0.2-2.2,1.6-3.1,1.7c-1,0.2-3.1-0.8-4.1-0.7
		c-0.9,0.1-2.4,1-3.2,0.8c-0.7-0.2-1.6-1.2-2-1.9c-0.3-0.8,0.2-2.9-0.5-3.4c-0.9-0.6-3.2,0.4-4,1.1c-0.8,0.6-1.9,2.4-2.1,3.4
		c-0.1,1,0.6,2.8,1,3.7c0.4,0.8,1.8,1.9,2,2.7c0.1,0.7-0.3,2-0.8,2.5c-1.5,1.4-3.6,0.2-4.4,1.1c-0.8,0.9,0.5,3.1,0.1,4.2
		c-0.5,1.2-3,2.6-4.3,3.1c-1.3,0.4-4.3,0.4-5.7,0c-1.3-0.4-3.7-2-4.7-3C268.7,224.6,267.6,222.4,266.9,221.3z"/>
	<path class="st51" d="M326.8,188.1c0,0,0.2,4.5-0.5,5.7s-3.9,1.9-4.7,3.1c-0.3,0.5-0.2,1.9,0,2.4c0.7,1.6,5.2,4.8,5.2,4.8
		s-0.2-3.4,0.3-4.3c0.5-0.9,2.8-1.4,3.3-2.3c0.9-1.5-0.4-5.6,0.5-7.1c1.2-1.9,7.7-4.5,7.7-4.5c-2.2-1.4-7.1-0.9-7.1-0.8
		C331.6,185.2,328.4,186.8,326.8,188.1z"/>
	<path class="st45" d="M220.7,228l-0.8-8.8c8.6,3.3,17.3,5.7,26.2,5.4c10.2-0.2,19.1-1.3,23.6-5.1c0.2,0.2,0.6,0.5,1.2,1
		c1.3,0.4,2.5,0.2,3.5-0.4c-2.2,3.9-6.8,7.3-12.2,10.4c-7,2.6-14.5,4-22.4,4.1c-4.6,0.2-8.5-0.1-12.1-0.7L220.7,228z"/>
	<path class="st48" d="M234.4,240.6c1.6,0.3,7.5-1.1,7.5-1.1s13.7-4.3,20.2-9c-7.3,2.6-14.8,4.1-22.4,4.1l-12.1-0.7L234.4,240.6z"/>
	<path class="st2" d="M259.4,305.5c-1.9-5.2-5.4-9.5-14.1-10.7c-1,0.1-1.6,0.4-1.9,1c-0.4,0.6-0.4,1.4-0.1,2.3
		c3.6,0.6,7.2,5.7,7.5,5.9C250.8,304.1,257.4,306,259.4,305.5z"/>
	<path class="st2" d="M238.2,300.7c-0.3-0.8-0.1-1.4,0.2-1.9c1.6-1,3.3-1.2,4.9-0.6c3.4,0.4,7.5,5.9,7.5,5.9s2.8,3.5,2.9,5.4
		c-3.8-0.4-7.3-1.1-9.8-2.7C242.3,304.3,240.5,301.9,238.2,300.7z"/>
	<path class="st2" d="M229.1,305.8c-0.9-1.9-0.3-3.8,2.1-5.7c2.5-1.5,4.8-1.1,7,0.5c2.2,1.2,4,3.5,5.8,6.1l1.1,3.2
		C238.9,308.7,233.2,307.3,229.1,305.8z"/>
	<path class="st48" d="M103,257.9c-27.1-3.4-42.8-13.5-41.8-33.2c-2.7,11.5-0.8,24.2,16.5,41.2c7.2,6.1,15.6,9.8,25.2,10.9
		c-0.3-3.5-0.6-7.6-1-12.2C102.1,262.3,102.4,260,103,257.9z"/>
	<path class="st11" d="M104.2,252.9l-1.2,5c-28.4-3.6-42.9-14.4-41.8-33.2l2.3-8C61.7,240.2,77.5,250.7,104.2,252.9z"/>
	<path class="st45" d="M118.2,228.3c-12.4-3.7-19.1-8.9-21.2-15.4c10.6-4.1,21.9-3.6,33.7,0.6l2.2-10.3c-1.9,0.7-4.4,0.3-7.3-1
		c-2.8-1.3-4.1-3.2-4.5-5.4c-8.3-3.2-16.6-3.8-25.1-3.2c-19.1,1.4-28.8,9-32.6,23l-2.3,8c-1.2,20.2,15.5,29.6,41.9,33.2l1.2-5
		C107,244.7,111.7,236.5,118.2,228.3z"/>
	<path class="st48" d="M131.5,215l-0.8-1.5c-13-4.5-24.2-4.6-33.7-0.6c1.2,3.9,4.2,7.8,11.8,11.7c4.4-2.2,8.6-2.1,12.6,0L131.5,215z
		"/>
	<path class="st45" d="M120,185.8c1.2,3.8,1.6,7.5,1.1,11.1c0.3,2.2,1.8,4,4.5,5.4c2.1,1.2,4.5,1.6,7.3,1c3.9-1,8-2.1,9.3-3.1
		c5-2.5,8.7-5.4,11.5-8.5l5.1-11.5c-2.8-0.2-7.2-2.7-6.9-4h-7.2l-8.5,7l0.4,4.9c-6.9,0.8-11.7,0.5-14.7-2.6L120,185.8z"/>
	<path class="st45" d="M131.5,157.9l-4.3,3.6l-9.1,1c-4.5,2.5-6.8,6.5-7.2,12.1c0,7.1,4,9.8,9.1,11.2l2-0.2l-5.8-5.3
		c-1-3.2,0-5.9,2-8.3c2.5-1.8,5.2-1.9,8-0.9c3.6,1.5,6.2,3.7,7.9,6.8l2.2,5.4l8.5-7h7.2c0.1,1.5,2.4,2.8,6.9,4l1.9-1.1
		c-0.4-1.9-1.5-3.3-3.1-4.5c-0.7-1.4-0.5-2.7,1.2-3.7c2.8-1.7,5.5-2.8,7.6-2.6c1.4-0.5,2.8,1,4.1,3.5c0.6-2.9,0-4.9-1.7-6
		c-2.9-1.2-5.4-2.9-7.4-5.6c-7.2-1.6-10.9-4.6-12.7-8.4c0.2,5.4-0.5,10.3-2.3,14.7c-4.1-1.5-7.2-3.5-8.6-6.3
		C135.3,161.2,133.2,160.7,131.5,157.9z"/>
	<path class="st2" d="M136.7,188.1l-0.4-4.9l-2.2-5.4c-2.2-3.4-4.8-5.8-7.9-6.8c-2.5-1.2-5.2-0.8-8,0.9c-2.2,2.1-2.6,5-2,8.3
		l5.8,5.3C124.5,188.4,129.7,189,136.7,188.1z"/>
	<path class="st2" d="M160.7,179.1c1.2,2.2,1.6,5,1.9,8c4.4-1.3,7.3-4.5,8.2-10.5c0.1-2,0-3.6-0.2-4.8c-1.5-2.9-2.9-3.9-4.1-3.5
		c-2.8-0.1-5.3,1.2-7.6,2.6c-1.6,0.9-2,2.1-1.2,3.7C159.1,175.6,160.1,177,160.7,179.1z"/>
	<path class="st45" d="M131.5,157.9c-2.8-1.1-3.8-5.2-4.3-10.1c-0.8-5.4,1.4-9.7,8.6-12.2c6.2-0.1,10.5,2.5,12.2,8.4
		c0.7,3.2,1.1,6,0.8,7.9c0.1,5.6-0.5,10.7-2.3,14.7c-4.2-1.4-6.9-3.6-8.6-6.3C135.3,161.4,133.2,160.6,131.5,157.9z"/>
	<path class="st13" d="M137.8,160.2l-4.8-6.6c-0.2-4.1,2.5-8.4,6.5-9.2c3.6-1.5,9.3,7.4,9.3,7.4c0.4,3.7-0.3,8.6-2.3,14.7
		C143.1,165.7,140.1,163.6,137.8,160.2z"/>
	<path class="st45" d="M130.7,213.6l2.2-10.3c4-1,7.2-2.1,9.3-3.1c4.5-2.4,8.5-5.1,11.6-8.5l5.1-11.5l1.9-1.1c1.2,2.7,1.7,5.4,1.9,8
		c4.5-1.2,7.2-4.6,8.2-10.5v-2.5c2.9,0.2,5.6-2.5,7.9-8.4c2.2-8.2,1.8-15.2-1.7-20.5c-1.7,5.9-4.2,9.4-7.1,11.7
		c-0.7,0-1.3,0.3-1.7,0.7c-0.4-0.9-0.9-1.5-1.7-1.9c2.7-1.4,5.4-3.2,7.9-5.2c-1.4-0.8-3.5-1.4-5.9-1.9c4.7-3.6,9.4-5.7,14.1-5.9
		c2.6-1,4.7-2,5.1-3.3c-1.5-1.4-3.5-2.2-5.7-2.6c1.1-1.2,2.3-2.4,3.7-2.6l1.1,1.1c0.7-0.7,0.9-1.6,0.9-2.6c1.3-0.9,2.7-1.6,4.4-2.1
		c-0.3,0.9-0.3,1.8,0,2.6l-1.3,2.5c-1-0.1-1.5-0.5-1.9-1.2c0.1,2.1,0.5,3.8,1.2,5.1c-0.5,0.9-0.7,1.9-0.5,2.9c0.3,1.1,1.6,1.9,3,2.3
		c2.2,0.7,4.3,0.2,7-0.4l-7,9.3c-18,22-29.4,48-36.1,77c-7.5-3.1-15.7-7.7-25.1-15.3"/>
	<path class="st46" d="M121.1,197.9c0.5-4,0-7.7-1.1-11.1c-0.9,3.8-1.6,7.3-1.9,10.1L121.1,197.9z"/>
	<path class="st45" d="M150.1,154c2.3-1.5,5-2.6,8.8-2.9c3.1,0.8,5.7,2.2,7.6,4.8c1,0.6,1.5,1.2,1.7,1.9c0.6-0.4,1.2-0.7,1.7-0.7
		c2.8-2.1,5.2-5.6,7.1-11.7c3.2,4.8,4.1,11.4,1.8,20.3c-1.9,5.1-4.4,8.5-8,8.6c0.1-0.8,0-1.6-0.2-2.3c0.8-2.2,0.6-4.3-1.7-6
		c-2.8-1-5.3-2.9-7.4-5.6C156.6,159.3,152.7,157.3,150.1,154z"/>
	<path class="st52" d="M178.7,165.8c-5.7,0.4-8.8-2.3-8.8-8.8c4.2-3.9,6.3-8,7.1-11.7C180.4,150.8,181,157.6,178.7,165.8z"/>
	<path class="st45" d="M154.7,151.8c-1.5-1.2-2.2-2.7-2.2-4.6c-2.1,0.7-3.6-0.2-4.5-2.9c0.6,2.7,1,5.3,0.8,7.6
		c0.3,0.7,0.8,1.4,1.3,2.1C151.3,153.1,152.8,152.4,154.7,151.8z"/>
	<path class="st52" d="M154.3,133.6c-3.9,2.1-6.5,4.6-7.5,7.5c0.4,0.7,0.8,1.7,1.2,3.2c0.8,2.6,2.3,3.6,4.5,2.9
		C151.9,141.9,152.6,137.4,154.3,133.6z"/>
	<path class="st45" d="M152.5,139.9c2.4-0.2,4.6-0.3,6.3,0c5.3,1,9,6.4,12.2,13.3c-1.8,1.2-2.7,1.9-4.5,2.7
		c-1.5-1.9-3.6-3.8-7.6-4.8c-1.4,0.1-2.8,0.3-4.2,0.7c-1.5-1.1-2.2-3-2.2-4.6C152.3,145.9,152.1,142.4,152.5,139.9z"/>
	<path class="st45" d="M148.6,138c-8.3-10.1-13.7-20.2-16.8-30.3c0-10.7,0.3-23.5-1-26.9c0,0,1.7-0.6,2.2-1c0.5-0.3,2-2,2-2
		c9.7-1.1,18.1,2.2,24.7,10.4c0.8-20.2-6.6-32.3-25.7-32.8c0,0-1.2-4-4.7-4.9c-2.7-0.8-8.2,0.1-8.2,0.1c-5.5-1.2-10.3-2.8-14.3-5
		c-15.6-11.2-34-16.1-54-17.1c1,5.3,41.9,15.4,56.3,30.7c5.1,3.5,9.1,8.3,12.1,14.6c2.5,10.6,1.5,22.3-1.5,34.5
		c2.5,1.5,4.5,3.1,5.2,5.2c5.8,9.6,9.5,17.1,10.9,22.2c5.2-0.2,8.8,1.8,11,5.6L148.6,138z"/>
	<path class="st46" d="M146.8,141.1c0.3-1,0.9-2.1,1.8-3.1c-3.8-5.2-8.5-7.2-14.1-6c0.4,1.1,0.9,2.3,1.2,3.6
		C140.6,135.4,144.3,137.1,146.8,141.1z"/>
	<path class="st46" d="M159.6,88.2c-6.4-7.7-14.4-11.6-24.7-10.4c0,0-1.4,1.6-2,2c-0.5,0.3-2.2,1-2.2,1c-4.6-1.6-6.7-4.3-7.4-7.6
		c1.6-3.1,2.2-5.6,1.7-7.5C142.5,64.8,153.5,73.1,159.6,88.2z"/>
	<path class="st53" d="M88.2,45.5c-18.4-6.1-33.3-7.9-45.8-6.9c10.4,13.6,24.8,24.5,44.4,32.1C58.7,72.1,33.7,82.4,11,99.6
		c20.8,9.8,40,12.2,58,9.1c-29.6,15.1-49.6,31.6-63.5,49.1c16.9,5.9,44.4,2.6,88.4-15c-16.8,15-30,34.2-35.8,48.6
		c9.1,1.6,22.8-0.4,52.7-15.2c0-7,2.7-11.3,7.2-13.7c3.1-0.3,6.1-0.7,9.1-1l4.3-3.6c-2.8-1.3-3.9-5.2-4.3-10.1
		c-1.1-5.5,1.6-9.6,8.6-12.2c-2.4-7.2-6.2-14.6-10.9-22.2c-1.2-2.2-2.8-4.1-5.2-5.2c3.2-11.7,3.7-23.2,1.5-34.5
		c-4-7.8-8.1-12-12.1-14.6C102.9,53.2,95.8,48.9,88.2,45.5z"/>
	<path class="st54" d="M58.2,191.4c9.2,3.5,26.2-2,52.7-15.2c-0.3-5.2,1.4-10,7.2-13.7l9.1-1l4.3-3.6c-2.8-2-4.2-5.4-4.3-10.1
		c-0.9-6.8,2.7-10.2,8.6-12.2c-2.4-7.2-6.2-14.6-10.9-22.2c-1.8-3-3.5-4.6-5.2-5.2c3.3-11.8,3.7-23.3,1.5-34.5
		c-2.8-5.9-6.8-10.8-12.1-14.6c-4.6-4.9-12.3-9.4-20.8-13.6c-4.5-1.6-11.7-3.4-19.1-5.1c20.1,7.1,37.3,16.3,46.1,31.5
		c5,10.5,5,23.3,1.2,37.8l9.1,10.6l5.2,11.4c-19,20.3-40.3,34.1-63.6,42.5C63,179.2,60.2,185,58.2,191.4z"/>
	<path class="st46" d="M210.3,177.7c3.9-0.8,8.2-4.8,12.7-11.8c1.4,8.2,0.4,15.7-6.3,21.3c0,0,1,0.9,1.1,1.3
		c0.2,0.9-1.1,3.3-1.1,3.3c2.9,3.3,6.4,6.4,10.9,9.3c2.6-0.3,4.8-0.8,6-1.7c-2.4-0.9-4-2.1-4.6-3.7c1.6-0.3,2.8-0.9,3.1-2.1
		c0.3-1.2,0.4-2.5-1.2-3.5c-1-0.9-2.2-1.1-3.5-0.8c0.4-1.8,2.2-2.8,5.2-3.1c1.5,0,2.6,1,3.6,2.2c0,0.7,0.5,1.6,2.2,2.9
		c1.9-0.4,2.8-1.1,2.9-1.9l2.7,0.1c-0.4,1.3-0.6,2.5,0.8,2.9c3.1-0.8,5.9-0.8,7.6,2.5c2.5,2.2,3.4,4.9,2.5,8.1c-0.3,5-3.1,7.5-7.8,8
		c-1.6-0.1-3.3,0.1-4.9,0.9c-2.7,1.7-6.5,3.1-11.1,4.1c-6.5-1.3-11.1-3.8-13.1-8l-1.4-1.1C212.5,195.4,210.9,186.1,210.3,177.7z"/>
	<path class="st52" d="M222.9,165.9c-2.2,3.5-4.6,6.5-7.5,9.1c-0.2,3.1,1.3,5.7,5.1,7.8C223.1,179.1,224.1,173.7,222.9,165.9z"/>
	<path class="st22" d="M223.1,195.6c0.9-2.5,2-4.9,4.2-6.2c1.3-0.4,2.5-0.1,3.5,0.8c1.2,0.6,1.6,1.7,1.2,3.5
		c-0.3,1.1-1.3,1.9-3.1,2.1C227,196.2,225.1,196.1,223.1,195.6z"/>
	<path class="st22" d="M235.8,189.7c1-5.2,3.8-9,9-10.8c1.5,0.5,2.6,1.9,3.5,3.8c0,3.1-0.9,5.4-2.6,7
		C242.7,189.3,239.4,189.4,235.8,189.7z"/>
	<path class="st22" d="M236.1,203.9c1-3.8,2.7-7.2,6.6-9.6c1.2-0.1,2.2,0,3.1,0.4c1.6,1.1,2.1,2.4,1.9,3.8c-0.3,2.5-1.5,3.9-3.7,4.5
		C240.9,202.6,238.4,202.9,236.1,203.9z"/>
	<path class="st46" d="M252.3,195c1.9-1,3.7-2.2,4-8.9c0-4.5-2-7.5-7.1-8c-2.5,0.1-3.6,0.4-4.5,0.8c1.3,0.4,2.4,1.6,3.5,3.8
		c-0.1,3.9-1.4,6-2.6,7l-1.6-0.2c-0.5,1.4-0.5,2.4,0.8,2.9C248.2,191.2,251.1,192.3,252.3,195z"/>
	<path class="st45" d="M210.3,177.7c3.8-0.7,8.1-4.7,12.7-11.8l0.3,2.5c5.1-7.3,8.6-16.5,11-27c2.3-3.7,4.9-6.9,7.6-9.4
		c3.6-3.9,6.5-8.2,8.9-12.8c1.5-3.4,2.5-7.3,3.2-11.5c1.5-1.5,2.9-4.3,4.3-7.3c0,0-3.1,2.5-4,3.6c-1.3,1.6-3.2,7.1-4.8,8.3
		c-2.1,1.6-7.6,0.3-10.1,1.3c-2.9,1.2-4.8,7-10.4,8.2c-4.4,1-7.4-0.9-7.4-0.9c0.2,5.1-0.6,10.4-2.3,16c-1.1,5.3-2.9,10.5-5.1,15.5
		l-2.1,4.1C210.2,163.2,209.7,170.3,210.3,177.7z"/>
	<path class="st46" d="M210,172.5c3.8-0.7,12.6-12.1,16.7-22.1c1.7-4,5.1-15.4,6.9-18.7c2.4-4.5,9.5-6.7,11.7-11.4
		c1.6-3.3,5.8-9.3,4.2-8c-2.1,1.6-7.6,0.3-10.1,1.3c-2.9,1.2-4.8,7-10.4,8.2c-4.4,1-7.4-0.9-7.4-0.9c0.2,5.1-0.6,10.4-2.3,16
		c-1.1,5.3-2.9,10.5-5.1,15.5l-2.1,4.1C210.2,163.2,209.4,165,210,172.5z"/>
	<path class="st53" d="M232.7,162c-0.5-4-0.8-8.3-0.5-12.9l2.1-7.9c2.3-3.6,4.8-6.8,7.6-9.4c3.6-3.9,6.5-8.2,8.9-12.8
		c1.4-3.1,2.4-7.1,3.2-11.5c1.8-2.3,3.3-4.8,4.3-7.3c0,0,3.9-0.9,4.9-1.2c2.1-0.7,5.8-0.6,8.3-3.1c1.2-1.2,4.6-2.6,4.6-2.6l2.2,1.2
		c-1.4,1.9-1.8,4.2-1.5,6.9c-0.4,25.3-7.2,47.5-24.2,62.4c-1.9-12-2.1-24.2-1-36.7C245.3,143.7,239,155.4,232.7,162z"/>
	<path class="st54" d="M232.7,162c-0.5-4-0.8-8.3-0.5-12.9l2.1-7.9c2.3-3.6,4.8-6.8,7.6-9.4c3.6-3.9,6.5-8.2,8.9-12.8
		c1.4-3.1,2.4-7.1,3.2-11.5c1.8-2.3,3.3-4.8,4.3-7.3c0,0,3.9-0.9,4.9-1.2c2.1-0.7,5.8-0.6,8.3-3.1c1.2-1.2,4.6-2.6,4.6-2.6l2.2,1.2
		c-0.6,0.7-1.3,2.5-1.2,2.5l-4,1.7c0,0-4.1,45.9-21,60.8c-1.9-12-1.5-20-0.4-32.6C245.3,143.7,239,155.4,232.7,162z"/>
	<path class="st55" d="M199.6,120.9c0.5,2.1,3.1,3.4,7.5,3.8c4.5,0,6.8-4.8,10.1-5.1c0.7,0.2,1.4,0.4,2.1,0.6l2.3,0.7
		c2.4,1.2,4.9,1.5,7.4,0.9c5.2-1.1,7.3-6.8,10.4-8.2c1.1-0.6,8.5,0.2,10.1-1.3c1.6-2.1,3.2-5,4.8-8.3c1.1-1,2.5-2.3,4-3.6l4.9-1.2
		c1.6-0.2,7-1.3,8.3-3.1l1.9-5.2c2.3-0.9,4.9-4.1,4.9-4.1s1.8-5.8,1.4-9.3c0-2.8,2.3-5,5.2-7.2c-3.3-0.3-6.1,0.7-8,3.8
		c0.1-1.8,0.6-3.5,2.8-5.1c0.9-1.3,3.5-2.6,7.6-3.9c2.6-1.5,4.1-3.6,4.5-6.3c0.6-3.8,0.1-7.3-0.8-10.7c-0.1-2.4,2-4.5,5.1-6.4
		c-5.8,1.9-11.2,4.8-14.8,12.3c-0.8,3.2-2.6,5.9-5.6,7.8c-6.5,1.7-10.4,3.5-12.3,5.4c-4.2,2.9-1.2,15-7.2,19.6
		c-1,3.2-7.9,0.4-17.3-0.1c-6.8-0.4-12,4.4-15.4,10.9c-2,1.3-4.8,1.7-8,1.7c-3.4,0-6.9,3.9-6.9,3.9s-3.6,4.4-4.8,10.7
		C203.3,116.2,201.9,118.5,199.6,120.9z"/>
	<path class="st26" d="M190.8,135.6c0.6,0.1,1.1,0.2,1.4,0.6c0.1,1.1,0.2,2.2-0.5,4c-0.8-0.2-1.3-0.4-1.5-0.8
		c-0.9-1.5-1.3-3.1-1.3-5C189.3,135.2,189.9,135.6,190.8,135.6z"/>
	<path class="st26" d="M199.8,139c-0.9-1.5-1.5-3-1.7-4.4c1.6,0.5,3.1,1.2,4.2,2.1c0.3,0.8-0.2,2.4-0.2,2.4S200.6,139.3,199.8,139z"
		/>
	<path class="st47" d="M191.7,140.2c0,0.8,1.2,1.2,3,1.4c3-0.3,5.7-0.8,7-1.6c3.6-5,5.9-10.2,7.5-15.6c3.4-1.2,5-4.3,8-4.7l2.1,0.6
		c-4.7,6.5-8.1,13.2-10.4,19.9c-1.9,2.4-5.2,3.6-9.4,3.9c-2.5,0.8-4.9,1.1-7,0.4c-1.3-0.4-2.7-1.3-3-2.3c-0.2-1,0-2,0.5-2.9
		C190.6,139.8,191.1,140.1,191.7,140.2z"/>
	<path class="st27" d="M192.1,133.1l-1.3,2.5c0.5,0,1,0.2,1.4,0.6c0.2,1.4,0,2.7-0.5,4c0.3,1,1.5,1.3,3,1.4c2.6-0.2,4.9-0.7,7-1.6
		c3.8-5.1,6.5-11.5,7.5-15.6c-0.8,0.3-1.8,0.4-2.9,0.3c-3.1,3.5-5.7,7.3-6.9,10.4l-0.5,2.8c-0.2,0.9-0.9,1.5-1.9,2.1
		C193.6,138.6,192.8,135.9,192.1,133.1z"/>
	<path class="st28" d="M199.6,120.9c-1.2,1.9-3.1,3.2-6.1,3.8c-0.8,1.9-1.3,3.8-1.4,5.8c-0.3,1.2-0.3,2,0,2.6c0.7,3.7,2.3,6,4.9,6.8
		c1-0.5,1.6-1.2,1.9-2.1l0.5-2.8c1.3-3.2,3.7-6.7,6.9-10.4C202.5,124.2,200.2,123,199.6,120.9z"/>
	<path class="st45" d="M188.2,126c0,0,4-1,5.3-1.2c2.9-0.6,4.9-1.9,6.1-3.8c2.1-1.9,3.4-4.3,4.2-6.9c0.8-3.9,2.5-7.5,4.8-10.7
		c1.9-2,4-3.6,6.9-3.9c2.2-0.1,4.3-0.2,5.7-0.7c-0.3-3-0.1-6.2,0.4-9.5c3.4-3.8,7.6-7,12.5-9.7c-1.7-0.9-5-0.7-10.7,1.1
		c10.7-10.5,15-23.5,14.7-38.2c-7.1,11.5-15.9,22-27.2,31.2c-4.1,2-5.6,4.8-6.6,7.6c-0.9-0.4-2-0.5-3.7-0.2c0.6-2.5,2-4.6,4.1-6.3
		c-2.3,0.3-4.5,0.9-5.5,2.9c3.3-11.8,2.5-24.3-2-37.4c-3.4,15.5-8,30.5-13.8,45.2c-0.4,2.4-5.9,7.2-9.9,12.7
		c-1,1.3-0.3,8.7,2.9,12.1c1.1,1.2-2.9,5.7-2.9,5.7c0.1-0.1-3.5-0.2-4.6,0.7c-1.6,1.2-3.1,2.3-2.9,7.4c0.2,6.6,6.2,7.8,6.2,7.8
		s4,2.9,5.6,2.9c4.2,0,5.9-3.4,5.9-3.4C184.9,128.5,186.3,126.5,188.2,126z"/>
	<path class="st46" d="M168.6,118.7c0.7,1.9,1.8,2.9,3.5,3.2c2,0.1,4,0.3,5.2-0.5c-1.6,2.4-1.6,4.4-1.9,6.6c-3.3,1-6.2-0.2-7.5-2.7
		C167.7,123,168,120.8,168.6,118.7z"/>
	<path class="st30" d="M197.9,99.3c1.9,1.9,3.2,4.5,3.2,8.6c-1.7,1-4.4,3.1-8.2,5.5c-1.7,0.4-3.1-0.4-3.8-2.8
		C190.6,107.8,194.1,103.6,197.9,99.3z"/>
	<path class="st53" d="M194.4,103.4c1.7,1.7,2.4,4.3,1.8,7.8c-0.6,0.4-1.7,1.1-3.2,2.2c-1.9,0.5-3.2-0.7-3.8-2.8
		C190.4,108.2,192.2,105.8,194.4,103.4z"/>
	<path class="st32" d="M192.6,105.5c0.7,1.8,0.9,3.5,0.1,4.8c-0.2,0.3-0.5,0.5-1.3,0.4c-0.6-0.4-1-1.1-1.1-2.2
		C191.1,107.5,191.8,106.5,192.6,105.5z"/>
	<path class="st46" d="M201,107.9V95.2l-3.2,4.1C200.3,101.7,201.2,104.6,201,107.9z"/>
	<path class="st46" d="M183.6,107.9c0.7,3.5,2.7,5.5,5.5,2.6c0.8,2.8,2.2,3.3,3.8,2.8c-1.2,1.1-2.6,1.9-7.1,1.1
		C181.9,113.1,183.1,110.4,183.6,107.9z"/>
	<path class="st26" d="M187.7,126.1c0.2,2.4,0.3,4.6,0,6.5c0,1.3-0.3,2.2-0.9,2.6c-0.4-0.4-0.8-0.8-1.1-1.1c-1-0.9-1.7-1.9-2-3
		C184.6,128.7,186,127.1,187.7,126.1z"/>
	<path class="st55" d="M173.5,115.7c0.3,0,4-4.7,2.9-5.7c-1.2-1.2-1.9-2.9-2.7-5.4c-3.5,2.3-6.2,4.5-5.8,6.7c0.3,2,1,5.1,1,5.1
		C170.2,115.9,171.7,115.6,173.5,115.7z"/>
	<path class="st55" d="M176.9,93.7c3.2-3.7,6.3-6.8,6.5-8.5l0.8-2c-3.5-0.6-6.4,0.1-8.1,2.6C173.7,89.1,174,91.7,176.9,93.7z"/>
	<path class="st49" d="M200.2,73.1c0,0,3.7-1.5,3.8-3.9c0.1-1.3-2.4-3.5-2.3-4.8c0.1-1.6,2-2.7,2.7-4.2c0.6-1.2,1.2-3.9,0.5-5.4
		c-0.4-0.9-1-2.1-1.1-3.2c0.2-11.4,7.6-17.4,19.4-19.9c0,0-10.6,7.9-10.5,11.8c0.1,3.5,4.4,4.7,4.7,6.4c0.6,2.2-3.1,4.5-4.1,6
		c-0.7,1.2-0.8,3.4-0.7,5.6c1.4-3.5,3.4-5.2,6.4-4.2c-1.5,2-2.7,4.2-3.3,6.7c0.4,1.4,0.7,2.9,0.6,4.6c-1.6,1.4-3.2,2.9-5.4,4.7
		c-3.4,1.6-5.5,4.2-6.6,7.6c-1.2-0.4-2.4-0.5-3.7-0.2c0.5-2.3,1.9-4.4,4.1-6.3c-2.8,0.4-4.6,1.2-5.5,2.9L200.2,73.1z"/>
	<path class="st50" d="M199.2,77.5c0.9-1.7,2.8-2.6,5.5-2.9c-1.1,0.9-2,1.9-2.8,3.1c1.4,0.5,2.8,0.3,4.3-0.4c1-1.4,2.6-2.8,4.7-3.8
		c0,0,0.4-5.7,0-7.5c-0.3-1.3-2-4.9-2-4.9c-0.3-1.9,0.5-3.4,1.5-4.9c-1.8-0.2-3,1.6-3.9,4.1c0.2-2.6,1.7-4.8,1.7-7.5
		c0-0.8-1.2-2-1.5-2.7c-0.6-1.2-0.3-2.5-0.4-4.8c0-0.7-0.3-1.3-0.4-1.9c-1.2,2.4-1.8,5.2-1.9,8.4c0.2,1,0.5,2.1,1.1,3.2
		c0.5,1,0.3,3.4-0.5,5.4c-0.7,1.3-2.4,2.3-2.7,4.2c-0.1,1.2,2.3,3.4,2.3,4.8s-1.5,2.7-3.8,3.9L199.2,77.5z"/>
	<path class="st46" d="M260.3,77c-6.1,1.7-10.5,5.1-12.9,10.6c5.4,0.9,8.3,1,8.8-0.9C259.2,84.4,259.8,80.6,260.3,77z"/>
	<path class="st40" d="M271.4,96l1.9-5.2l2.7,2.6C274.3,94.1,272.7,95,271.4,96z"/>
	<path class="st45" d="M279.6,77.5c12.7,2.9,15.4,13.6,5.1,34.6c-1-7.6-3.1-13.7-6.5-17.5l-2.2-1.2l-2.7-2.6c1.4-0.5,3.1-2,4.9-4.1
		C279.2,83.5,279.8,80.3,279.6,77.5z"/>
	<path class="st46" d="M273.3,90.8c2-1,3.7-2.5,5-4.4c6.6,5,9,13.4,6.4,25.7c-1-7.4-2.9-13.5-6.5-17.5l-2.2-1.2L273.3,90.8z"/>
	<path class="st45" d="M284.2,70.7c2.5,3,3.3,6.2,2.2,9.8c-2-1.5-4.3-2.4-6.8-3C279.6,75.2,281.3,73,284.2,70.7z"/>
	<path class="st44" d="M279.6,69.1l4,1.2c-3.2-0.1-5.4,1.5-6.9,3.9C276.9,72.1,277.7,70.3,279.6,69.1z"/>
	<path class="st26" d="M172.7,132.1c-0.1,1.7,1.8,4.1,1.8,4.1s0.8-1.4,1.2-2.3C174.7,133.4,173.6,132.7,172.7,132.1z"/>
	<path class="st50" d="M199.6,120.9c0,0,2.1-0.7,3.1-0.6c1.2,0.1,2,3,5.3,1.8c3.8-1.4,3.4-6,5.3-7.3c0.9-0.7,3.2-1.3,4.3-1.3
		c1.5-0.1,4.6,1.1,6,0.6c2.8-0.9,3.2-8.8,8.6-8.6c2,0.1,2.7,5.2,4.6,5.7c1.8,0.4,4-3,5.8-3.5c1.2-0.3,4.2,1.3,5.3,0.8
		c1.9-1,3.7-5.1,4.8-6.9c0.7-1.2,1.6-3.9,2.6-4.8c0.8-0.7,3-1.1,4-1.6c0.9-0.4,2.2-1.9,2.5-2.8c0.5-1.9-1.3-3.5-0.6-5.1
		c0.5-1.1,4.6-2.5,4.7-4.9c0.2-3-1.6-4.8-1.6-6.8c0.1-5.5,9.2-13.1,9.2-13.1c-4.4,1.3-7.8,2.7-10,4.8c-1.8,1.3-2.4,4.4-3,9.8
		c-0.5,4.4-1.6,7.9-4.2,9.8c-0.7,2-4.3,1.7-8.8,0.9c-3-0.5-5.9-0.8-8.5-1c0,0,7.7,4.5,8.5,6.7c0.7,1.9-0.7,6.1-2.6,7
		c-1.7,0.8-4.8-3.7-6.7-3.7c-1.4,0-3.8,3.4-5,2.7c-0.7-0.4-0.4-1.7-1.1-2.2c-1.7-1.2-4.9,0.5-6.8,1.3c-1.5,0.6-4.8,1.9-5.9,3.1
		c-0.5,0.6-0.6,2.5-1.1,3.1c-0.8,0.8-3,1.8-4.1,1.8c-1.3,0-3.6-1.8-4.9-1.8c-0.6,0-2.1,0.7-2.1,0.7c-1.6,2.7-2.7,5.6-3.4,8.7
		C203.1,116.7,201.4,119.2,199.6,120.9z"/>
	<path class="st44" d="M210.3,177.7c1.7-0.3,3.5-1.3,5.2-2.7c-0.1,1.3,0.1,2.6,0.7,3.7c-1.7,1.3-3.6,2.2-5.6,2.7L210.3,177.7z"/>
	<path class="st44" d="M213.6,188.6c1-0.5,2-1,3-1.5c0.5,0.4,0.9,1,1.1,1.3c0.1,0.6-0.3,1.8-1.1,3.3c2.6,3.2,6.4,6.3,10.9,9.3
		c-5.3-1.5-10-4.1-13.3-9.2C214.7,190.7,214.5,189.6,213.6,188.6z"/>
	<path class="st52" d="M197.2,40.1c2.5,6.9,3.9,14.7,4,23.4c-2.6-2.7-5.8-3.2-9.6-1.8C193.4,56,195.3,48.1,197.2,40.1z"/>
	<path class="st52" d="M238.1,42.3c-3.5,5.6-7.4,11.1-12,16.4c3.1,1.1,5.6,3.6,6.8,8.6C237.1,58.5,238.4,50.2,238.1,42.3z"/>
</g>
<g id="Capa_1_1_">
	<g>
		<path class="st40" d="M238.1,42.3c-3.5,5.6-7.4,11.1-12,16.4c3.1,1.1,5.6,3.6,6.8,8.6C237.1,58.5,238.4,50.2,238.1,42.3z"/>
		<path class="st40" d="M197.2,40.1c2.5,6.9,3.9,14.7,4,23.4c-2.6-2.7-5.8-3.2-9.6-1.8C193.4,56,195.3,48.1,197.2,40.1z"/>
		<path class="st40" d="M131.5,215c8.9,6.8,17,16.6,24.2,29.3c3.9,13.7,3.1,26-1.5,37c-4.8,8.4-13.4,14.6-25.7,18.7
			c-0.4,4.8,0.7,9.2,2.8,13.3c-1.8-1-3.9-0.7-6.4,1.6c-1,2.3-1.3,4.6-0.8,6.9l-3.1-1c-0.5-5.5-2.9-9.3-7.4-10.4
			c-3.7,2.7-5.1,6.3-4.3,10.7l-3.9-2.5c0.5-4.7-0.9-7.3-3.8-8.2c-4.5,1.4-6.5,5.1-7.2,9.9l-1.2-3.9c0.9-5.4,2.1-10.2,4.1-12.7
			c1.3-5.7,1.8-12.3,1.8-19.6l3.9-5.8l-1.2-14C104.1,245.1,115.1,229.1,131.5,215z"/>
		<path class="st40" d="M98.3,332c3.8-1.9,6-6.4,7-13.2c0.5-4.5-0.8-7.2-3.8-8.2c-4,1.4-6.6,4.6-7.2,9.9
			C94.5,323.5,96.2,327.6,98.3,332z"/>
		<path class="st40" d="M109.3,321.3c-0.9-4.7,0.8-8.2,4.3-10.7c4.1,0.8,6.5,4.2,7.4,10.4l0.9,9.5
			C116.9,327.6,112.4,324.6,109.3,321.3z"/>
		<path class="st40" d="M124.1,322c-0.3-2.6-0.1-4.9,0.8-6.9c1.8-1.9,3.8-2.7,6.4-1.6c5.4,2.8,7.2,8.6,8.3,15
			C133.8,325.4,128.7,322.9,124.1,322z"/>
		<path class="st40" d="M216.5,207c2.5,6.3,3.9,13.2,4.1,21l0,0c-2.1,19.8-11.5,35.6-29.6,46.8c-4.3,2.3-8.9,4-13.8,5.2l0,0
			c-7.2,1.7-15,2.3-23.3,1.8l0,0c0.1-0.1,0.1-0.2,0.2-0.3c0.6-1.2,1.2-2.7,1.9-4.7c0-0.1,0.1-0.2,0.1-0.3c0.2-0.5,0.3-1.1,0.5-1.6
			c0-0.1,0.1-0.3,0.1-0.4c0.8-3.2,1.4-6.6,1.6-10.3c0.3-5.8-0.4-12.3-2.5-19.9v-0.1c-0.6-3.6,0-8.6,0.9-13.9c0-0.2,0.1-0.4,0.1-0.6
			c5.4-24.5,15-46.9,29-67l14-18.6c3.6-0.4,7-1.2,9.4-3.9c0.9-2.6,1.9-5,2.9-7.2c1.7-4,4.4-8.3,7.4-12.7l2.3,0.7
			c0,5.9-0.5,11.4-2.3,16c-1.5,6.7-3.6,13.3-7.2,19.6c-1.9,6.5-2.4,13.6-1.8,21.2C211,187.7,213,197.5,216.5,207z"/>
		<path class="st40" d="M220.7,228c18.4,14.9,25.5,25.8,25.8,34.3c0.2,8.1-3.6,13.9-12.3,16.9c-2.9,1.7-4.4,3.5-3.9,5.1
			c0.2,2.9,2.3,5,5.8,6.3l9.4,4.3c-0.8,0.1-1.5,0.2-1.9,1c-0.4,0.6-0.4,1.4-0.1,2.3c-2-0.7-3.6-0.3-4.9,0.6
			c-0.4,0.6-0.5,1.2-0.2,1.9c-2.3-1.8-4.6-1.9-7-0.5c-1,0.8-1.8,1.6-2.2,2.7s-0.4,2.1,0.1,2.9c-4.6-1.5-9.5-2.3-14.7-2.5
			c-11-1-16.8-3.5-16.7-7.8c0-2.3,3-7.7,3-7.7s1.2-2.8,0.4-4.3c-1.6-2.9-4.4-4.3-10.1-8.7C205.8,266.1,218.8,249.4,220.7,228z"/>
		<path class="st40" d="M348.4,168.2c-0.7,0.8-1,3.1-0.8,4.1c0.4,1.7,1.3,5.2-0.5,6.1c-1.2,0.6-4,0.8-5.4,0.9
			c-2.2,0.2-6.8-0.1-8.7,0.9c-2.2,1.2-6,7.7-6.2,7.9c0.1-0.1,3.5-2.5,4.9-2.9c2.4-0.7,7.8,0.3,7.1,0.8c0,0-6.5,2.5-7.7,4.5
			c-0.9,1.5,0.3,5.5-0.5,7.1c-0.4,0.9-2.7,1.5-3.3,2.3c-1.2,1.7,0.3,6.5-0.7,8.3c-0.6,1.1-4.2,1.2-4.4,2.4c-0.2,2.1-0.6,4.4-1.9,4.6
			c-2,0.3-6,0.9-8,1.1c-2.5,0.2-7.8-0.6-9.9,0.6c-1.1,0.6-2.4,2.9-2.8,4c-0.6,1.5-0.6,5.1-1.7,6.2c-2.2,2.3-8.9,3.5-12,3.5
			c-2.9,0-8.8-0.2-11.6-1.2c-1.5-0.5-4.6-1.9-5.7-3.1l0,0c2.4-1.8,4.3-3.7,5.6-5.8c0.1-0.1,0-0.2-0.1-0.1c-0.9,0.5-2,0.6-3.1,0.2
			c-0.5-0.4-0.9-0.8-1.2-1c-1.1,0.9-2.4,1.7-4,2.3l0,0c-2-3.2-6.7-9.1-6.8-13.2c-0.6-4.6,1.6-5.9,4.5-6.4c2-0.4,3.3-1.2,3.7-2.1
			c0.3-1.9,0.8-3.9,1.6-4.9c2-2.3,6.5-4.5,11.2-4.8c0,0,15,3.9,20.1,3.1c2.3-0.4,7.6-2,8.2-4.2c0.4-1.7-3.9-4.3-3.9-6.1
			c0-2.7,5.4-5.8,7.4-7.6c1.3-1.2,2.9-4.8,4.5-5.8c1.9-1.1,6.6-1.3,8.9-1.1c3.4,0.4,10,3.3,13.4,3.1c1-0.1,2.9-1,3.6-1.6
			c1.1-1,2.8-3.6,3.8-4.8c2.4-2.9,10.5-0.7,10.5,0.7C356.5,166.1,349.8,166.7,348.4,168.2z"/>
		<path class="st40" d="M274,220.3c0.1,0,0.2,0.1,0.1,0.1c-1.3,2.1-3.2,4-5.6,5.8c-1.9,1.5-4.1,2.9-6.4,4.2c-7,2.6-14.5,4-22.4,4.1
			c-4.6,0.2-8.5-0.1-12.1-0.7l-6.9-5.9l-0.8-8.8c8.6,3.3,17.3,5.7,26.2,5.4c7.8-0.2,14.8-0.8,19.6-2.8c1.5-0.6,2.9-1.4,4-2.3
			c0.2,0.2,0.6,0.5,1.2,1C272.1,220.9,273.1,220.8,274,220.3z"/>
		<path class="st40" d="M234.4,240.6c1.6,0.3,7.5-1.1,7.5-1.1s13.7-4.3,20.2-9c-7.3,2.6-14.8,4.1-22.4,4.1c-3.8,0.3-7.8,0-12.1-0.7
			C230.1,236.3,232.6,238.6,234.4,240.6z"/>
		<path class="st40" d="M259.4,305.5c-1.9-5.2-5.4-9.5-14.1-10.7c-1,0.1-1.6,0.4-1.9,1c-0.4,0.6-0.4,1.4-0.1,2.3
			c3.6,0.6,7.2,5.7,7.5,5.9C250.8,304.1,257.4,306,259.4,305.5z"/>
		<path class="st40" d="M238.2,300.7c-0.3-0.8-0.1-1.4,0.2-1.9c1.6-1,3.3-1.2,4.9-0.6c3.4,0.4,7.5,5.9,7.5,5.9s2.8,3.5,2.9,5.4
			c-3.8-0.4-7.3-1.1-9.8-2.7C242.3,304.3,240.5,301.9,238.2,300.7z"/>
		<path class="st40" d="M229.1,305.8c-0.9-1.9-0.3-3.8,2.1-5.7c2.5-1.5,4.8-1.1,7,0.5c2.2,1.2,4,3.5,5.8,6.1l1.1,3.2
			C238.9,308.7,233.2,307.3,229.1,305.8z"/>
		<path class="st40" d="M103,257.9c-27.1-3.4-42.8-13.5-41.8-33.2c-2.7,11.5-0.8,24.2,16.5,41.2c7.2,6.1,15.6,9.8,25.2,10.9
			c-0.3-3.5-0.6-7.6-1-12.2C102.1,262.3,102.4,260,103,257.9z"/>
		<path class="st40" d="M118.2,228.3c-12.4-3.7-19.1-8.9-21.2-15.4c10.6-4.1,21.9-3.6,33.7,0.6l2.2-10.2c-1.9,0.5-4.4,0.3-7.3-1
			c-2.8-1.3-4.1-3.2-4.5-5.4c-8.3-3.2-16.6-3.8-25.1-3.2c-19.1,1.4-28.8,9-32.6,23l-2.3,8c-1.1,20,15.3,29.8,41.8,33.2l1.2-5
			C106.9,244.6,111.5,236.4,118.2,228.3z"/>
		<path class="st40" d="M131.5,215l-0.8-1.5c-13-4.5-24.2-4.6-33.7-0.6c1.2,3.9,4.2,7.8,11.8,11.7c4.4-2.2,8.6-2.1,12.6,0
			C124.9,221.1,128.3,217.7,131.5,215z"/>
		<path class="st40" d="M120,185.8c1.2,3.8,1.6,7.5,1.1,11.1c0.8,2.5,1.8,4,4.5,5.4c1.9,0.7,4.8,1.7,7.3,1c3.9-1,8-2.1,9.3-3.1
			c5-2.5,8.7-5.4,11.5-8.5l5.1-11.5c-4.2-1.1-6.7-2.3-6.9-4h-7.2l-8.5,7l0.4,4.9c-6.9,0.8-11.7,0.5-14.7-2.6L120,185.8z"/>
		<path class="st40" d="M131.5,157.9l-4.3,3.6l-9.1,1c-4.5,2.5-6.8,6.5-7.2,12.1c0,7.1,4,9.8,9.1,11.2l2-0.2l-5.8-5.3
			c-1-3.2,0-5.9,2-8.3c2.5-1.8,5.2-1.9,8-0.9c3.6,1.5,6.2,3.7,7.9,6.8l2.2,5.4l8.5-7h7.2c0.1,1.5,2.4,2.8,6.9,4l1.9-1.1
			c-0.4-1.9-1.5-3.3-3.1-4.5c-0.7-1.4-0.5-2.7,1.2-3.7c2.8-1.7,5.5-2.8,7.6-2.6c1.4-0.5,2.8,1,4.1,3.5c0.6-2.9,0-4.9-1.7-6
			c-2.9-1.2-5.4-2.9-7.4-5.6c-7.2-1.6-10.9-4.6-12.7-8.4c0.2,5.4-0.5,10.3-2.3,14.7c-4.1-1.5-7.2-3.5-8.6-6.3
			C135.3,161.2,133.2,160.7,131.5,157.9z"/>
		<path class="st40" d="M136.7,188.1l-0.4-4.9l-2.2-5.4c-2.2-3.4-4.8-5.8-7.9-6.8c-2.5-1.2-5.2-0.8-8,0.9c-2.2,2.1-2.6,5-2,8.3
			l5.8,5.3C124.5,188.4,129.7,189,136.7,188.1z"/>
		<path class="st40" d="M160.7,179.1c1.2,2.2,1.6,5,1.9,8c4.4-1.3,7.3-4.5,8.2-10.5c0.1-2,0-3.6-0.2-4.8c-1.5-2.9-2.9-3.9-4.1-3.5
			c-2.8-0.1-5.3,1.2-7.6,2.6c-1.6,0.9-2,2.1-1.2,3.7C159.1,175.6,160.4,177.4,160.7,179.1z"/>
		<path class="st40" d="M131.5,157.9c-2.8-1.1-3.8-5.2-4.3-10.1c-0.8-5.4,1.4-9.7,8.6-12.2c6.2-0.1,10.5,2.5,12.2,8.4
			c0.7,3.2,1.1,6,0.8,7.9c0.3,4.4-0.5,10.7-2.3,14.7c-4.2-1.4-6.9-3.6-8.6-6.3C135.3,161.3,133.2,160.6,131.5,157.9z"/>
		<path class="st40" d="M137.8,160.2l-4.8-6.6c-0.2-4.1,2.5-8.4,6.5-9.2c3.6-1.5,9.3,7.4,9.3,7.4c0.3,3.3-0.5,10.8-2.3,14.7
			C143.1,165.7,140.1,163.6,137.8,160.2z"/>
		<path class="st40" d="M121.1,196.9c0.4-0.2,0.4-7.9-1.1-11.1c-0.9,3.8-1.6,7.3-1.9,10.1L121.1,196.9z"/>
		<path class="st40" d="M150.1,154c2.3-1.5,5-2.6,8.8-2.9c3.1,0.8,5.7,2.2,7.6,4.8c1,0.6,1.5,1.2,1.7,1.9c0.6-0.4,1.2-0.7,1.7-0.7
			c2.8-2.1,5.2-5.6,7.1-11.7c3.2,4.8,4.1,11.4,1.8,20.3c-1.9,5.1-4.4,8.5-8,8.6c0.1-0.8,0-1.6-0.2-2.3c0.8-2.2,0.6-4.3-1.7-6
			c-2.8-1-5.3-2.9-7.4-5.6C156.6,159.3,152.7,157.3,150.1,154z"/>
		<path class="st40" d="M178.7,165.8c-5.7,0.4-8.8-2.3-8.8-8.8c4.2-3.9,6.3-8,7.1-11.7C180.4,150.8,181,157.6,178.7,165.8z"/>
		<path class="st40" d="M154.7,151.8c-1.5-1.2-2.2-2.7-2.2-4.6c-2.1,0.7-3.6-0.2-4.5-2.9c0.6,2.7,1,5.3,0.8,7.6
			c0.3,0.7,0.8,1.4,1.3,2.1C151.3,153.1,152.8,152.4,154.7,151.8z"/>
		<path class="st40" d="M154.3,133.6c-3.9,2.1-6.5,4.6-7.5,7.5c0.4,0.7,0.8,1.7,1.2,3.2c0.8,2.6,2.3,3.6,4.5,2.9
			C151.9,141.9,152.6,137.4,154.3,133.6z"/>
		<path class="st40" d="M152.5,139.9c2.4-0.2,4.6-0.3,6.3,0c5.3,1,9,6.4,12.2,13.3c-1.8,1.2-2.7,1.9-4.5,2.7
			c-1.5-1.9-3.6-3.8-7.6-4.8c-1.4,0.1-2.8,0.3-4.2,0.7c-1.5-1.1-2.2-3-2.2-4.6C152.3,145.9,152.1,142.4,152.5,139.9z"/>
		<path class="st40" d="M148.6,138c-8.3-10.1-13.7-20.2-16.8-30.3c0-10.7,0.3-23.5-1-26.9c0,0,1.7-0.6,2.2-1c0.5-0.3,2-2,2-2
			c9.7-1.1,18.1,2.2,24.7,10.4c0.8-20.2-6.6-32.3-25.7-32.8c0,0-1.2-4-4.7-4.9c-2.7-0.8-8.2,0.1-8.2,0.1c-5.5-1.2-10.3-2.8-14.3-5
			c-15.6-11.2-34-16.1-54-17.1c1,5.3,41.9,15.4,56.3,30.7c5.1,3.5,9.1,8.3,12.1,14.6c2.5,10.6,1.5,22.3-1.5,34.5
			c2.5,1.5,4.5,3.1,5.2,5.2c5.8,9.6,9.5,17.1,10.9,22.2c5.2-0.2,8.8,1.8,11,5.6L148.6,138z"/>
		<path class="st40" d="M88.2,45.5c-18.4-6.1-33.3-7.9-45.8-6.9c10.4,13.6,24.8,24.5,44.4,32.1C58.7,72.1,33.7,82.4,11,99.6
			c20.8,9.8,40,12.2,58,9.1c-29.6,15.1-49.6,31.6-63.5,49.1c16.9,5.9,44.4,2.6,88.4-15c-16.8,15-30,34.2-35.8,48.6
			c9.1,1.6,22.8-0.4,52.7-15.2c0-7,2.7-11.3,7.2-13.7c3.1-0.3,6.1-0.7,9.1-1l4.3-3.6c-2.8-1.3-3.9-5.2-4.3-10.1
			c-1.1-5.5,1.6-9.6,8.6-12.2c-2.4-7.2-6.2-14.6-10.9-22.2c-1.2-2.2-2.8-4.1-5.2-5.2c3.2-11.7,3.7-23.2,1.5-34.5
			c-4-7.8-8.1-12-12.1-14.6C102.9,53.2,95.8,48.9,88.2,45.5z"/>
		<path class="st40" d="M210.3,177.7c3.9-0.8,8.2-4.8,12.7-11.8c1.4,8.2,0.4,15.7-6.3,21.3c0,0,1,0.9,1.1,1.3
			c0.2,0.9-1.1,3.3-1.1,3.3c2.9,3.3,6.4,6.4,10.9,9.3c2.6-0.3,4.8-0.8,6-1.7c-2.4-0.9-4-2.1-4.6-3.7c1.6-0.3,2.8-0.9,3.1-2.1
			c0.3-1.2,0.4-2.5-1.2-3.5c-1-0.9-2.2-1.1-3.5-0.8c0.4-1.8,2.2-2.8,5.2-3.1c1.5,0,2.6,1,3.6,2.2c0,0.7,0.5,1.6,2.2,2.9
			c1.9-0.4,2.8-1.1,2.9-1.9l2.7,0.1c-0.4,1.3-0.6,2.5,0.8,2.9c3.1-0.8,5.9-0.8,7.6,2.5c2.5,2.2,3.4,4.9,2.5,8.1
			c-0.3,5-3.1,7.5-7.8,8c-1.6-0.1-3.3,0.1-4.9,0.9c-2.7,1.7-6.5,3.1-11.1,4.1c-6.5-1.3-11.1-3.8-13.1-8l-1.4-1.1
			C212.5,195.4,210.9,186.1,210.3,177.7z"/>
		<path class="st40" d="M222.9,165.9c-2.2,3.5-4.6,6.5-7.5,9.1c-0.2,3.1,1.3,5.7,5.1,7.8C223.1,179.1,224.1,173.7,222.9,165.9z"/>
		<path class="st40" d="M223.1,195.6c0.9-2.5,2-4.9,4.2-6.2c1.3-0.4,2.5-0.1,3.5,0.8c1.2,0.6,1.6,1.7,1.2,3.5
			c-0.3,1.1-1.3,1.9-3.1,2.1C227,196.2,225.1,196.1,223.1,195.6z"/>
		<path class="st40" d="M235.8,189.7c1-5.2,3.8-9,9-10.8c1.5,0.5,2.6,1.9,3.5,3.8c0,3.1-0.9,5.4-2.6,7
			C242.7,189.3,239.4,189.4,235.8,189.7z"/>
		<path class="st40" d="M236.1,203.9c1-3.8,2.7-7.2,6.6-9.6c1.2-0.1,2.2,0,3.1,0.4c1.6,1.1,2.1,2.4,1.9,3.8
			c-0.3,2.5-1.5,3.9-3.7,4.5C240.9,202.6,238.4,202.9,236.1,203.9z"/>
		<path class="st40" d="M252.3,195c1.9-1,3.7-2.2,4-8.9c0-4.5-2-7.5-7.1-8c-2.5,0.1-3.6,0.4-4.5,0.8c1.3,0.4,2.4,1.6,3.5,3.8
			c-0.1,3.9-1.4,6-2.6,7l-1.6-0.2c-0.5,1.4-0.5,2.4,0.8,2.9C248.2,191.2,251.1,192.3,252.3,195z"/>
		<path class="st40" d="M210.3,177.7c3.8-0.7,8.1-4.7,12.7-11.8l0.3,2.5c5.1-7.3,8.6-16.5,11-27c2.3-3.7,4.9-6.9,7.6-9.4
			c3.6-3.9,6.5-8.2,8.9-12.8c1.5-3.4,2.5-7.3,3.2-11.5c1.5-1.5,2.9-4.3,4.3-7.3c0,0-3.1,2.5-4,3.6c-1.3,1.6-3.2,7.1-4.8,8.3
			c-2.1,1.6-7.6,0.3-10.1,1.3c-2.9,1.2-4.8,7-10.4,8.2c-4.4,1-7.4-0.9-7.4-0.9c0.2,5.1-0.6,10.4-2.3,16c-1.1,5.3-2.9,10.5-5.1,15.5
			l-2.1,4.1C210.2,163.2,209.7,170.3,210.3,177.7z"/>
		<path class="st40" d="M232.7,162c-0.5-4-0.8-8.3-0.5-12.9l2.1-7.9c2.3-3.6,4.8-6.8,7.6-9.4c3.6-3.9,6.5-8.2,8.9-12.8
			c1.4-3.1,2.4-7.1,3.2-11.5c1.8-2.3,3.3-4.8,4.3-7.3c0,0,3.9-0.9,4.9-1.2c2.1-0.7,5.8-0.6,8.3-3.1c1.2-1.2,4.6-2.6,4.6-2.6l2.2,1.2
			c-1.4,1.9-1.8,4.2-1.5,6.9c-0.4,25.3-7.2,47.5-24.2,62.4c-1.9-12-2.1-24.2-1-36.7C245.3,143.7,239,155.4,232.7,162z"/>
		<path class="st40" d="M199.6,120.9c0.5,2.1,3.1,3.4,7.5,3.8c4.5,0,6.8-4.8,10.1-5.1c0.7,0.2,1.4,0.4,2.1,0.6l2.3,0.7
			c2.4,1.2,4.9,1.5,7.4,0.9c5.2-1.1,7.3-6.8,10.4-8.2c1.1-0.6,8.5,0.2,10.1-1.3c1.6-2.1,3.2-5,4.8-8.3c1.1-1,2.5-2.3,4-3.6l4.9-1.2
			c1.6-0.2,7-1.3,8.3-3.1l1.9-5.2c2.3-0.9,4.9-4.1,4.9-4.1s1.8-5.8,1.4-9.3c0-2.8,2.3-5,5.2-7.2c-3.3-0.3-6.1,0.7-8,3.8
			c0.1-1.8,0.6-3.5,2.8-5.1c0.9-1.3,3.5-2.6,7.6-3.9c2.6-1.5,4.1-3.6,4.5-6.3c0.6-3.8,0.1-7.3-0.8-10.7c-0.1-2.4,2-4.5,5.1-6.4
			c-5.8,1.9-11.2,4.8-14.8,12.3c-0.8,3.2-2.6,5.9-5.6,7.8c-6.5,1.7-10.4,3.5-12.3,5.4c-4.2,2.9-1.2,15-7.2,19.6
			c-1,3.2-7.9,0.4-17.3-0.1c-6.8-0.4-12,4.4-15.4,10.9c-2,1.3-4.8,1.7-8,1.7c-3.4,0-6.9,3.9-6.9,3.9s-3.6,4.4-4.8,10.7
			C203.3,116.2,201.9,118.5,199.6,120.9z"/>
		<path class="st40" d="M190.8,135.6c0.6,0.1,1.1,0.2,1.4,0.6c0.1,1.1,0.2,2.2-0.5,4c-0.8-0.2-1.3-0.4-1.5-0.8
			c-0.9-1.5-1.3-3.1-1.3-5C189.3,135.2,189.9,135.6,190.8,135.6z"/>
		<path class="st40" d="M191.7,140.2c0,0.8,1.2,1.2,3,1.4c3-0.3,5.7-0.8,7-1.6c3.6-5,5.9-10.2,7.5-15.6c3.4-1.2,5-4.3,8-4.7l2.1,0.6
			c-4.7,6.5-8.1,13.2-10.4,19.9c-1.9,2.4-5.2,3.6-9.4,3.9c-2.5,0.8-4.9,1.1-7,0.4c-1.3-0.4-2.7-1.3-3-2.3c-0.2-1,0-2,0.5-2.9
			C190.6,139.8,191.1,140.1,191.7,140.2z"/>
		<path class="st40" d="M202.1,139c0,0-1.4,0.3-2.3,0c-0.3-0.5-0.6-1.1-0.8-1.6l0,0c-0.4-1-0.7-1.9-0.9-2.8c0.5,0.1,0.9,0.3,1.3,0.5
			l0,0c1.1,0.4,2,1,2.9,1.6C202.6,137.4,202.1,139,202.1,139z"/>
		<path class="st40" d="M209.2,124.4c-1,4-3.8,10.5-7.5,15.6c-2,0.9-4.4,1.4-7,1.6c-1.5,0-2.7-0.4-3-1.4c0.5-1.3,0.8-2.6,0.5-4
			c-0.4-0.4-1-0.6-1.4-0.6l1.3-2.5c0.6,2.9,1.8,5.9,4.9,6.8c1.1-0.6,1.7-1.2,1.9-2.1l0.1-0.4l0,0c0.2,0.5,0.5,1,0.8,1.6
			c0.9,0.3,2.3,0,2.3,0s0.5-1.6,0.2-2.4c-0.9-0.6-1.8-1.2-2.9-1.6l0,0l0,0c1.2-3.1,3.8-6.9,6.9-10.4
			C207.4,124.8,208.4,124.7,209.2,124.4z"/>
		<path class="st40" d="M199.4,135c-0.4-0.2-0.9-0.3-1.3-0.5c0.2,0.9,0.5,1.9,0.9,2.8l-0.1,0.4c-0.2,0.9-0.9,1.5-1.9,2.1
			c-2.6-0.8-4.2-3.1-4.9-6.8c-0.3-0.6-0.3-1.4,0-2.6c0.1-2,0.6-3.9,1.4-5.8c3-0.6,4.9-2,6.1-3.8c0.6,2.1,2.9,3.3,6.7,3.8
			C203.1,128.3,200.6,131.8,199.4,135z"/>
		<path class="st40" d="M188.2,126c0,0,4-1,5.3-1.2c2.9-0.6,4.9-1.9,6.1-3.8c2.1-1.9,3.4-4.3,4.2-6.9c0.8-3.9,2.5-7.5,4.8-10.7
			c1.9-2,4-3.6,6.9-3.9c2.2-0.1,4.3-0.2,5.7-0.7c-0.3-3-0.1-6.2,0.4-9.5c3.4-3.8,7.6-7,12.5-9.7c-1.7-0.9-5-0.7-10.7,1.1
			c10.7-10.5,15-23.5,14.7-38.2c-7.1,11.5-15.9,22-27.2,31.2c-4.1,2-5.6,4.8-6.6,7.6c-0.9-0.4-2-0.5-3.7-0.2c0.6-2.5,2-4.6,4.1-6.3
			c-2.3,0.3-4.5,0.9-5.5,2.9c3.3-11.8,2.5-24.3-2-37.4c-3.4,15.5-8,30.5-13.8,45.2c-0.4,2.4-5.9,7.2-9.9,12.7
			c-1,1.3-0.3,8.7,2.9,12.1c1.1,1.2-2.9,5.7-2.9,5.7s-3.7,0-4.6,0.7c-1.6,1.2-3.1,2.3-2.9,7.4c0.2,6.6,6.2,7.8,6.2,7.8
			s4,2.9,5.6,2.9c4.2,0,5.9-3.4,5.9-3.4C184.9,128.5,186.3,126.5,188.2,126z"/>
		<path class="st40" d="M197.9,99.3c1.9,1.9,3.2,4.5,3.2,8.6c-1.7,1-4.4,3.1-8.2,5.5c-1.7,0.4-3.1-0.4-3.8-2.8
			C190.6,107.8,194.1,103.6,197.9,99.3z"/>
		<path class="st40" d="M194.4,103.4c1.7,1.7,2.4,4.3,1.8,7.8c-0.6,0.4-1.7,1.1-3.2,2.2c-1.9,0.5-3.2-0.7-3.8-2.8
			C190.4,108.2,192.2,105.8,194.4,103.4z"/>
		<path class="st40" d="M192.6,105.5c0.7,1.8,0.9,3.5,0.1,4.8c-0.2,0.3-0.5,0.5-1.3,0.4c-0.6-0.4-1-1.1-1.1-2.2
			C191.1,107.5,191.8,106.5,192.6,105.5z"/>
		<path class="st40" d="M187.7,126.1c0.2,2.4,0.3,4.6,0,6.5c0,1.3-0.3,2.2-0.9,2.6c-0.4-0.4-0.8-0.8-1.1-1.1c-1-0.9-1.7-1.9-2-3
			C184.6,128.7,186,127.1,187.7,126.1z"/>
		<path class="st40" d="M173.5,115.7c0.2,0,3.9-5,2.9-5.7c-1.2-1.2-1.9-2.9-2.7-5.4c-3.5,2.3-6.2,4.5-5.8,6.7c0.3,2,1,5.1,1,5.1
			C169.5,116,171,115.7,173.5,115.7z"/>
		<path class="st40" d="M176.9,93.7c3.2-3.7,6.3-6.8,6.5-8.5l0.8-2c-3.5-0.6-6.4,0.1-8.1,2.6C173.7,89.1,174,91.7,176.9,93.7z"/>
		<path class="st40" d="M200.2,73.1c0,0,3.7-1.5,3.8-3.9c0.1-1.3-2.4-3.5-2.3-4.8c0.1-1.6,2-2.7,2.7-4.2c0.6-1.2,1.2-3.9,0.5-5.4
			c-0.4-0.9-1-2.1-1.1-3.2c0.2-11.4,7.6-17.4,19.4-19.9c0,0-10.6,7.9-10.5,11.8c0.1,3.5,4.4,4.7,4.7,6.4c0.6,2.2-3.1,4.5-4.1,6
			c-0.7,1.2-0.8,3.4-0.7,5.6c1.4-3.5,3.4-5.2,6.4-4.2c-1.5,2-2.7,4.2-3.3,6.7c0.4,1.4,0.7,2.9,0.6,4.6c-1.6,1.4-3.2,2.9-5.4,4.7
			c-3.4,1.6-5.5,4.2-6.6,7.6c-1.2-0.4-2.4-0.5-3.7-0.2c0.5-2.3,1.9-4.4,4.1-6.3c-2.8,0.4-4.6,1.2-5.5,2.9L200.2,73.1z"/>
		<path class="st40" d="M260.3,77c-6.1,1.7-10.5,5.1-12.9,10.6c5.4,0.9,8.3,1,8.8-0.9C259.2,84.4,259.8,80.6,260.3,77z"/>
		<path class="st40" d="M271.4,96l1.9-5.2l2.7,2.6C274.3,94.1,272.7,95,271.4,96z"/>
		<path class="st40" d="M279.6,77.5c12.7,2.9,15.4,13.6,5.1,34.6c-1-7.6-3.1-13.7-6.5-17.5l-2.2-1.2l-2.7-2.6c1.4-0.5,3.1-2,4.9-4.1
			C279.2,83.5,279.8,80.3,279.6,77.5z"/>
		<path class="st40" d="M284.2,70.7c2.5,3,3.3,6.2,2.2,9.8c-2-1.5-4.3-2.4-6.8-3C279.6,75.2,281.3,73,284.2,70.7z"/>
		<path class="st40" d="M279.6,69.1l4,1.2c-3.2-0.1-5.4,1.5-6.9,3.9C276.9,72.1,277.7,70.3,279.6,69.1z"/>
		<path class="st40" d="M172.7,132.1c-0.1,1.7,1.8,4.1,1.8,4.1s0.8-1.4,1.2-2.3C174.7,133.4,173.6,132.7,172.7,132.1z"/>
		<path class="st40" d="M234.6,195.9c0.2,1.4,0.5,3,1.6,4"/>
		<path class="st40" d="M231.4,203.8c0.4-1.3,0.8-2.6,1.7-3.6c0.6-0.7,1.4-1.3,2.1-1.9"/>
		<path class="st40" d="M239.4,202.9c1.7,1.8,4.1,2.9,6.5,2.9"/>
		<path class="st40" d="M244,208.4c-1.1-0.6-1.9-1.7-2-3"/>
		<path class="st40" d="M206.3,164.5c1.3-0.6,5.5-7.3,5.8-8"/>
		<path class="st40" d="M128.7,168.1c1,0.1,2,0.7,2.7,1.5s1.8,2.2,2.2,3.1c0.6,1.8,0.8,3.2,0.5,5"/>
		<path class="st40" d="M134.7,179.4c0.6-0.9,1.5-2.1,2.2-3c1.3-1.9,2.7-3.9,4.5-5.3"/>
		<path class="st40" d="M149.7,170.6c0.6,1.5,1,2.9,2.6,3.4"/>
		<path class="st40" d="M133,166.7c-0.1,1.3-0.8,3.2-0.6,4.4"/>
		<path class="st40" d="M151.3,169c0.7,0.3,0.9,0.6,1.2,1.3s-0.1,1.9-0.2,2.7c-0.1,1.2,0.2,2.2-0.3,3.2"/>
		<path class="st40" d="M145.5,191.6c2-1.8,3.4-4.2,4.3-6.8c0.8-2.6,2-5.9,2.1-8.6"/>
		<path class="st40" d="M121.9,172.2c0.1,0,0.3,0.1,0.4,0.2c1.1,1,2.6,1.3,4,1.9c1.3,0.6,2.5,1.5,3.4,2.6"/>
		<path class="st40" d="M167.1,171c0.8,0.9,1.3,2.1,1.4,3.3c0,1-0.2,2-0.5,3"/>
		<path class="st40" d="M143,148.6c1.1,1,1.9,2.3,2.3,3.7c0.3,0.8,0.4,1.7,0.5,2.5c0.1,0.4,0.1,0.9,0.2,1.3"/>
		<path class="st40" d="M93.9,142.7c0.6-0.2,5.3-2.9,6.4-3.4"/>
		<path class="st40" d="M69,108.7c3-0.8,12.4-2.1,13.4-1.9"/>
		<path class="st40" d="M179.2,150.1c2-1.1,4-2.7,5.5-4.4"/>
		<path class="st40" d="M194.9,133.1c0.4-2.4,0.7-4.8,1.8-6.9"/>
		<path class="st40" d="M197.5,125c0.6-1.3,1.3-2.9,2.1-4.1"/>
		<path class="st40" d="M184.4,101.1c-0.4,0.4-0.6,2.4-0.7,3.8c-0.1,1.3-0.2,1.7,0,3c0.3,1.9,1.4,3.7,2.3,3.9
			c0.8,0.2,2.4-0.3,3.1-1.3c0.4-0.6,1.3-2,1.3-2"/>
		<path class="st40" d="M177.6,102.4c-0.2,2.4,0.4,4.9,1.6,6.9"/>
		<path class="st40" d="M175.7,125.7c0.1-1,0.4-1.9,0.8-2.8c0.2-0.5,2.3-3.9,3.3-5c0.5-0.5,1.1-1.1,1.9-1.1c1.4-0.1,2.6,1.7,4,1.4"
			/>
		<path class="st40" d="M178.7,128.7c-0.1-0.7,0-1.5,0.2-2.2c0.3-0.9,1.3-2,2.4-2.8"/>
		<path class="st40" d="M167.6,122.8c-0.1,1.5,0.2,3.1,2.1,4.4"/>
		<path class="st40" d="M197.9,99.3c0.1-0.5,2.5-3.2,3.4-4.1"/>
		<path class="st40" d="M190,85.1c0.1-0.7,3.8-2.8,4.7-2.7"/>
		<path class="st40" d="M196.6,81.8c1.6-0.5,2.3-0.8,4-0.9"/>
		<path class="st40" d="M251.6,127.3c2.4-3.7,4.4-7.6,6.1-11.7"/>
		<path class="st40" d="M129.3,57.1c-3.5,2.3-5.5,6.7-4.9,10.8"/>
		<path class="st40" d="M125.1,75.3c0,0.3,0.1,0.6,0.3,0.9c0.5,1.1,1.1,2.2,2.1,2.8"/>
		<path class="st40" d="M194.1,166.2c0.7,0.8,1.4,1.6,1.9,2.5c0.3,0.4,0.5,0.8,0.7,1.2c0.2,0.3,0.3,0.5,0.5,0.8
			c0.5,0.9,1,1.7,1.3,2.7"/>
		<path class="st40" d="M204.7,174.6c1.1-2.1,3.4-3.4,4.4-5.5"/>
		<path class="st40" d="M233.7,271c-0.3,1.1-0.4,2.2-0.4,3.3c0,0.8,0.1,1.7,0.6,2.4"/>
		<path class="st40" d="M117.3,295.5c3.1,0.2,6.2-0.5,8.9-2.1c0.6-0.4,1.2-0.7,1.7-1.2c1-0.9,1.7-2.3,2.9-2.8"/>
		<path class="st40" d="M118.5,284.2c-0.9,1.3-1.4,3.1-1.1,4.7"/>
		<path class="st40" d="M103.1,278.9c0.1-0.1,0.3,0,0.4,0.1c1.2,1.1,1.8,2.6,2.5,4.1"/>
		<path class="st40" d="M116.5,304.5c0.1,1.1,0.5,2.1,1.3,2.9"/>
		<path class="st40" d="M269.5,215.7c-0.3,0.4-0.3,1-0.3,1.5c0,0.8-0.1,1.8,0.6,2.3c0.2,0.1,0.9,0.8,1.2,1c0.2,0.1,1.2,0.3,1.8,0.2
			c0.6,0,1.1-0.3,1.3-0.4c0.6-0.2,1.6-0.5,2.2-0.4c0.7,0.1,1.3,0.5,1.6,0.8c0.2,0.2,0.5,0.6,0.6,0.8"/>
		<path class="st40" d="M155.6,244.4c-5.8-10.3-12.5-19.3-20.7-26.5c-0.5-0.4-1.1-0.8-1.6-1.3c-0.6-0.5-1.2-1-1.8-1.5l-0.7-1.6
			l2.2-10.2c4-1,7.2-2.1,9.3-3.1c4.5-2.4,8.5-5.1,11.5-8.5l5.1-11.5l1.9-1.1c1.2,2.5,1.7,5.4,1.9,8c4.5-1.2,7.2-4.6,8.2-10.5v-2.5
			c2.9,0.2,5.6-2.5,7.9-8.4c2.2-8.2,1.8-15.2-1.7-20.5c-1.7,5.9-4.2,9.4-7.1,11.7c-0.7,0-1.3,0.3-1.7,0.7c-0.4-0.9-0.9-1.5-1.7-1.9
			c2.7-1.4,5.4-3.2,7.9-5.2c-1.4-0.8-3.5-1.4-5.9-1.9c4.7-3.6,9.4-5.7,14.1-5.9c2.6-1,4.7-2,5.1-3.3c-1.5-1.4-3.5-2.2-5.7-2.6
			c1.1-1.2,2.3-2.4,3.7-2.6l1.1,1.1c0.7-0.7,0.9-1.6,0.9-2.6c1.3-0.9,2.7-1.6,4.4-2.1c-0.2,0.9-0.3,1.8,0,2.6l-1.3,2.5
			c-0.9,0-1.6-0.4-1.9-1.2c0.1,2.1,0.5,3.8,1.2,5.1c-0.5,0.9-0.7,1.9-0.5,2.9c0.3,1.1,1.6,1.9,3,2.3c2.2,0.7,4.2,0.2,7-0.4l-7,9.3
			c-18,22-29.4,48-36.1,76.8C155.6,235.5,155.1,240.3,155.6,244.4z"/>
	</g>
</g>
</svg>
