<?xml version="1.0" encoding="utf-8"?>
<!-- Generator: Adobe Illustrator 24.0.0, SVG Export Plug-In . SVG Version: 6.00 Build 0)  -->
<svg version="1.1" id="Capa_1" xmlns="http://www.w3.org/2000/svg" xmlns:xlink="http://www.w3.org/1999/xlink" x="0px" y="0px"
	 viewBox="0 0 226 218" style="enable-background:new 0 0 226 218;" xml:space="preserve">
<style type="text/css">
	.st0{fill:#F8F9D9;}
	.st1{fill:#DD5A5F;}
	.st2{fill:#A3414E;}
	.st3{fill:none;stroke:#000000;stroke-miterlimit:10;}
	.st4{fill:#2E97D0;}
	.st5{fill:#F7A873;}
	.st6{fill:#C56D5A;}
	.st7{fill:#45403A;}
	.st8{fill:#FFFFFF;}
	.st9{fill:#FCCABE;}
	.st10{fill:#E7B5AD;}
	.st11{fill:#C14442;}
	.st12{fill:#E29BAB;}
	.st13{fill:#FAE57C;}
	.st14{fill:#D1B26F;}
	.st15{fill:#C9C0A1;}
	.st16{fill:#AA7E79;}
	.st17{fill:none;stroke:#000000;stroke-width:0.5;stroke-miterlimit:10;}
	.st18{fill:#FEFDC5;}
	.st19{fill:#F3EA4F;}
	.st20{fill:#C5C12C;}
	.st21{fill:#7500CD;}
	.st22{fill:#EEA731;}
	.st23{fill:#D29634;}
	.st24{fill:#FFCD5A;}
	.st25{fill:#DDAE50;}
	.st26{fill:#F8FA8F;}
	.st27{fill:#D3D276;}
	.st28{fill:#EDEA99;}
	.st29{fill:#CE9836;}
</style>
<g>
	<g>
		<path class="st0" d="M13.8,98.3c0.1,4.2,1.2,7.1,4.1,7.7c1.1,2.2,2.8,3.6,5.9,3.4c-0.3,1.8,0.6,2.9,3.1,3.4
			c1.3,0.4,3.6,0.4,4.8,0.2c2.1-0.4,5.4-1.8,7.4-4.6c-2.9,4-5.6,7.9,0.5,7.8c3.6,0.5,6.9-1.5,10-4.6c-2.6,2.4-5.2,4.9-5.1,6.6
			c2.7,2.8,9.2,1.6,16.1-4.1c-2.5,2.4-5,4.7-5.1,6.4c1.7,1.9,6,1.3,11.5-0.4c4.3,0.4,7.2-0.8,9.5-2.6c-1.4,3.8-2.5,7.3-2.4,10.3
			c2.3,1.8,2.7,4.3,1,7.4l-0.2,2.7c0.2-0.5,0.7-0.8,1.5-0.7c0.2,0.5,0.2,1.1-0.2,1.7l1.8-1c-0.1-3.1,6.8-2.6,4.8,0.7
			c0.5,2.1-0.5,3.8-2.8,5.2c0.1-1.2,0-2-0.7-2.2l-3.5,1.4c-0.7,0.8-0.9,1.7-0.6,2.9c-0.1,0.6-0.6,1-1.3,1.2l-0.2,1.9
			c0.4,0.6,0.3,1.2,0,1.9l1.3-0.1c1.1,1.7,0.4,4.1-1.1,6.8c1.5-1.1,3-2.1,4.3-2.3c0.3,1.5,0.4,2.9,0,4.3c1.3-1.6,2.5-2.8,3.8-3.5
			c1,1.2,1.7,2.6,1.9,4.3c0.3-1.5,0.7-2.9,1.4-4c1.5,1,2.7,2.2,3.8,3.5c-0.4-1.4-0.6-2.7-0.7-3.9c0.6-1.5,2-2.8,3.7-4
			c3.9-3,8.4-7.4,13.2-12.2c8.3-8.6,9-19.5,6.3-31.4l-2.7-9.8c2.3-6.3,2.6-9.3,0.7-9.2c0.5,2.3-3.2,4.6-3.6,4.3c0-0.3,0-0.6-0.1-0.9
			c0,0-0.3-0.2-0.5-0.2c-0.4,1.6-0.5,3.2-0.3,4.8c-3.9,0-5.4-3.4-5.7-8.6C98,88,99.3,87,102,86.5c-2.6-0.5-4.9-0.8-6.5-0.6
			c-1,1.3-1.6,2.8-1.9,4.6c0.7,1.6,1.8,3.5,3.2,5.6c-1.3,8.4-5.8,11.4-11.8,11.5c-1.8-3.1-3.8-7.6-7.1-8.5
			c-30.8-5.4-29.9-6.9-43.4-29c-3.8,0-7.4-0.1-10.8-0.2c7.4,2.4,11.6,4.5,11.9,6.2c-6.6,6.8-16,7.9-22.4,3.3
			C10.2,85.2,11,98.9,13.8,98.3z"/>
		<path class="st1" d="M73.7,157.7c-9.1,9.5-17.3,19.4-24.7,29.5c1.4,2.4,5.1,4.3,11.8,5.5c0.6,2.4,5.2,3.6,12.2,4
			c1.1,0.9,3.7,1.4,10.7,0.8c1.1-0.1,1.2-3,1.5-5.5c0,1.6,0,3.1,0.4,4c8.9-0.3,15-2.3,17.7-6.1c-4.2-10.6-9-20.6-14.5-30
			c-1.2-1.4-2.5-2.6-3.8-3.5c-0.6,1.1-1.1,2.5-1.4,4c-0.2-1.6-0.8-3.1-1.9-4.3c-1.3,0.8-2.6,2-3.8,3.5c0.4-1.4,0.4-2.9,0-4.3
			C76.6,155.8,75.2,156.5,73.7,157.7z"/>
		<path class="st0" d="M112.2,126.8c1.2,0.9,2.2,0.8,3-0.9c0.7,2.4,2.5,2.2,5.1,0.5c0.7-0.6,0-2.6-0.7-4.5c0.8,1.7,1.9,3,3.7,3
			c2.9-0.1,5.2-0.7,6.7-2.1c0.3-0.6,0-1.2-0.5-1.8c3.9,0.6,7.2,0.4,10-1.3c0.5-1.8-2-3.8-4.9-5.9c3.1,2.3,6.2,4.2,8.9,4
			c4-0.1,6.7-1.1,7.8-3.3c0-1.3-2.6-3.4-4.9-5.3c8.4,4.1,16.6,8.5,24.5,13.2c1.1-2.3,0.7-6.4,0.1-10.6c-1.4-5.6-6.3-9.1-12-12.1
			c9.8,1.5,18.9,4.2,27,8.6c2.6-4,2.4-8.7,0.4-13.7c-4.9-4.3-11.9-7.3-20.1-9.5c14.6,2,28.3,3.7,37.8,4.9c2.4-7.8,2.3-15.4,0.4-22.8
			c-5.4-2.1-13.3-2.5-21.8-2.5c9.6-1.1,18.3-2.6,25.1-5c5.4-2.6,10-6.6,14.2-11c-35.6-2.2-64.7,2.5-85.2,16.2
			c-6.4,5.5-12.1,10.5-11.6,12c0.8,8.3-0.1,16.2-3.3,23.3c-2.9,3.6-7.8,4.6-10.3,8.2C112.9,114.6,113.4,120.8,112.2,126.8z"/>
		<path class="st0" d="M22.5,58.8C38,36.3,70.4,21.4,88.6,22c-4.7,11.7-17,19.3-37.2,22.8C41.4,48.2,31.8,53.1,22.5,58.8z"/>
		<path class="st0" d="M20.1,62.9c7-3.7,15.9-5.3,26.8-4.7c12.1-3.5,24.7-6.9,28.9-11.9c1.3-1.3,2.5-2.6,3.4-4
			c-9.8-0.5-19.1,0.5-27.9,2.6c-10,3.4-19.6,8.1-28.9,14L20.1,62.9z"/>
		<path class="st1" d="M59.8,29.2c-8.8-4.3-19.5-4.5-30.4-2.5l11.4,3.1c-12-1.4-23.6,3.7-34.8,12.3l11.2-1.2
			C8.3,46.6,4.7,54,4.6,62.5l6.7-9.8C9,60,9.7,67.6,11.8,75.5l1.9-11.7l1.1,11.4c2.2-5.1,4.3-9.9,6-13.6C22,46.2,31,38.2,46.4,36.5
			C50.5,33.7,55,31.3,59.8,29.2z"/>
		<path class="st2" d="M46.4,36.5c2.4-1.6,5-3.1,7.6-4.5c-27.3,0.5-39.1,11.7-35.2,33.9l2-4.3C21.8,47.4,29.8,38.6,46.4,36.5z"/>
		<path class="st3" d="M24.7,69.9"/>
		<path class="st0" d="M13.1,79.3c6.5,5.2,17.1,3,22.4-3.3c-0.4-2.2-6.5-4.3-11.9-6.2c9,0.4,18.1,0.3,27.3-0.4
			c5.5-1.5,8.8-3.9,9.9-7.4c-0.6-2-5.9-3.2-14-3.9c-10.2-0.6-19.2,0.8-26.8,4.7L13.1,79.3z"/>
		<path class="st4" d="M13.1,79.3c6.1,5.2,18.4,2.3,22.4-3.3c-0.4-1.6-3.5-3.1-7.1-4.5c-4.8,1.5-8.7,3.6-11.7,6.5
			c-1-0.1-1.9-0.5-2.5-1.5L13.1,79.3z"/>
		<path class="st4" d="M24.7,69.9c8.8,0.4,17.5,0.3,26.2-0.4c6-1.6,9-4.2,9.9-7.4c-0.5-1.8-5.1-2.9-11.1-3.7
			C44.3,60.7,39.6,64,35.4,68C31.3,68.6,27.7,69.2,24.7,69.9z"/>
		<path class="st4" d="M38.7,58.2l8.1,0.1c18.5-5.3,26.4-7.3,32.4-16c-5.4-0.3-10.9,0-16.6,0.6c-4,3.3-7.3,6.6-9.8,9.9
			C49,54,44,56,38.7,58.2z"/>
		<path class="st4" d="M51.4,44.8C68.8,41.7,83,35.4,88.6,22c-4.2,0-8.4,0.5-12.6,1.5C71.9,31.2,62.7,38.2,51.4,44.8z"/>
		<path class="st1" d="M69.4,42.3c3.2-0.2,6.5-0.2,9.9,0l0.6-0.2l-5.3-4.9c-0.2,0.4-7.6,3.7-8,3.7L69.4,42.3z"/>
		<path class="st2" d="M69.4,42.3c2-0.1,4-0.2,6.1-0.1c-1.2-1.4-2.6-2.5-4.2-3.3c-2.1,1-4.5,2-4.7,2L69.4,42.3z"/>
		<path class="st5" d="M90.9,79.4c-3.1,4.4-1.9,8.1-6.5,14.6c0,0-5-2.7-6.8-2.6c-18.4-1.2-27-2.8-38.1-21.4l-5.1,0.1
			c13,22.7,15.6,24.5,43.4,29.2c3.4,0.7,7.1,8.5,7.1,8.5c6.4-0.1,10.5-3.6,11.8-11.5c-3.1-2.3-5.8-4.7-7.5-7.6
			c0.9-3.1,2.5-6,4.8-8.7C93.1,79.7,92,79.6,90.9,79.4z"/>
		<path class="st6" d="M38.9,77.7c9.6,15.6,14.6,17.5,38.9,21.6c3.4,0.7,7.1,8.5,7.1,8.5c1.2,0,2.3-0.2,3.4-0.4
			c-1.8-3.5-5.5-9.1-9.3-10C53.5,93.4,53,92.9,38.9,77.7z"/>
		<path class="st7" d="M96.7,96.3c-3-2.2-5.6-4.7-7.5-7.6c0.9-3.2,2.5-6.1,4.8-8.7c3.8,1,6.9,2.8,8.9,6.1l-1,0.7
			c-2.2-0.5-4.4-0.8-6.5-0.6c-1,1.4-1.6,3-1.9,4.6C94.3,92.4,95.4,94.3,96.7,96.3z"/>
		<path class="st7" d="M109.4,89.5c-0.8-1.3-1.9-2.4-3.2-3.5c2.2-0.3,4.2-0.7,6-1.3c0.7,7.6-1,11.5-3.5,14
			C110.5,93.8,111.7,89.4,109.4,89.5z"/>
		<path class="st8" d="M95.2,80.3c0,0-0.2,3.8,0.6,4.6c1.5,0.9,7.2,1.1,7.2,1.1C101.3,83.3,98.6,81.4,95.2,80.3z"/>
		<path class="st1" d="M98.3,81.7c-0.6,1.3-0.7,2.5-0.4,3.9c1.1,0.2,2.2,0.3,3.3,0.4c0.3-0.6,0.2-1.3,0-2.1
			C100.4,83,99.4,82.3,98.3,81.7z"/>
		<path class="st8" d="M99.6,83.3c-0.4,0-0.6,0.4-0.6,1.6c0,0.6,0.1,0.9,0.6,0.9s0.7-0.3,0.7-0.9C100.2,83.9,100.1,83.3,99.6,83.3z"
			/>
		<path class="st8" d="M111.6,84.9c0.1,0.5-0.4,3.7-1.4,3.9l-1.7-0.4c-0.1-0.1-1.4-1.7-2.3-2.4C108,85.8,109.8,85.4,111.6,84.9z"/>
		<path class="st1" d="M109.4,88.6c0.6-0.9,0.8-2,0.6-3.3c-1.1,0.3-2.1,0.5-3.1,0.6c-0.1,0.2-0.2,0.5-0.1,0.7
			c0.6,0.5,1.1,1.1,1.7,1.8L109.4,88.6z"/>
		<path class="st8" d="M108.7,86c-0.3-0.1-0.7,0.5-0.7,0.8c0,0.2,0.1,1,0.1,1l0.5,0.6c0,0,0.4-0.7,0.4-1C109,87,109,86.1,108.7,86z"
			/>
		<path class="st9" d="M109.4,89.5c-0.9-1.3-2-2.5-3.2-3.5c-0.9-1.1-2-1.2-3.3,0l-1,0.7c-3.2,0.6-3.9,1.7-2.6,2.3
			c4.2-0.7,6.4,0.7,6.6,4.8C106.6,94.1,109.9,91.6,109.4,89.5z"/>
		<path class="st10" d="M99.2,89.1c0.2,5.4,1.9,8.6,5.7,8.6c-0.2-1.8-0.1-3.4,0.3-4.8l0.1-1.6C104.1,89,102.1,88.6,99.2,89.1z"/>
		<path class="st11" d="M105.2,92.8l0.1-1.6c-0.8-1.7-2.3-2.4-4.5-2.3c-0.2,1.3-0.1,2.6,0.2,3.8C102.3,92.4,103.7,92.4,105.2,92.8z"
			/>
		<path class="st12" d="M103.9,96.6c-1.7-1.2-2.5-2.5-2.9-3.9c1.6-0.3,3-0.3,4.2,0.1L103.9,96.6z"/>
		<path class="st1" d="M106.2,86c2-0.2,4-0.7,6-1.3c6.8-3,9.1-9.3,7.8-18.2c0.5-3,0.3-6-0.5-8.9c-1.5,5.9-3.4,11.3-6.6,15.4
			c0.1,3.5-1.6,6.7-4.8,9.8l-2.5,2.7C105.9,85.7,106.1,85.8,106.2,86z"/>
		<path class="st2" d="M106.2,86c2-0.2,4-0.7,6-1.3c1-0.4,1.9-1,2.7-1.5c-2,0.6-4.3,1.6-5.2,0.6c2.5-1.9,5.7-7.7,4.7-12.8
			c-0.5,0.7-0.9,1.5-1.5,2.1c0.1,3.5-1.6,6.7-4.8,9.8l-2.5,2.7C105.9,85.7,106.1,85.8,106.2,86z"/>
		<path class="st2" d="M114.9,54.7c1.4,2.7,2.4,5.7,2.8,9.1c-0.9,2.7-2,5-3.3,7.1l-0.5,0.8C113.6,65.3,113.8,59.5,114.9,54.7z"/>
		<path class="st13" d="M105.8,85.6l-0.9-0.4c4.2-18.1-1-22.4-12.2-17.8c-1.6-1.1-3.4-2-5.4-2.6c-2.8-3.6-3.8-7.6-4.2-11.7
			c-0.1-1.3,0-2.9,0.3-4.8c1.4,3,2.9,5.8,5.2,7.5c-1.9-9.4,2.2-16.5,9.3-22.3c-0.7,5.1-1,9.8-0.6,13.3c3.4,3.2,6.1,7,8.1,11.6
			c0-1.9,0.5-3.4,1.2-4.7c0.4,3,1.4,5.3,2.6,7.1l1.2-3l2.6,15.4C113,79,109,82.1,105.8,85.6z"/>
		<path class="st1" d="M79.9,42.1c4,3.8,6.6,8.5,8.7,13.5c-2.3-1.8-3.9-4.5-5.2-7.5c-0.3,1.6-0.4,3.2-0.3,4.6l-7.2-6.5
			c1.2-1.2,2.4-2.5,3.4-4L79.9,42.1z"/>
		<path class="st2" d="M83.1,49.7c0,0-0.2,2.2-0.1,3.1l-7.2-6.5c0.8-0.8,2.2-2.4,2.2-2.4C80,45.5,81.6,47.4,83.1,49.7z"/>
		<path class="st1" d="M104.9,85.1c4.3-17.9-0.9-22.4-12.2-17.8C85,71,80.6,76,76.7,81.2c14.9-11.2,29-22.5,27,4.2L104.9,85.1z"/>
		<path class="st14" d="M103.8,79.5c-0.3-6.8-2-11.3-7.3-10.4C99.9,71.4,102.4,74.8,103.8,79.5z"/>
		<path class="st13" d="M102.9,86l0.7-0.6l0.2-5.9c-1.4-4.6-3.8-8.1-7.3-10.4c-3.4,0.7-8.1,3.4-13.6,7.4c1.9,1.4,4.6,2.5,8,2.9
			C96.8,80,100.5,82.4,102.9,86z"/>
		<path class="st13" d="M92.6,67.3c-1.4-0.9-3.2-1.8-5.4-2.6c-3.5-1.2-7-4.9-10.5-12.6c-1.4,4.6-1.3,9.1,0.7,13.5l-5.2-3.8
			c1,5.9,4.4,10.2,9.1,13.7C84.2,72.4,88.3,69.3,92.6,67.3z"/>
		<path class="st6" d="M92.9,79.7c-3.9,5.3-6,11.1-5.3,17.8L84.3,94c4.7-6.6,3.3-9.6,6.5-14.6L92.9,79.7z"/>
		<path class="st14" d="M105.8,85.6l-0.9-0.4c2.9-4.2,4.4-8.8,5-13.6C110.6,76.5,109.7,81.2,105.8,85.6"/>
		<path class="st14" d="M103.6,85.4c-2.7-6.3-4-9.4-18.6-10.5l-2.2,1.6c2.1,1.4,4.6,2.5,8,2.9l2,0.3l1.1,0.2
			c3.9,1.1,7.1,2.9,8.9,6.1L103.6,85.4z"/>
		<path class="st14" d="M81.3,75.6l1.5-1.6c-4.5-3.3-8-7.4-10.6-12.2C73,66.6,75.6,71.2,81.3,75.6z"/>
		<path class="st14" d="M92.6,67.3c-1.5-1-3.4-1.9-5.4-2.6C84.8,62,83.6,57.9,83,53c-0.1-0.9-0.1-2.1,0.1-3.3l0.2-1.5
			C84.9,56,87.5,63,94.6,66.6L92.6,67.3z"/>
		<path class="st14" d="M109.1,67.3c-1-3.5-2.2-6.6-3.7-9c0.1-2.2,0.6-3.6,1.2-4.7C106.2,60.2,110.2,61.1,109.1,67.3z"/>
		<path class="st15" d="M39.6,116.1c2.4,0.2,5.4,0,10-4.6c-2,2-5.1,4.4-5.1,6.6c2.7,2.8,9.2,1.6,16.1-4.1c-2.5,2.4-5,4.7-5.1,6.4
			c1.7,1.9,6,1.3,11.5-0.4c4.3,0.4,7.2-0.8,9.5-2.6c-1.7,4-2.7,10.5-2.4,10.3c6.1-6.8,11.1-13.6,14.3-20.5c0,0-2.2,0.4-3.4,0.4
			c-1.8-3.1-3.8-7.6-7.1-8.5c-23-3.9-29.3-6.3-36.9-18.7c0.1,10.7,3.1,21,10.1,28.9c-2.2,0.3-4.6,0.2-5.7-0.5
			C45.7,111.8,43.7,114.2,39.6,116.1z"/>
		<path class="st15" d="M75.7,143c-0.7,0.8-0.9,1.7-0.6,2.9c-0.1,0.6-0.6,1-1.3,1.2l-0.2,1.9c0.4,0.6,0.3,1.2,0,1.9l1.3-0.1
			c1.1,1.7,0.4,4.1-1.1,6.8c1.5-1.1,3-2.1,4.3-2.3c0.3,1.5,0.4,2.9,0,4.3c1.3-1.6,2.5-2.8,3.8-3.5c1,1.2,1.7,2.6,1.9,4.3
			c0.3-1.5,0.7-2.9,1.4-4c1.5,1,2.7,2.2,3.8,3.5c-0.4-1.4-0.6-2.7-0.7-3.9c0.6-1.5,2-2.8,3.7-4c3.9-3,8.4-7.4,13.2-12.2
			c3.7-3.2,6.9-11.1,6.6-11.3c-6.2,12.2-14.5,18-26.3,13.5C82.2,145.6,78.9,145.8,75.7,143z"/>
		<path class="st2" d="M73.7,157.7c-2.8,2.9-5.5,5.9-8.2,8.9c5.9,8.6,21.4,9.7,28.5,2.8c-1.6-3.2-3.4-6.3-5.2-9.4
			c-1.2-1.4-2.5-2.6-3.8-3.5c-0.6,1.1-1.1,2.5-1.4,4c-0.2-1.6-0.8-3.1-1.9-4.3c-1.3,0.8-2.6,2-3.8,3.5c0.4-1.4,0.4-2.9,0-4.3
			C76.6,155.8,75.2,156.5,73.7,157.7z"/>
		<path class="st4" d="M52.1,183.1c-1,1.4-2,2.7-3.1,4.1c1.4,2.4,5.1,4.3,11.8,5.5c0.6,2.4,5.2,3.6,12.2,4c1.1,0.9,3.7,1.4,10.7,0.8
			c1.1-0.1,1.2-3,1.5-5.5c0,1.6,0,3.1,0.4,4c8.9-0.3,15-2.3,17.7-6.1c-0.7-1.7-1.3-3.3-2-4.9c-5.8-0.4-15.9,4.8-15.9,4.8
			c-7.4-2.3-14.9-3.5-22.4-3.2C63.1,186.7,55.5,182.5,52.1,183.1z"/>
		<path class="st9" d="M73.8,143.7c0.3-0.4,1.9-0.7,1.9-0.7l3.5-1.4c-1.1-4.3,2-5.6,3.5-3c2.2-3.1-4.7-4-4.8-0.7l-1.8,1
			c0,0-1.1,1-1.4,0.8c-0.4-0.2,0.1-1.8,0.1-1.8l0.2-2.7c1.6-3,1.3-5.5-1-7.4c-1.2,0.3-1.9,1-2.3,2c0.5-0.3,1-0.4,1.4-0.4
			c3.3,2,2.2,4.2-1.3,6.4c-0.4-0.3-0.7-0.5-0.8-0.7l-0.1,3.2c-0.1,0.4-0.4,0.6-0.9,0.7l-2.9-2c0.5-3.4-4.8-3.8-4.9-1.3
			c2.8,0.1,4.2,1.8,2.4,4.5c0.8,0.2,1.6,0.2,2.1,0c0.1,1.1,0.4,2,2.5,2.5c0.5,0.2,0.8,0.4,0.9,0.8l-0.2,3.7c1.3,1.2,2.2,2.3,2.3,3.4
			c-0.1,1.1-0.6,1.9-1.9,1.9c-0.8,0.1-1.4-0.3-2.1-0.7c0.1,1.3,3.6,3.5,5.3-0.8c0.3-0.8,0.3-1.4,0-1.9l0.2-1.9
			C73.7,147.1,73.3,144.4,73.8,143.7z"/>
		<path class="st15" d="M73.7,147.1c0.8-0.3,1.3-0.7,1.3-1.2c-0.3-1.1-0.1-2.1,0.6-2.9c0,0-1.6,0.3-1.9,0.7
			C73.3,144.4,73.7,147.1,73.7,147.1z"/>
		<path class="st15" d="M71,135.8c-1,0.5-1.6,1.3-1.9,2.5l1,0.7c0.5-0.1,0.8-0.3,0.9-0.7V135.8z"/>
		<path class="st15" d="M70.2,143.4c-0.1-0.4-0.5-0.7-0.9-0.8l-1-0.3c0,0.9,0.1,1.8,0.5,2.6c-0.2,0.1-0.5,0.1-0.9,0
			c0.5,0.8,2.1,2.3,2.1,2.3L70.2,143.4z"/>
		<path class="st8" d="M82.7,138.6c-1.4-2.3-4.4-1.6-3.5,3c0.6,0.1,0.8,0.9,0.7,2.2C82.5,142.3,83.1,140.5,82.7,138.6z"/>
		<path class="st8" d="M62.3,135.6c-2.2,2.3-1.9,4.7,0.1,7.1c0.4-1.7,1.1-2.9,2.3-2.6C66.7,137.3,64.8,135.7,62.3,135.6z"/>
		<path class="st8" d="M73.1,129.4c-0.5,0-1,0.2-1.4,0.4c-1.8,1.3-1.2,3.9-0.6,5.3c0.2,0.3,0.4,0.5,0.8,0.7
			C75.6,133.4,76.1,131.2,73.1,129.4z"/>
		<path class="st8" d="M68.2,151.7c-0.2-1.8,0.1-3.6,0.7-5.6c0.1,0.1,0.9,0.9,1,1c1.3,1.1,2.1,2.3,2.3,3.4
			C72.2,152.5,70,152.9,68.2,151.7z"/>
		<path class="st16" d="M66.8,140.1c2.5,1.8,3,0.7,4.4,1.9c0.4,1.9,0.7,4.2-1.2,5.1l0.2-3.7c-0.2-0.4-0.5-0.7-0.9-0.8
			s-0.7-0.2-1-0.3C67.3,141.9,66.9,141.2,66.8,140.1z"/>
		<path class="st16" d="M73.8,143.7c-0.6-0.8-0.7,3.4-1.6,6.8c0,1.8-2,2.5-4,1.2c0.9,2.4,4.2,2.4,5.3-0.8c0.3-0.7,0.3-1.3,0-1.9
			l0.2-1.9C73.6,145.7,73.5,144.3,73.8,143.7z"/>
		<path class="st16" d="M71,138.3l0.1-3.2c0.1,0.2,0.4,0.5,0.8,0.7c1.8-1.2,3-2.3,3.2-3.5c0.5,1.1,0.7,2.2-2.2,3.8
			C72.6,138,72,138.7,71,138.3z"/>
		<path class="st0" d="M105.2,139.8c3.4,2.5,5.5,5.6,4.8,10.1c0.8,0.3,1.4,0.7,1.9,1.4c-0.9,0.3-1.9,0.4-2.9,0.4
			c0.7,0.6,1.1,1.3,1.2,2.1c-1.2,0.1-2.2-0.3-3.2-0.8c0.6,0.6,1,1.2,0.9,1.9c-0.5,0.3-1,0.3-1.5,0.1c-0.2,0.8-0.2,1.7,0,2.6
			c-0.5-0.1-0.9-0.3-1.2-0.7c-0.4,0.4-0.6,1.1-0.7,1.9c-0.8-1.1-1.3-2.3-1.7-3.5c-8.4,2.4-6.8-2.4-10.8-3.4
			C96.7,148.1,101.2,144.1,105.2,139.8z"/>
		<path class="st9" d="M109,151.8c2.3,1.7,4.5,3.3,5.9,3.8c0.5-0.4,0.9-1,1-1.7v-1.5c-1.8-2.9,1.9-6,3.7-3.3
			c-0.7-0.2-1.6-0.4-2.2,0.1c-1,0.9-1,2.9-0.2,4.1c0.6,0.9,1.8,0.7,2.6,0.5c1-0.5,2-0.4,3.1,0.2c-0.7,0.6-1.2,1.4-1.6,2.2
			c2,1,5.1-0.3,5.8,1.2c-2.2,0.1-3.4,1-2.7,3.3c-1.1-0.1-2-0.5-2.3-1.3c-1-0.2-2.1,0-3.1,0.3c-1.5,1.1-2.5,2.4-3.1,4
			c0.3,0.5,0.5,1,0.3,1.3c-2.4-0.1-3,1.3-2.5,3.5c-1.7,0-2.8-1.5-3-4c0.4-0.8,0.9-1.4,1.6-1.5c0.6-1,0.9-2.1,1.2-3.3
			c-1-0.9-2.6-1.8-4.3-2.7c-1.6,0.8-2.4,0.6-2.9-0.3c0-0.4,0-0.9,0.1-1.4c0.6,0.2,1.1,0.1,1.5-0.1c0.1-0.5-0.2-1.2-0.9-1.9
			c1,0.6,2,0.9,3.2,0.8C110.1,153,109.6,152.3,109,151.8z"/>
		<path class="st16" d="M118.9,159.5c-1.5,1.1-2.5,2.4-3.1,4c0.3,0.5,0.5,1,0.3,1.3c-2.4-0.1-3,1.3-2.5,3.5c-1.7,0-2.8-1.5-3-4
			c0.4-0.8,0.9-1.4,1.6-1.5c0.6-1,0.9-2.1,1.2-3.3c-1-0.9-2.6-1.8-4.3-2.7c-1.6,0.8-2.4,0.6-2.9-0.3c0-0.4,0-0.9,0.1-1.4
			c0.6,0.2,1.1,0.1,1.5-0.1C114.9,158.2,114.3,159.9,118.9,159.5z"/>
		<path class="st8" d="M119.4,167c-1.7,0-2.8-0.7-3.2-2.2c-2.2,0-3,1.2-2.5,3.5C116.8,170,118.4,169,119.4,167z"/>
		<path class="st8" d="M127.1,157.1c-2.3,0.1-3.3,1.1-2.7,3.3c1.9,0.2,3,1.3,3.7,2.8C129.6,160.6,129.4,158.5,127.1,157.1z"/>
		<path class="st8" d="M119.6,148.9c0,0-1.5-0.5-2.2,0.1c-1,0.8-1,3.3-0.2,4.1c0.8,1.1,2.6,0.5,2.6,0.5c1-0.5,2-0.4,3.1,0.2
			C123,151.4,122,149.7,119.6,148.9z"/>
		<path class="st9" d="M120.9,149.6c0.9-3,2.6-4.1,5.4-2.8c-2.5,1.6-2.9,3.1-0.7,4.6c0.2,0.6-0.2,1-1.9,0.6l-0.9,1.7
			C123,151.8,122.4,150.4,120.9,149.6z"/>
		<path class="st8" d="M126.4,146.8c2.9,0.6,3.9,2.6,3.7,5.6c-1.1-1.4-2.6-1.7-4.4-1C123.4,149.8,124,148.3,126.4,146.8z"/>
		<path class="st5" d="M108.7,98.7c4.2,0.3,7.5-1.6,10.2-4.9c1-5.5,1-10.5-0.4-14.6c1.4-2.4,1.9-5,1.9-7.9
			c3.9-5.6,9.5-6.5,15.4-12.3c0.2,1,0.2,1.9,0,2.8c0.6,1.1,1,2.2,0.9,3.1c-7.1,5.9-12.1,10.6-11.6,12c0.8,8.7-0.2,16.5-3.3,23.3
			c-2.9,3.7-7.4,4.1-10.3,8.2L108.7,98.7z"/>
		<path class="st0" d="M221.9,48.7c-34.1-3.7-63.5-0.3-86.1,13.1c0.7,1.2,1,2.3,0.9,3.1C158.5,50,188.5,46.9,221.9,48.7z"/>
		<path class="st0" d="M125.1,76.9c7.7-4.5,15.2-8.2,21.7-9.6c2.8,1.1,4.5,2.8,4.8,5.3c-1.6,3-5.2,5.6-10.1,7.9
			c4.2-0.8,8.1-1.3,11.2-0.8c0.8,2.4,0.6,4.4-0.7,6.1c-3.8,2.2-10,4-16.9,5.5c5.7-0.2,11.3-0.3,13.4,0.5c0.6,2.3-0.3,4.3-2.7,6.2
			c-3,0.5-6.6,0.8-10.8,0.8c3.1,0.8,5.9,1.8,7.5,3.4c0.2,1.3-0.9,2.4-2.8,3.3c-4.4-0.2-8.7-0.9-13-2c2.5,1.3,4.7,2.6,6.1,4
			c-0.5,2.5-2.3,4.4-5.1,5.8c-1.1-0.5-2.1-1.1-3-1.8c0.7,0.9,1.3,1.8,1.2,2.4c-2.2,0.9-4.8,1.4-7.8,1.3c-0.1,1.2-0.6,2.3-2.2,3.1
			h-3.1c-0.2-3.4-0.6-6.7-1.4-10.1c1.8-3.1,7.8-4.9,10.3-8.2C124.9,92.7,126,84.9,125.1,76.9z"/>
		<path class="st4" d="M141.5,105.5l5,3.7c8.8,4.4,17.1,8.8,24.5,13.2c1-3.3,0.8-6.9,0.1-10.6c-0.7-3.3-3.1-6-6.3-8.6
			C171.6,121.3,173.1,119,141.5,105.5z"/>
		<path class="st4" d="M148.1,95.9l11,3.8c9.8,1.6,18.9,4.2,27,8.6c2.4-3.8,2.6-8.3,0.4-13.7c-2.2-2-4.8-3.6-7.5-5
			c3.5,4.2,5.1,8.7,4,13.5C173.2,98.4,161.4,96.3,148.1,95.9z"/>
		<path class="st4" d="M153.5,83.4l12.8,1.7L204,90c2.4-7.1,2.4-14.7,0.4-22.8c-2.8-1-5.9-1.6-9.1-2c3.3,6,4.4,12,2.3,17.8
			C181.7,81.3,166.9,81.4,153.5,83.4z"/>
		<path class="st4" d="M164.1,68.1l18.5-3.3c8.5-0.8,16.9-2.4,25.1-5c4.8-2.4,9.5-5.9,14.2-11c-4.4-0.3-8.8-0.4-13-0.5
			C205.1,60.2,186.1,60.8,164.1,68.1z"/>
		<path class="st15" d="M112.8,118.6c-0.1-3.4-0.6-6.7-1.4-10.1c2.6-3.6,7.4-4.6,10.3-8.2c3.2-7.2,4.2-15,3.3-23.3
			c-0.5-1.5,5.2-6.6,11.6-12c7.8-5.2,16.8-9.1,27-11.8c-9.1,6.2-17.2,12.4-21.8,18.3c-0.5,14.9-2.2,29.8-20.3,42.2
			c1.4,0.6,2.8,0.9,4.4,0.5c-2,0.9-4.6,1.4-7.8,1.3c0,1.3-0.7,2.3-2.2,3.1H112.8z"/>
		<path class="st3" d="M123.3,124.9"/>
		<path class="st3" d="M129.5,121"/>
		<path class="st15" d="M112.2,126.8c0.6-2.9,0.9-5.7,0.7-8.2h3.1c1.6-0.7,2.2-1.8,2.2-3.1c3.2,0,5.9-0.4,7.8-1.3
			c0-0.7-0.6-1.5-1.2-2.4c0.9,0.7,1.9,1.3,3,1.8c2.9-1.4,4.5-3.4,5.1-5.8c-1.8-1.6-3.8-2.9-6.1-4c4.6,1.2,8.9,1.9,13,2
			c-1.8,1.5-3.5,2.8-5.1,3.5c0.7,1.8,0.9,3.5,0.1,4.8c-2.4,0.7-5,1-7.7,0.7c0.9,3,0.2,4.5-3.5,3.3c1.1,2.1,2,3.8,6.5,4.9
			c-1.7,1.4-4,2-6.7,2.1c-1.7-0.1-2.8-1.2-3.7-3c0.8,2,1.4,3.9,0.7,4.5c-2.8,1.9-4.5,1.7-5.1-0.5
			C114.4,127.7,113.3,127.7,112.2,126.8z"/>
		<path class="st1" d="M26.9,112.7c-1.3,10.3-9.1,18.8-20.2,26.5c11.7-4.5,20.7-12.5,25-26.3C30.1,113.2,28.5,113.1,26.9,112.7z"/>
		<path class="st2" d="M29.7,113.1c1.1,1.5-6,16.7-16.7,21.3c-2.6,2.1-4.1,3.3-6.3,4.8c11.7-4.5,20.7-12.5,25-26.3
			C30.1,113.2,29.7,113.1,29.7,113.1z"/>
		<path class="st6" d="M108.7,98.7l2.7,9.8c2.6-3.5,7.7-5,10.3-8.2C116.4,103.7,112,103.4,108.7,98.7z"/>
		<path class="st6" d="M125.1,76.9c1,8.8-0.4,16.3-3.3,23.3C125.3,87,122.3,77.1,125.1,76.9z"/>
		<path class="st15" d="M76.3,137.2c-0.6-0.1-1.1,0.1-1.5,0.7c-0.3,1-0.3,1.6-0.1,1.8c0.2,0.1,0.7-0.2,1.4-0.8
			C76.5,138.3,76.5,137.8,76.3,137.2z"/>
		<path class="st11" d="M105.7,93c-0.2-0.1-0.4-0.2-0.5-0.2l0.1-1.6C105.5,91.8,105.7,92.3,105.7,93z"/>
	</g>
	<g>
		<path class="st17" d="M73.7,157.7c-9.1,9.5-17.3,19.4-24.7,29.5c1.4,2.4,5.1,4.3,11.8,5.5c0.6,2.4,5.2,3.6,12.2,4
			c1.1,0.9,3.7,1.4,10.7,0.8c1.1-0.1,1.2-3,1.5-5.5c0,1.6,0,3.1,0.4,4c8.9-0.3,15-2.3,17.7-6.1c-4.2-10.6-9-20.6-14.5-30
			c-1.2-1.4-2.5-2.6-3.8-3.5c-0.6,1.1-1.1,2.5-1.4,4c-0.2-1.6-0.8-3.1-1.9-4.3c-1.3,0.8-2.6,2-3.8,3.5c0.4-1.4,0.4-2.9,0-4.3
			C76.6,155.8,75.2,156.5,73.7,157.7z"/>
		<path class="st17" d="M112.2,126.8c1.2,0.9,2.2,0.8,3-0.9c0.7,2.4,2.5,2.2,5.1,0.5c0.7-0.6,0-2.6-0.7-4.5c0.8,1.7,1.9,3,3.7,3
			c2.9-0.1,5.2-0.7,6.7-2.1c0.3-0.6,0-1.2-0.5-1.8c3.9,0.6,7.2,0.4,10-1.3c0.5-1.8-2-3.8-4.9-5.9c3.1,2.3,6.2,4.2,8.9,4
			c4-0.1,6.7-1.1,7.8-3.3c0-1.3-2.6-3.4-4.9-5.3c8.4,4.1,16.6,8.5,24.5,13.2c1.1-2.3,0.7-6.4,0.1-10.6c-1.4-5.6-6.3-9.1-12-12.1
			c9.8,1.5,18.9,4.2,27,8.6c2.6-4,2.4-8.7,0.4-13.7c-4.9-4.3-11.9-7.3-20.1-9.5c14.6,2,28.3,3.7,37.8,4.9c2.4-7.8,2.3-15.4,0.4-22.8
			c-5.4-2.1-13.3-2.5-21.8-2.5c9.6-1.1,18.3-2.6,25.1-5c5.4-2.6,10-6.6,14.2-11c-35.6-2.2-64.7,2.5-85.2,16.2
			c-6.4,5.5-12.1,10.5-11.6,12c0.8,8.3-0.1,16.2-3.3,23.3c-2.9,3.6-7.8,4.6-10.3,8.2C112.9,114.6,113.4,120.8,112.2,126.8z"/>
		<path class="st17" d="M22.5,58.8C38,36.3,70.4,21.4,88.6,22c-4.7,11.7-17,19.3-37.2,22.8C41.4,48.2,31.8,53.1,22.5,58.8z"/>
		<path class="st17" d="M20.1,62.9c7-3.7,15.9-5.3,26.8-4.7c12.1-3.5,24.7-6.9,28.9-11.9c1.3-1.3,2.5-2.6,3.4-4
			c-9.8-0.5-19.1,0.5-27.9,2.6c-10,3.4-19.6,8.1-28.9,14L20.1,62.9z"/>
		<path class="st17" d="M59.8,29.2c-8.8-4.3-19.5-4.5-30.4-2.5l11.4,3.1c-12-1.4-23.6,3.7-34.8,12.3l11.2-1.2
			C8.3,46.6,4.7,54,4.6,62.5l6.7-9.8C9,60,9.7,67.6,11.8,75.5l1.9-11.7l1.1,11.4c2.2-5.1,4.3-9.9,6-13.6C22,46.2,31,38.2,46.4,36.5
			C50.5,33.7,55,31.3,59.8,29.2z"/>
		<path class="st17" d="M24.7,69.9"/>
		<path class="st17" d="M13.1,79.3c6.5,5.2,17.1,3,22.4-3.3c-0.4-2.2-6.5-4.3-11.9-6.2c9,0.4,18.1,0.3,27.3-0.4
			c5.5-1.5,8.8-3.9,9.9-7.4c-0.6-2-5.9-3.2-14-3.9c-10.2-0.6-19.2,0.8-26.8,4.7L13.1,79.3z"/>
		<path class="st17" d="M69.4,42.3c3.2-0.2,6.5-0.2,9.9,0l0.6-0.2l-5.3-4.9c-0.2,0.4-7.6,3.7-8,3.7L69.4,42.3z"/>
		<path class="st17" d="M90.9,79.4c-3.1,4.4-1.9,8.1-6.5,14.6c0,0-5-2.7-6.8-2.6c-18.4-1.2-27-2.8-38.1-21.4l-5.1,0.1
			c13,22.7,15.6,24.5,43.4,29.2c3.4,0.7,7.1,8.5,7.1,8.5c6.4-0.1,10.5-3.6,11.8-11.5c-3.1-2.3-5.8-4.7-7.5-7.6
			c0.9-3.1,2.5-6,4.8-8.7C93.1,79.7,92,79.6,90.9,79.4z"/>
		<path class="st17" d="M96.7,96.3c-3-2.2-5.6-4.7-7.5-7.6c0.9-3.2,2.5-6.1,4.8-8.7c3.8,1,6.9,2.8,8.9,6.1l-1,0.7
			c-2.2-0.5-4.4-0.8-6.5-0.6c-1,1.4-1.6,3-1.9,4.6C94.3,92.4,95.4,94.3,96.7,96.3z"/>
		<path class="st17" d="M109.4,89.5c-0.8-1.3-1.9-2.4-3.2-3.5c2.2-0.3,4.2-0.7,6-1.3c0.7,7.6-1,11.5-3.5,14
			C110.5,93.8,111.7,89.4,109.4,89.5z"/>
		<path class="st17" d="M95.2,80.3c0,0-0.2,3.8,0.6,4.6c1.5,0.9,7.2,1.1,7.2,1.1C101.3,83.3,98.6,81.4,95.2,80.3z"/>
		<path class="st17" d="M98.3,81.7c-0.6,1.3-0.7,2.5-0.4,3.9c1.1,0.2,2.2,0.3,3.3,0.4c0.3-0.6,0.2-1.3,0-2.1
			C100.4,83,99.4,82.3,98.3,81.7z"/>
		<path class="st17" d="M99.6,83.3c-0.4,0-0.6,0.4-0.6,1.6c0,0.6,0.1,0.9,0.6,0.9s0.7-0.3,0.7-0.9C100.2,83.9,100.1,83.3,99.6,83.3z
			"/>
		<path class="st17" d="M111.6,84.9c0.1,0.5-0.4,3.7-1.4,3.9l-1.7-0.4c-0.1-0.1-1.4-1.7-2.3-2.4C108,85.8,109.8,85.4,111.6,84.9z"/>
		<path class="st17" d="M109.4,88.6c0.6-0.9,0.8-2,0.6-3.3c-1.1,0.3-2.1,0.5-3.1,0.6c-0.1,0.2-0.2,0.5-0.1,0.7
			c0.6,0.5,1.1,1.1,1.7,1.8L109.4,88.6z"/>
		<path class="st17" d="M108.7,86c-0.3-0.1-0.7,0.5-0.7,0.8c0,0.2,0.1,1,0.1,1l0.5,0.6c0,0,0.4-0.7,0.4-1C109,87,109,86.1,108.7,86z
			"/>
		<path class="st17" d="M109.4,89.5c-0.9-1.3-2-2.5-3.2-3.5c-0.9-1.1-2-1.2-3.3,0l-1,0.7c-3.2,0.6-3.9,1.7-2.6,2.3
			c4.2-0.7,6.4,0.7,6.6,4.8C106.6,94.1,109.9,91.6,109.4,89.5z"/>
		<path class="st17" d="M99.2,89.1c0.3,5.5,2.1,8.6,5.7,8.6c-0.2-1.8-0.1-3.4,0.3-4.8l0.1-1.6C104.1,89,102.1,88.6,99.2,89.1z"/>
		<path class="st17" d="M100.8,88.9c-0.5,3.8,0.8,6.1,3.1,7.7l1.3-3.8l0.1-1.6C104.5,89.6,102.9,88.8,100.8,88.9z"/>
		<path class="st17" d="M105.2,92.8l0.1-1.6c-0.8-1.7-2.3-2.4-4.5-2.3c-0.2,1.3-0.1,2.6,0.2,3.8C102.3,92.4,103.7,92.4,105.2,92.8z"
			/>
		<path class="st17" d="M103.9,96.6c-1.7-1.2-2.5-2.5-2.9-3.9c1.6-0.3,3-0.3,4.2,0.1L103.9,96.6z"/>
		<path class="st17" d="M106.2,86c2-0.2,4-0.7,6-1.3c6.8-3,9.1-9.3,7.8-18.2c0.5-3,0.3-6-0.5-8.9c-1.5,5.9-3.4,11.3-6.6,15.4
			c0.1,3.5-1.6,6.7-4.8,9.8l-2.5,2.7C105.9,85.7,106.1,85.8,106.2,86z"/>
		<path class="st17" d="M114.9,54.7c1.4,2.7,2.4,5.7,2.8,9.1c-0.9,2.7-2,5-3.3,7.1l-0.5,0.8C113.6,65.3,113.8,59.5,114.9,54.7z"/>
		<path class="st17" d="M105.8,85.6l-0.9-0.4c4.2-18.1-1-22.4-12.2-17.8c-1.6-1.1-3.4-2-5.4-2.6c-2.8-3.6-3.8-7.6-4.2-11.7
			c-0.1-1.3,0-2.9,0.3-4.8c1.4,3,2.9,5.8,5.2,7.5c-1.9-9.4,2.2-16.5,9.3-22.3c-0.7,5.1-1,9.8-0.6,13.3c3.4,3.2,6.1,7,8.1,11.6
			c0-1.9,0.5-3.4,1.2-4.7c0.4,3,1.4,5.3,2.6,7.1l1.2-3l2.6,15.4C113,79,109,82.1,105.8,85.6z"/>
		<path class="st17" d="M79.9,42.1c4,3.8,6.6,8.5,8.7,13.5c-2.3-1.8-3.9-4.5-5.2-7.5c-0.3,1.6-0.4,3.2-0.3,4.6l-7.2-6.5
			c1.2-1.2,2.4-2.5,3.4-4L79.9,42.1z"/>
		<path class="st17" d="M104.9,85.1c4.3-17.9-0.9-22.4-12.2-17.8C85,71,80.6,76,76.7,81.2c14.9-11.2,29-22.5,27,4.2L104.9,85.1z"/>
		<path class="st17" d="M103.8,79.5c-0.3-6.8-2-11.3-7.3-10.4C99.9,71.4,102.4,74.8,103.8,79.5z"/>
		<path class="st17" d="M102.9,86l0.7-0.6l0.2-5.9c-1.4-4.6-3.8-8.1-7.3-10.4c-3.4,0.7-8.1,3.4-13.6,7.4c1.9,1.4,4.6,2.5,8,2.9
			C96.8,80,100.5,82.4,102.9,86z"/>
		<path class="st17" d="M92.6,67.3c-1.4-0.9-3.2-1.8-5.4-2.6c-3.5-1.2-7-4.9-10.5-12.6c-1.4,4.6-1.3,9.1,0.7,13.5l-5.2-3.8
			c1,5.9,4.4,10.2,9.1,13.7C84.2,72.4,88.3,69.3,92.6,67.3z"/>
		<path class="st17" d="M105.8,85.6l-0.9-0.4c2.9-4.2,4.4-8.8,5-13.6C110.6,76.5,109.7,81.2,105.8,85.6"/>
		<path class="st17" d="M13.8,98.3c0.1,4.2,1.2,7.1,4.1,7.7c1.1,2.2,2.8,3.6,5.9,3.4c-0.3,1.8,0.6,2.9,3.1,3.4
			c1.3,0.4,3.6,0.4,4.8,0.2c2.1-0.4,5.4-1.8,7.4-4.6c-2.9,4-5.6,7.9,0.5,7.8c3.6,0.5,6.9-1.5,10-4.6c-2.6,2.4-5.2,4.9-5.1,6.6
			c2.7,2.8,9.2,1.6,16.1-4.1c-2.5,2.4-5,4.7-5.1,6.4c1.7,1.9,6,1.3,11.5-0.4c4.3,0.4,7.2-0.8,9.5-2.6c-1.4,3.8-2.5,7.3-2.4,10.3
			c2.3,1.8,2.7,4.3,1,7.4l-0.2,2.7c0.2-0.5,0.7-0.8,1.5-0.7c0.2,0.5,0.2,1.1-0.2,1.7l1.8-1c-0.1-3.1,6.8-2.6,4.8,0.7
			c0.5,2.1-0.5,3.8-2.8,5.2c0.1-1.2,0-2-0.7-2.2l-3.5,1.4c-0.7,0.8-0.9,1.7-0.6,2.9c-0.1,0.6-0.6,1-1.3,1.2l-0.2,1.9
			c0.4,0.6,0.3,1.2,0,1.9l1.3-0.1c1.1,1.7,0.4,4.1-1.1,6.8c1.5-1.1,3-2.1,4.3-2.3c0.3,1.5,0.4,2.9,0,4.3c1.3-1.6,2.5-2.8,3.8-3.5
			c1,1.2,1.7,2.6,1.9,4.3c0.3-1.5,0.7-2.9,1.4-4c1.5,1,2.7,2.2,3.8,3.5c-0.4-1.4-0.6-2.7-0.7-3.9c0.6-1.5,2-2.8,3.7-4
			c3.9-3,8.4-7.4,13.2-12.2c8.3-8.6,9-19.5,6.3-31.4l-2.7-9.8c2.3-6.3,2.6-9.3,0.7-9.2c0.5,2.3-3.2,4.6-3.6,4.3c0-0.3,0-0.6-0.1-0.9
			c0,0-0.3-0.2-0.5-0.2c-0.4,1.6-0.5,3.2-0.3,4.8c-3.9,0-5.4-3.4-5.7-8.6C98,88,99.3,87,102,86.5c-2.6-0.5-4.9-0.8-6.5-0.6
			c-1,1.3-1.6,2.8-1.9,4.6c0.7,1.6,1.8,3.5,3.2,5.6c-1.3,8.4-5.8,11.4-11.8,11.5c-1.8-3.1-3.8-7.6-7.1-8.5
			c-30.8-5.4-29.9-6.9-43.4-29c-3.8,0-7.4-0.1-10.8-0.2c7.4,2.4,11.6,4.5,11.9,6.2c-6.6,6.8-16,7.9-22.4,3.3
			C10.2,85.2,11,98.9,13.8,98.3z"/>
		<path class="st17" d="M73.8,143.7c0.3-0.4,1.9-0.7,1.9-0.7l3.5-1.4c-1.1-4.3,2-5.6,3.5-3c2.2-3.1-4.7-4-4.8-0.7l-1.8,1
			c0,0-1.1,1-1.4,0.8c-0.4-0.2,0.1-1.8,0.1-1.8l0.2-2.7c1.6-3,1.3-5.5-1-7.4c-1.2,0.3-1.9,1-2.3,2c0.5-0.3,1-0.4,1.4-0.4
			c3.3,2,2.2,4.2-1.3,6.4c-0.4-0.3-0.7-0.5-0.8-0.7l-0.1,3.2c-0.1,0.4-0.4,0.6-0.9,0.7l-2.9-2c0.5-3.4-4.8-3.8-4.9-1.3
			c2.8,0.1,4.2,1.8,2.4,4.5c0.8,0.2,1.6,0.2,2.1,0c0.1,1.1,0.4,2,2.5,2.5c0.5,0.2,0.8,0.4,0.9,0.8l-0.2,3.7c1.3,1.2,2.2,2.3,2.3,3.4
			c-0.1,1.1-0.6,1.9-1.9,1.9c-0.8,0.1-1.4-0.3-2.1-0.7c0.1,1.3,3.6,3.5,5.3-0.8c0.3-0.8,0.3-1.4,0-1.9l0.2-1.9
			C73.7,147.1,73.3,144.4,73.8,143.7z"/>
		<path class="st17" d="M73.7,147.1c0.8-0.3,1.3-0.7,1.3-1.2c-0.3-1.1-0.1-2.1,0.6-2.9c0,0-1.6,0.3-1.9,0.7
			C73.3,144.4,73.7,147.1,73.7,147.1z"/>
		<path class="st17" d="M71,135.8c-1,0.5-1.6,1.3-1.9,2.5l1,0.7c0.5-0.1,0.8-0.3,0.9-0.7V135.8z"/>
		<path class="st17" d="M70.2,143.4c-0.1-0.4-0.5-0.7-0.9-0.8l-1-0.3c0,0.9,0.1,1.8,0.5,2.6c-0.2,0.1-0.5,0.1-0.9,0
			c0.5,0.8,2.1,2.3,2.1,2.3L70.2,143.4z"/>
		<path class="st17" d="M82.7,138.6c-1.4-2.3-4.4-1.6-3.5,3c0.6,0.1,0.8,0.9,0.7,2.2C82.5,142.3,83.1,140.5,82.7,138.6z"/>
		<path class="st17" d="M62.3,135.6c-2.2,2.3-1.9,4.7,0.1,7.1c0.4-1.7,1.1-2.9,2.3-2.6C66.7,137.3,64.8,135.7,62.3,135.6z"/>
		<path class="st17" d="M73.1,129.4c-0.5,0-1,0.2-1.4,0.4c-1.8,1.3-1.2,3.9-0.6,5.3c0.2,0.3,0.4,0.5,0.8,0.7
			C75.6,133.4,76.1,131.2,73.1,129.4z"/>
		<path class="st17" d="M68.2,151.7c-0.2-1.8,0.1-3.6,0.7-5.6c0.1,0.1,0.9,0.9,1,1c1.3,1.1,2.1,2.3,2.3,3.4
			C72.2,152.5,70,152.9,68.2,151.7z"/>
		<path class="st17" d="M105.2,139.8c3.4,2.5,5.5,5.6,4.8,10.1c0.8,0.3,1.4,0.7,1.9,1.4c-0.9,0.3-1.9,0.4-2.9,0.4
			c0.7,0.6,1.1,1.3,1.2,2.1c-1.2,0.1-2.2-0.3-3.2-0.8c0.6,0.6,1,1.2,0.9,1.9c-0.5,0.3-1,0.3-1.5,0.1c-0.2,0.8-0.2,1.7,0,2.6
			c-0.5-0.1-0.9-0.3-1.2-0.7c-0.4,0.4-0.6,1.1-0.7,1.9c-0.8-1.1-1.3-2.3-1.7-3.5c-8.4,2.4-6.8-2.4-10.8-3.4
			C96.7,148.1,101.2,144.1,105.2,139.8z"/>
		<path class="st17" d="M109,151.8c2.3,1.7,4.5,3.3,5.9,3.8c0.5-0.4,0.9-1,1-1.7v-1.5c-1.8-2.9,1.9-6,3.7-3.3
			c-0.7-0.2-1.6-0.4-2.2,0.1c-1,0.9-1,2.9-0.2,4.1c0.6,0.9,1.8,0.7,2.6,0.5c1-0.5,2-0.4,3.1,0.2c-0.7,0.6-1.2,1.4-1.6,2.2
			c2,1,5.1-0.3,5.8,1.2c-2.2,0.1-3.4,1-2.7,3.3c-1.1-0.1-2-0.5-2.3-1.3c-1-0.2-2.1,0-3.1,0.3c-1.5,1.1-2.5,2.4-3.1,4
			c0.3,0.5,0.5,1,0.3,1.3c-2.4-0.1-3,1.3-2.5,3.5c-1.7,0-2.8-1.5-3-4c0.4-0.8,0.9-1.4,1.6-1.5c0.6-1,0.9-2.1,1.2-3.3
			c-1-0.9-2.6-1.8-4.3-2.7c-1.6,0.8-2.4,0.6-2.9-0.3c0-0.4,0-0.9,0.1-1.4c0.6,0.2,1.1,0.1,1.5-0.1c0.1-0.5-0.2-1.2-0.9-1.9
			c1,0.6,2,0.9,3.2,0.8C110.1,153,109.6,152.3,109,151.8z"/>
		<path class="st17" d="M119.4,167c-1.7,0-2.8-0.7-3.2-2.2c-2.2,0-3,1.2-2.5,3.5C116.8,170,118.4,169,119.4,167z"/>
		<path class="st17" d="M127.1,157.1c-2.3,0.1-3.3,1.1-2.7,3.3c1.9,0.2,3,1.3,3.7,2.8C129.6,160.6,129.4,158.5,127.1,157.1z"/>
		<path class="st17" d="M119.6,148.9c0,0-1.5-0.5-2.2,0.1c-1,0.8-1,3.3-0.2,4.1c0.8,1.1,2.6,0.5,2.6,0.5c1-0.5,2-0.4,3.1,0.2
			C123,151.4,122,149.7,119.6,148.9z"/>
		<path class="st17" d="M120.9,149.6c0.9-3,2.6-4.1,5.4-2.8c-2.5,1.6-2.9,3.1-0.7,4.6c0.2,0.6-0.2,1-1.9,0.6l-0.9,1.7
			C123,151.8,122.4,150.4,120.9,149.6z"/>
		<path class="st17" d="M126.4,146.8c2.9,0.6,3.9,2.6,3.7,5.6c-1.1-1.4-2.6-1.7-4.4-1C123.4,149.8,124,148.3,126.4,146.8z"/>
		<path class="st17" d="M108.7,98.7c4.2,0.3,7.5-1.6,10.2-4.9c1-5.5,1-10.5-0.4-14.6c1.4-2.4,1.9-5,1.9-7.9
			c3.9-5.6,9.5-6.5,15.4-12.3c0.2,1,0.2,1.9,0,2.8c0.6,1.1,1,2.2,0.9,3.1c-7.1,5.9-12.1,10.6-11.6,12c0.8,8.7-0.2,16.5-3.3,23.3
			c-2.9,3.7-7.4,4.1-10.3,8.2L108.7,98.7z"/>
		<path class="st17" d="M221.9,48.7c-34.1-3.7-63.5-0.3-86.1,13.1c0.7,1.2,1,2.3,0.9,3.1C158.5,50,188.5,46.9,221.9,48.7z"/>
		<path class="st17" d="M125.1,76.9c7.7-4.5,15.2-8.2,21.7-9.6c2.8,1.1,4.5,2.8,4.8,5.3c-1.6,3-5.2,5.6-10.1,7.9
			c4.2-0.8,8.1-1.3,11.2-0.8c0.8,2.4,0.6,4.4-0.7,6.1c-3.8,2.2-10,4-16.9,5.5c5.7-0.2,11.3-0.3,13.4,0.5c0.6,2.3-0.3,4.3-2.7,6.2
			c-3,0.5-6.6,0.8-10.8,0.8c3.1,0.8,5.9,1.8,7.5,3.4c0.2,1.3-0.9,2.4-2.8,3.3c-4.4-0.2-8.7-0.9-13-2c2.5,1.3,4.7,2.6,6.1,4
			c-0.5,2.5-2.3,4.4-5.1,5.8c-1.1-0.5-2.1-1.1-3-1.8c0.7,0.9,1.3,1.8,1.2,2.4c-2.2,0.9-4.8,1.4-7.8,1.3c-0.1,1.2-0.6,2.3-2.2,3.1
			h-3.1c-0.2-3.4-0.6-6.7-1.4-10.1c1.8-3.1,7.8-4.9,10.3-8.2C124.9,92.7,126,84.9,125.1,76.9z"/>
		<path class="st17" d="M123.3,124.9"/>
		<path class="st17" d="M129.5,121"/>
		<path class="st17" d="M26.9,112.7c-1.3,10.3-9.1,18.8-20.2,26.5c11.7-4.5,20.7-12.5,25-26.3C30.1,113.2,28.5,113.1,26.9,112.7z"/>
		<path class="st17" d="M18.1,81.8c-0.6,0.8-3.2,4.7-0.4,9.8c2.4-3.7,5.5-7,9.5-9.5"/>
		<path class="st17" d="M19,89.7c-0.7,5.1,7.4,5.1,7.9,5c0.3-0.1,7.1-4.4,10.2-6.4"/>
		<path class="st17" d="M43.8,97.1c-3.5,1.5-6.6,2.8-10,4c-10.5,0.5-10.5-4.2-10.4-4.4c0.1-0.2,2.9-1.7,3.5-2"/>
		<path class="st17" d="M33.8,101.1c-0.7,0-2.3,1.7-2,2.3c1.7,2.6,10.5,1.9,13,1.5"/>
		<path class="st17" d="M52.9,101c-1-0.3-8.5,2.9-9.5,5.7c-0.3,0.8,1.5,2.1,1.9,2.3c0.9,0.7,3.5,0.9,5.7,0.5c1.6-0.2,6.4-2.5,10-5.6
			"/>
		<path class="st17" d="M57.3,106.6c-0.6,0.5-5.7,4.3-4.6,5.9c1.1,1.6,10.2,1.4,13.6-0.1c2.4-1.1,4.4-3.3,6.3-5.4"/>
		<path class="st17" d="M66.2,112.4c-1.5,3.9,6.5,1.1,7.4,1.1c5.3,0.3,9-2.5,9.2-2.9"/>
		<path class="st17" d="M66.8,120.1c0.3-1.1,4.7-3.9,6-5.3"/>
		<path class="st17" d="M76.4,117.5c0.7-0.6,1.1-0.8,1.8-1.4"/>
		<path class="st17" d="M23.8,109.3c1.9-0.4,6.4-2.9,8.3-5.4"/>
		<path class="st17" d="M17.9,106c0.1-0.4,3.6-7,5.5-9.3"/>
		<path class="st17" d="M13.8,98.3c-0.2-1.3,1.9-7.9,2.7-10"/>
		<path class="st17" d="M76,132c3.6-0.7,7.8,1.5,9,5.2"/>
		<path class="st17" d="M74.9,150.8c5.2,1.1,11-3.9,10.6-8.8"/>
		<path class="st17" d="M85.3,192.1c1.5-10,2.3-32.4,1.9-33.9"/>
		<path class="st17" d="M73.1,196.7c0.1-1.1,1.5-6.1,2.2-7.5"/>
		<path class="st17" d="M61,192.7c-0.1-0.9,0.2-1.7,0.5-2.6c0.7-1.7,14.3-27.3,16.6-30.4"/>
		<path class="st17" d="M119.5,153.7c-0.7,0.7-1.2,1.5-1.6,2.4"/>
		<path class="st17" d="M118.1,115.4c-0.5-0.6-3.9-4.7-3.9-4.7"/>
		<path class="st17" d="M119.1,107.5c0,0,4.6,3.9,5.5,4.2"/>
		<path class="st17" d="M132.4,98.1c0,0,1.9,0.6,2.6,0.7"/>
		<path class="st17" d="M132.2,91.3c0,0,1.8,0,2.8,0"/>
		<path class="st17" d="M133,82.6c0,0,6.8-1.9,8.5-2.1"/>
		<path class="st17" d="M135.8,61.7c-1.3,0.7-3,3.1-3,3.1"/>
		<path class="st17" d="M151.1,71c4.7-1.8,26.3-5.2,31.7-6.3"/>
		<path class="st17" d="M130.8,111.3c0,0,3.1,2,3.8,2.5"/>
		<path class="st17" d="M124.2,114.9c0.6,0.6,4.1,4.6,5.3,6.1"/>
		<path class="st17" d="M117.7,118.8c0,0,1.8,2.8,1.9,3"/>
		<path class="st17" d="M114,120c0.1,0.8,1,5.3,1.1,5.9"/>
		<path class="st17" d="M114.5,74.8c1.1,0.1,5.2-5.7,5.5-8.3"/>
		<path class="st17" d="M109.8,63.2c-0.1-0.9-0.5-1.6-0.6-2.5"/>
		<path class="st17" d="M101,57.6c-0.4-0.5-3.6-7.5-3.8-10.9"/>
		<path class="st17" d="M92.2,60.6c-0.5-1-3.6-5-3.6-5"/>
		<path class="st17" d="M77.4,65.7c0.8,1.6,7.9,3,7.9,3"/>
		<path class="st17" d="M11.3,52.8c0.2-0.5,1.2-1.6,1.7-2"/>
		<path class="st17" d="M73.6,113.5c2.3-1.4,4.3-3.1,6.3-5"/>
		<path class="st17" d="M23.6,69.9c-1.4-0.3-2.6-0.1-3.2,0"/>
		<path class="st17" d="M88.4,98.9c0,0-0.7-1.2-0.8-1.3c-0.8-0.8-2.5-2.7-3.3-3.5"/>
		<path class="st17" d="M118.9,93.8c0,0,1.7-1.4,2.2-1.6"/>
		<path class="st17" d="M76.3,137.2c-0.6-0.1-1.1,0.1-1.5,0.7c-0.3,1-0.3,1.6-0.1,1.8c0.2,0.1,0.7-0.2,1.4-0.8
			C76.5,138.3,76.5,137.8,76.3,137.2z"/>
		<line class="st17" x1="166.3" y1="85.1" x2="153.1" y2="83.2"/>
		<line class="st17" x1="159" y1="99.6" x2="147.8" y2="95.8"/>
		<line class="st17" x1="146.5" y1="109.2" x2="140.8" y2="104.9"/>
	</g>
</g>
<g>
	<g>
		<path class="st18" d="M-227.9,101.5c0.1,4.2,1.2,7.1,4.1,7.7c1.1,2.2,2.8,3.6,5.9,3.4c-0.3,1.8,0.6,2.9,3.1,3.4
			c1.3,0.4,3.6,0.4,4.8,0.2c2.1-0.4,5.3-1.8,7.4-4.6c-2.9,4-5.6,7.8,0.5,7.8c3.6,0.5,6.9-1.5,9.9-4.6c-2.6,2.4-5.2,4.9-5.1,6.6
			c2.7,2.7,9.2,1.6,16.1-4.1c-2.5,2.4-5,4.7-5.1,6.4c1.7,1.9,6,1.3,11.4-0.4c4.3,0.4,7.2-0.8,9.5-2.6c-1.4,3.8-2.5,7.3-2.4,10.3
			c2.3,1.8,2.7,4.3,1,7.4l-0.2,2.7c0.2-0.5,0.7-0.8,1.5-0.7c0.2,0.5,0.2,1.1-0.2,1.7l1.8-1c-0.1-3.1,6.8-2.6,4.8,0.7
			c0.5,2.1-0.4,3.8-2.8,5.2c0.1-1.2,0-2-0.7-2.2l-3.5,1.4c-0.7,0.8-0.9,1.7-0.6,2.9c-0.1,0.6-0.6,1-1.3,1.2l-0.2,1.9
			c0.4,0.6,0.3,1.2,0,1.9l1.3-0.1c1.1,1.7,0.4,4.1-1.1,6.8c1.5-1.1,3-2.1,4.3-2.3c0.3,1.5,0.4,2.9,0,4.3c1.3-1.6,2.5-2.8,3.8-3.5
			c1,1.2,1.7,2.6,1.9,4.2c0.3-1.5,0.7-2.9,1.4-4c1.5,1,2.7,2.2,3.8,3.5c-0.4-1.4-0.6-2.7-0.7-3.9c0.6-1.5,2-2.8,3.7-4
			c3.9-3,8.4-7.4,13.2-12.2c8.3-8.6,8.9-19.5,6.3-31.3l-2.7-9.7c2.3-6.3,2.5-9.3,0.7-9.2c0.5,2.3-3.2,4.6-3.6,4.3
			c0-0.3,0-0.6-0.1-0.9c0,0-0.3-0.2-0.5-0.2c-0.4,1.6-0.5,3.2-0.3,4.8c-3.9,0-5.4-3.4-5.6-8.5c-1.4-0.8-0.1-1.8,2.6-2.3
			c-2.6-0.5-4.9-0.8-6.5-0.6c-1,1.3-1.6,2.8-1.9,4.6c0.7,1.6,1.8,3.5,3.2,5.6c-1.3,8.4-5.7,11.3-11.8,11.5c-1.8-3.1-3.8-7.6-7-8.5
			c-30.7-5.5-29.8-7.1-43.3-29.1c-3.8,0-7.4-0.1-10.8-0.2c7.4,2.4,11.6,4.5,11.9,6.2c-6.6,6.8-15.9,7.9-22.4,3.3
			C-231.6,88.4-230.7,102.1-227.9,101.5z"/>
		<path class="st19" d="M-168.1,160.8c-9.1,9.5-17.3,19.4-24.7,29.5c1.4,2.4,5,4.3,11.8,5.5c0.6,2.4,5.2,3.6,12.2,4
			c1.1,0.9,3.7,1.4,10.7,0.8c1.1-0.1,1.2-2.9,1.5-5.5c0,1.6,0,3.1,0.4,4c8.9-0.3,15-2.3,17.7-6.1c-4.2-10.5-9-20.6-14.5-29.9
			c-1.2-1.4-2.5-2.6-3.8-3.5c-0.6,1.1-1.1,2.5-1.4,4c-0.2-1.6-0.8-3.1-1.9-4.2c-1.3,0.8-2.6,2-3.8,3.5c0.4-1.4,0.4-2.9,0-4.3
			C-165.2,158.9-166.6,159.6-168.1,160.8z"/>
		<path class="st18" d="M-129.7,130c1.2,0.9,2.2,0.8,3-0.9c0.7,2.4,2.5,2.2,5.1,0.5c0.7-0.6,0-2.6-0.7-4.5c0.8,1.7,1.9,3,3.7,3
			c2.9-0.1,5.2-0.7,6.7-2.1c0.3-0.6,0-1.2-0.5-1.8c3.8,0.6,7.2,0.4,9.9-1.3c0.5-1.8-2-3.8-4.9-5.9c3.1,2.3,6.1,4.2,8.9,4
			c4-0.1,6.7-1.1,7.8-3.3c0-1.3-2.6-3.3-4.9-5.3c8.4,4.1,16.5,8.4,24.4,13.2c1.1-2.3,0.7-6.4,0.1-10.6c-1.4-5.6-6.3-9.1-12-12.1
			c9.8,1.5,18.8,4.2,26.9,8.6c2.6-4,2.4-8.6,0.4-13.7c-4.9-4.3-11.8-7.3-20-9.5c14.6,2,28.3,3.7,37.7,4.9c2.4-7.8,2.3-15.4,0.4-22.7
			C-43.1,68.4-51,68-59.5,68c9.6-1.1,18.3-2.6,25-5c5.4-2.6,10-6.6,14.2-11c-35.5-2.2-64.6,2.5-85.1,16.2
			c-6.4,5.5-12.1,10.5-11.6,12c0.8,8.3-0.1,16.1-3.3,23.3c-2.9,3.5-7.7,4.6-10.3,8.2C-129,117.8-128.5,123.9-129.7,130z"/>
		<path class="st0" d="M-219.3,62.1c15.5-22.5,47.9-37.3,66-36.7c-4.7,11.7-17,19.3-37.2,22.8C-200.4,51.5-210,56.3-219.3,62.1z"/>
		<path class="st0" d="M-221.6,66.2c7-3.7,15.9-5.3,26.7-4.7c12.1-3.5,24.7-6.9,28.9-11.9c1.3-1.3,2.5-2.6,3.4-4
			c-9.8-0.5-19,0.5-27.8,2.6c-10,3.4-19.6,8.1-28.9,14L-221.6,66.2z"/>
		<path class="st19" d="M-182,32.5c-8.8-4.3-19.4-4.5-30.3-2.5l11.4,3.1c-12.1-1.4-23.6,3.6-34.8,12.2l11.2-1.2
			c-8.9,5.8-12.5,13.2-12.6,21.7l6.7-9.7c-2.3,7.2-1.6,14.8,0.5,22.7L-228,67l1.1,11.4c2.2-5.1,4.3-9.9,6-13.6
			c1.2-15.3,10.2-23.3,25.5-25C-191.2,37-186.8,34.6-182,32.5z"/>
		<path class="st20" d="M-195.4,39.8c2.4-1.6,5-3,7.6-4.4c-27.3,0.5-39.1,11.7-35.1,33.8l2-4.3C-219.9,50.6-212,41.8-195.4,39.8z"/>
		<path class="st3" d="M-217,73.2"/>
		<path class="st0" d="M-228.6,82.5c6.5,5.1,17.1,3,22.4-3.3c-0.4-2.2-6.5-4.3-11.9-6.2c9,0.4,18.1,0.3,27.2-0.4
			c5.5-1.5,8.8-3.9,9.9-7.4c-0.6-2-5.9-3.2-13.9-3.9c-10.2-0.6-19.2,0.8-26.7,4.7L-228.6,82.5z"/>
		<path class="st21" d="M-228.6,82.5c6.1,5.2,18.4,2.3,22.4-3.3c-0.4-1.6-3.5-3.1-7.1-4.5c-4.8,1.5-8.7,3.6-11.7,6.5
			c-1-0.1-1.9-0.5-2.5-1.5L-228.6,82.5z"/>
		<path class="st21" d="M-217,73.2c8.8,0.4,17.5,0.3,26.2-0.4c6-1.6,9-4.2,9.9-7.4c-0.5-1.8-5.1-2.9-11.1-3.7
			c-5.4,2.3-10.2,5.6-14.3,9.5C-210.5,71.8-214,72.5-217,73.2z"/>
		<path class="st21" d="M-203,61.4l8.1,0.1c18.4-5.2,26.3-7.1,32.3-15.9c-5.4-0.3-10.9,0-16.6,0.6c-4,3.3-7.3,6.6-9.8,9.9
			C-192.8,57.3-197.7,59.2-203,61.4z"/>
		<path class="st21" d="M-190.4,48.1c17.4-3.1,31.6-9.4,37.2-22.8c-4.2,0-8.4,0.5-12.5,1.5C-169.9,34.5-179.1,41.5-190.4,48.1z"/>
		<path class="st19" d="M-172.4,45.6c3.2-0.2,6.5-0.2,9.9,0l0.6-0.2l-5.3-4.9c-0.2,0.4-7.6,3.7-8,3.7L-172.4,45.6z"/>
		<path class="st20" d="M-172.4,45.6c2-0.1,4-0.2,6.1-0.1c-1.1-1.4-2.6-2.5-4.1-3.3c-2.1,1-4.5,2-4.7,2L-172.4,45.6z"/>
		<path class="st22" d="M-151,82.6c-3.1,4.4-1.9,8.1-6.5,14.6c0,0-5-2.7-6.8-2.6c-18.2-1.2-26.8-2.8-37.9-21.4l-5.1,0.1
			c12.9,22.6,15.6,24.4,43.3,29.1c3.4,0.7,7,8.5,7,8.5c6.4-0.1,10.5-3.6,11.8-11.5c-3.1-2.3-5.8-4.7-7.5-7.6c0.9-3.1,2.5-6,4.8-8.7
			C-148.8,82.9-149.8,82.8-151,82.6z"/>
		<path class="st23" d="M-202.8,80.9c9.6,15.6,14.6,17.5,38.9,21.6c3.4,0.7,7,8.5,7,8.5c1.2,0,2.3-0.2,3.4-0.4
			c-1.8-3.5-5.5-9.1-9.3-10C-188.3,96.6-188.8,96.1-202.8,80.9z"/>
		<path class="st7" d="M-145.2,99.5c-3-2.2-5.6-4.7-7.5-7.6c0.9-3.2,2.5-6.1,4.8-8.7c3.8,1,6.9,2.8,8.9,6l-1,0.7
			c-2.2-0.5-4.4-0.8-6.5-0.6c-1,1.4-1.6,3-1.9,4.6C-147.6,95.6-146.5,97.5-145.2,99.5z"/>
		<path class="st7" d="M-132.5,92.7c-0.8-1.3-1.9-2.4-3.2-3.5c2.2-0.3,4.2-0.7,6-1.3c0.7,7.6-1,11.5-3.5,14
			C-131.4,97-130.1,92.6-132.5,92.7z"/>
		<path class="st8" d="M-146.6,83.5c0,0-0.2,3.7,0.6,4.6c1.5,0.9,7.1,1.1,7.1,1.1C-140.5,86.5-143.2,84.6-146.6,83.5z"/>
		<path class="st19" d="M-143.5,84.9c-0.6,1.3-0.7,2.5-0.4,3.9c1.1,0.2,2.2,0.3,3.3,0.4c0.3-0.6,0.2-1.3,0-2.1
			C-141.5,86.2-142.4,85.5-143.5,84.9z"/>
		<path class="st8" d="M-142.2,86.5c-0.4,0-0.6,0.4-0.6,1.6c0,0.6,0.1,0.9,0.6,0.9s0.7-0.3,0.7-0.9
			C-141.6,87.1-141.8,86.5-142.2,86.5z"/>
		<path class="st8" d="M-130.3,88.1c0.1,0.5-0.4,3.7-1.4,3.9l-1.7-0.4c-0.1-0.1-1.4-1.7-2.3-2.4C-133.9,89-132.1,88.6-130.3,88.1z"
			/>
		<path class="st19" d="M-132.4,91.8c0.6-0.9,0.8-2,0.6-3.3c-1.1,0.3-2.1,0.5-3.1,0.6c-0.1,0.2-0.2,0.5-0.1,0.7
			c0.6,0.5,1.1,1.1,1.6,1.8L-132.4,91.8z"/>
		<path class="st8" d="M-133.2,89.2c-0.3-0.1-0.7,0.5-0.7,0.8c0,0.2,0.1,1,0.1,1l0.5,0.6c0,0,0.4-0.7,0.4-1
			C-132.8,90.2-132.8,89.3-133.2,89.2z"/>
		<path class="st24" d="M-132.5,92.7c-0.9-1.3-2-2.5-3.2-3.5c-0.9-1.1-2-1.2-3.3,0l-1,0.7c-3.2,0.6-3.9,1.7-2.6,2.3
			c4.2-0.7,6.4,0.7,6.6,4.8C-135.3,97.3-131.9,94.8-132.5,92.7z"/>
		<path class="st25" d="M-142.6,92.3c0.2,5.4,1.9,8.6,5.6,8.5c-0.2-1.8-0.1-3.4,0.3-4.8l0.1-1.6C-137.7,92.2-139.8,91.8-142.6,92.3z
			"/>
		<path class="st11" d="M-136.7,96l0.1-1.6c-0.8-1.7-2.3-2.4-4.5-2.3c-0.2,1.3-0.1,2.6,0.2,3.8C-139.5,95.6-138.1,95.6-136.7,96z"/>
		<path class="st12" d="M-138,99.8c-1.7-1.2-2.5-2.5-2.9-3.9c1.6-0.3,2.9-0.3,4.2,0.1L-138,99.8z"/>
		<path class="st19" d="M-135.6,89.2c2-0.2,4-0.7,6-1.3c6.8-3,9.1-9.3,7.8-18.2c0.5-3,0.3-5.9-0.5-8.8c-1.5,5.9-3.4,11.3-6.6,15.4
			c0.1,3.4-1.6,6.7-4.8,9.8l-2.5,2.7C-135.9,88.9-135.8,89-135.6,89.2z"/>
		<path class="st20" d="M-135.6,89.2c2-0.2,4-0.7,6-1.3c1-0.4,1.9-1,2.7-1.5c-2,0.6-4.3,1.6-5.2,0.6c2.5-1.9,5.6-7.7,4.7-12.8
			c-0.5,0.7-0.9,1.4-1.5,2.1c0.1,3.4-1.6,6.7-4.8,9.8l-2.5,2.7C-135.9,88.9-135.8,89-135.6,89.2z"/>
		<path class="st20" d="M-126.9,58c1.4,2.7,2.4,5.7,2.8,9.1c-0.9,2.6-2,5-3.3,7.1l-0.5,0.8C-128.3,68.5-128,62.8-126.9,58z"/>
		<path class="st26" d="M-136.1,88.8l-0.9-0.4c4.2-18-1-22.4-12.2-17.8c-1.6-1.1-3.4-2-5.4-2.6c-2.8-3.6-3.8-7.6-4.2-11.7
			c-0.1-1.3,0-2.9,0.3-4.8c1.4,3,2.9,5.8,5.2,7.5c-1.9-9.4,2.2-16.4,9.3-22.2c-0.7,5.1-1,9.8-0.6,13.3c3.4,3.2,6.1,7,8.1,11.6
			c0-1.9,0.5-3.4,1.2-4.7c0.4,3,1.3,5.3,2.6,7.1l1.2-3l2.6,15.3C-128.9,82.2-132.8,85.3-136.1,88.8z"/>
		<path class="st19" d="M-161.9,45.4c4,3.8,6.6,8.5,8.7,13.5c-2.3-1.8-3.9-4.5-5.2-7.5c-0.3,1.6-0.4,3.2-0.3,4.6l-7.2-6.5
			c1.2-1.2,2.4-2.5,3.4-4L-161.9,45.4z"/>
		<path class="st20" d="M-158.7,52.9c0,0-0.2,2.1-0.1,3.1l-7.2-6.5c0.8-0.8,2.2-2.4,2.2-2.4C-161.8,48.8-160.2,50.7-158.7,52.9z"/>
		<path class="st19" d="M-137,88.3c4.3-17.9-0.9-22.3-12.2-17.8c-7.7,3.6-12.1,8.7-16,13.9c14.9-11.1,29-22.4,27,4.2L-137,88.3z"/>
		<path class="st27" d="M-138,82.7c-0.3-6.7-2-11.3-7.3-10.4C-141.9,74.6-139.5,78-138,82.7z"/>
		<path class="st26" d="M-138.9,89.2l0.7-0.6l0.2-5.9c-1.4-4.6-3.7-8.1-7.3-10.4c-3.4,0.7-8.1,3.4-13.6,7.4c1.9,1.4,4.6,2.5,8,2.8
			C-145,83.2-141.3,85.6-138.9,89.2z"/>
		<path class="st26" d="M-149.2,70.6c-1.4-0.9-3.2-1.8-5.4-2.6c-3.5-1.2-7-4.9-10.5-12.6c-1.4,4.6-1.3,9.1,0.7,13.5l-5.2-3.8
			c1,5.9,4.4,10.2,9.1,13.7C-157.6,75.6-153.5,72.5-149.2,70.6z"/>
		<path class="st23" d="M-149,82.9c-3.9,5.3-6,11.1-5.3,17.8l-3.3-3.5c4.7-6.6,3.3-9.6,6.5-14.6L-149,82.9z"/>
		<path class="st27" d="M-136.1,88.8l-0.9-0.4c2.9-4.2,4.4-8.8,4.9-13.6C-131.2,79.7-132.2,84.4-136.1,88.8"/>
		<path class="st27" d="M-138.2,88.6c-2.7-6.2-4-9.4-18.6-10.4l-2.1,1.6c2.1,1.4,4.6,2.5,8,2.8l2,0.3l1.1,0.2c3.9,1.1,7,2.9,8.9,6
			L-138.2,88.6z"/>
		<path class="st27" d="M-160.5,78.8l1.5-1.6c-4.5-3.3-8-7.4-10.6-12.2C-168.8,69.8-166.2,74.4-160.5,78.8z"/>
		<path class="st27" d="M-149.2,70.6c-1.5-1-3.4-1.9-5.4-2.6c-2.4-2.7-3.6-6.8-4.2-11.7c-0.1-0.9-0.1-2.1,0.1-3.3l0.2-1.5
			c1.6,7.8,4.2,14.8,11.3,18.3L-149.2,70.6z"/>
		<path class="st27" d="M-132.8,70.6c-1-3.5-2.2-6.6-3.7-9c0.1-2.2,0.6-3.6,1.2-4.7C-135.6,63.5-131.7,64.3-132.8,70.6z"/>
		<path class="st28" d="M-202.2,119.3c2.4,0.2,5.4,0,9.9-4.6c-2,2-5.1,4.4-5.1,6.6c2.7,2.7,9.2,1.6,16.1-4.1c-2.5,2.4-5,4.7-5.1,6.4
			c1.7,1.9,6,1.3,11.4-0.4c4.3,0.4,7.2-0.8,9.5-2.6c-1.7,4-2.7,10.5-2.4,10.3c6.1-6.8,11.1-13.6,14.3-20.4c0,0-2.2,0.4-3.4,0.4
			c-1.8-3.1-3.8-7.6-7-8.5c-23-3.9-29.3-6.3-36.9-18.6c0.1,10.7,3.1,21,10.1,28.9c-2.2,0.3-4.6,0.2-5.7-0.5
			C-196,115-198.1,117.3-202.2,119.3z"/>
		<path class="st28" d="M-166.1,146.1c-0.7,0.8-0.9,1.7-0.6,2.9c-0.1,0.6-0.6,1-1.3,1.2l-0.2,1.9c0.4,0.6,0.3,1.2,0,1.9l1.3-0.1
			c1.1,1.7,0.4,4.1-1.1,6.8c1.5-1.1,3-2.1,4.3-2.3c0.3,1.5,0.4,2.9,0,4.3c1.3-1.6,2.5-2.8,3.8-3.5c1,1.2,1.7,2.6,1.9,4.2
			c0.3-1.5,0.7-2.9,1.4-4c1.5,1,2.7,2.2,3.8,3.5c-0.4-1.4-0.6-2.7-0.7-3.9c0.6-1.5,2-2.8,3.7-4c3.9-3,8.4-7.4,13.2-12.2
			c3.7-3.2,6.9-11.1,6.6-11.3c-6.2,12.2-14.5,18-26.2,13.5C-159.6,148.7-162.9,148.9-166.1,146.1z"/>
		<path class="st20" d="M-168.1,160.8c-2.8,2.9-5.5,5.9-8.2,8.9c5.8,8.6,21.4,9.7,28.5,2.8c-1.6-3.2-3.4-6.3-5.2-9.4
			c-1.2-1.4-2.5-2.6-3.8-3.5c-0.6,1.1-1.1,2.5-1.4,4c-0.2-1.6-0.8-3.1-1.9-4.2c-1.3,0.8-2.6,2-3.8,3.5c0.4-1.4,0.4-2.9,0-4.3
			C-165.2,158.9-166.6,159.6-168.1,160.8z"/>
		<path class="st21" d="M-189.7,186.2c-1,1.4-2,2.7-3,4.1c1.4,2.4,5,4.3,11.8,5.5c0.6,2.4,5.2,3.6,12.2,4c1.1,0.9,3.7,1.4,10.7,0.8
			c1.1-0.1,1.2-2.9,1.5-5.5c0,1.6,0,3.1,0.4,4c8.9-0.3,15-2.3,17.7-6.1c-0.7-1.7-1.3-3.3-2-4.9c-5.7-0.4-15.9,4.8-15.9,4.8
			c-7.4-2.3-14.9-3.5-22.4-3.2C-178.7,189.8-186.3,185.6-189.7,186.2z"/>
		<path class="st24" d="M-167.9,146.8c0.3-0.4,1.9-0.7,1.9-0.7l3.5-1.4c-1.1-4.3,2-5.5,3.5-3c2.2-3.1-4.7-4-4.8-0.7l-1.8,1
			c0,0-1.1,1-1.4,0.8c-0.4-0.2,0.1-1.8,0.1-1.8l0.2-2.7c1.6-3,1.3-5.5-1-7.4c-1.2,0.3-1.9,1-2.3,2c0.5-0.3,1-0.4,1.4-0.4
			c3.3,2,2.2,4.2-1.3,6.4c-0.4-0.3-0.7-0.5-0.8-0.7l-0.1,3.2c-0.1,0.4-0.4,0.6-0.9,0.7l-2.8-2c0.5-3.3-4.8-3.8-4.9-1.3
			c2.8,0.1,4.2,1.8,2.4,4.5c0.8,0.2,1.6,0.2,2.1,0c0.1,1.1,0.4,2,2.5,2.5c0.5,0.2,0.8,0.4,0.9,0.8l-0.2,3.7c1.3,1.2,2.2,2.3,2.3,3.4
			c-0.1,1.1-0.5,1.9-1.9,1.9c-0.8,0.1-1.4-0.3-2.1-0.7c0.1,1.3,3.6,3.5,5.3-0.8c0.3-0.8,0.3-1.4,0-1.9l0.2-1.9
			C-168.1,150.2-168.5,147.5-167.9,146.8z"/>
		<path class="st28" d="M-168.1,150.2c0.8-0.3,1.3-0.7,1.3-1.2c-0.3-1.1-0.1-2.1,0.6-2.9c0,0-1.6,0.3-1.9,0.7
			C-168.5,147.5-168.1,150.2-168.1,150.2z"/>
		<path class="st28" d="M-170.8,139c-1,0.4-1.6,1.3-1.9,2.4l1,0.7c0.5-0.1,0.8-0.3,0.9-0.7V139z"/>
		<path class="st28" d="M-171.6,146.6c-0.1-0.4-0.5-0.7-0.9-0.8l-0.9-0.3c0,0.9,0.1,1.8,0.5,2.6c-0.2,0.1-0.5,0.1-0.9,0
			c0.5,0.8,2.1,2.3,2.1,2.3L-171.6,146.6z"/>
		<path class="st8" d="M-159.1,141.7c-1.4-2.3-4.4-1.6-3.5,3c0.6,0.1,0.8,0.9,0.7,2.2C-159.3,145.4-158.7,143.7-159.1,141.7z"/>
		<path class="st8" d="M-179.5,138.7c-2.2,2.3-1.9,4.7,0.1,7.1c0.4-1.7,1.1-2.8,2.3-2.6C-175.1,140.5-177,138.8-179.5,138.7z"/>
		<path class="st8" d="M-168.7,132.5c-0.5,0-1,0.2-1.4,0.4c-1.8,1.3-1.2,3.9-0.6,5.3c0.2,0.3,0.4,0.5,0.8,0.7
			C-166.2,136.5-165.7,134.3-168.7,132.5z"/>
		<path class="st8" d="M-173.5,154.8c-0.2-1.8,0.1-3.6,0.7-5.6c0.1,0.1,0.9,0.9,1,1c1.3,1.1,2.1,2.3,2.3,3.4
			C-169.6,155.6-171.7,156.1-173.5,154.8z"/>
		<path class="st29" d="M-175,143.2c2.5,1.8,3,0.7,4.4,1.9c0.4,1.9,0.7,4.2-1.2,5.1l0.2-3.7c-0.2-0.4-0.5-0.7-0.9-0.8
			s-0.7-0.2-0.9-0.3C-174.5,145.1-174.9,144.3-175,143.2z"/>
		<path class="st29" d="M-167.9,146.8c-0.6-0.8-0.7,3.4-1.6,6.8c0,1.8-2,2.5-4,1.2c0.9,2.4,4.2,2.4,5.3-0.8c0.3-0.7,0.3-1.3,0-1.9
			l0.2-1.9C-168.2,148.8-168.3,147.4-167.9,146.8z"/>
		<path class="st29" d="M-170.8,141.4l0.1-3.2c0.1,0.2,0.4,0.5,0.8,0.7c1.7-1.2,3-2.3,3.2-3.5c0.5,1.1,0.7,2.2-2.2,3.8
			C-169.2,141.1-169.8,141.9-170.8,141.4z"/>
		<path class="st18" d="M-136.7,143c3.4,2.5,5.5,5.6,4.8,10.1c0.8,0.3,1.4,0.7,1.9,1.4c-0.9,0.3-1.9,0.4-2.9,0.4
			c0.7,0.6,1.1,1.3,1.2,2.1c-1.2,0.1-2.2-0.3-3.2-0.8c0.6,0.6,1,1.2,0.9,1.9c-0.5,0.3-1,0.3-1.5,0.1c-0.2,0.8-0.2,1.7,0,2.6
			c-0.5-0.1-0.9-0.3-1.2-0.7c-0.4,0.4-0.6,1.1-0.7,1.9c-0.8-1.1-1.3-2.3-1.7-3.5c-8.4,2.4-6.7-2.4-10.8-3.4
			C-145.1,151.3-140.7,147.2-136.7,143z"/>
		<path class="st24" d="M-132.9,154.9c2.3,1.7,4.5,3.3,5.9,3.7c0.5-0.4,0.8-0.9,1-1.7v-1.5c-1.8-2.9,1.9-6,3.7-3.3
			c-0.7-0.2-1.6-0.4-2.1,0.1c-1,0.9-1,2.9-0.2,4.1c0.6,0.9,1.8,0.7,2.6,0.5c1-0.5,2-0.4,3.1,0.2c-0.7,0.6-1.2,1.4-1.6,2.2
			c2,1,5.1-0.3,5.8,1.2c-2.2,0.1-3.4,1-2.7,3.3c-1.1-0.1-2-0.5-2.3-1.3c-1-0.2-2.1,0-3.1,0.3c-1.5,1.1-2.5,2.4-3.1,4
			c0.3,0.5,0.5,1,0.3,1.3c-2.4-0.1-3,1.3-2.5,3.5c-1.7,0-2.8-1.5-3-4c0.4-0.8,0.9-1.4,1.6-1.5c0.6-1,0.9-2.1,1.2-3.3
			c-1-0.9-2.6-1.8-4.3-2.7c-1.6,0.8-2.4,0.6-2.9-0.3c0-0.4,0-0.9,0.1-1.4c0.6,0.2,1.1,0.1,1.5-0.1c0.1-0.5-0.2-1.2-0.9-1.9
			c1,0.6,2,0.9,3.2,0.8C-131.8,156.1-132.3,155.4-132.9,154.9z"/>
		<path class="st29" d="M-122.9,162.6c-1.5,1.1-2.5,2.4-3.1,4c0.3,0.5,0.5,1,0.3,1.3c-2.4-0.1-3,1.3-2.5,3.5c-1.7,0-2.8-1.5-3-4
			c0.4-0.8,0.9-1.4,1.6-1.5c0.6-1,0.9-2.1,1.2-3.3c-1-0.9-2.6-1.8-4.3-2.7c-1.6,0.8-2.4,0.6-2.9-0.3c0-0.4,0-0.9,0.1-1.4
			c0.6,0.2,1.1,0.1,1.5-0.1C-126.9,161.4-127.5,163-122.9,162.6z"/>
		<path class="st8" d="M-122.5,170.1c-1.7,0-2.8-0.7-3.2-2.1c-2.2,0-3,1.2-2.5,3.5C-125.1,173.1-123.5,172.1-122.5,170.1z"/>
		<path class="st8" d="M-114.8,160.2c-2.3,0.1-3.3,1.1-2.7,3.3c1.9,0.2,3,1.3,3.7,2.8C-112.3,163.7-112.5,161.6-114.8,160.2z"/>
		<path class="st8" d="M-122.3,152.1c0,0-1.5-0.5-2.1,0.1c-1,0.8-1,3.3-0.2,4.1c0.8,1.1,2.6,0.5,2.6,0.5c1-0.5,2-0.4,3.1,0.2
			C-118.8,154.5-119.8,152.9-122.3,152.1z"/>
		<path class="st24" d="M-120.9,152.7c0.9-3,2.6-4.1,5.4-2.8c-2.5,1.6-2.9,3.1-0.7,4.6c0.2,0.6-0.2,1-1.9,0.6l-0.9,1.7
			C-118.9,155-119.5,153.5-120.9,152.7z"/>
		<path class="st8" d="M-115.5,149.9c2.9,0.6,3.9,2.6,3.7,5.6c-1.1-1.4-2.6-1.7-4.4-1C-118.5,152.9-117.8,151.4-115.5,149.9z"/>
		<path class="st22" d="M-133.1,101.9c4.2,0.3,7.5-1.6,10.2-4.9c1-5.5,1-10.5-0.4-14.6c1.4-2.4,1.9-5,1.9-7.9
			c3.9-5.6,9.5-6.5,15.4-12.3c0.2,1,0.2,1.9,0,2.8c0.6,1.1,1,2.2,0.9,3.1c-7.1,5.9-12.1,10.6-11.6,12c0.8,8.7-0.2,16.4-3.3,23.3
			c-2.9,3.6-7.4,4.1-10.3,8.2L-133.1,101.9z"/>
		<path class="st18" d="M-20.1,52c-34.1-3.7-63.4-0.3-86,13.1c0.7,1.2,1,2.3,0.9,3.1C-83.4,53.2-53.5,50.1-20.1,52z"/>
		<path class="st18" d="M-116.8,80.2c7.7-4.5,15.1-8.2,21.7-9.6c2.8,1.1,4.4,2.8,4.8,5.3c-1.6,3-5.2,5.6-10,7.9
			c4.2-0.8,8.1-1.3,11.2-0.8c0.8,2.4,0.6,4.4-0.7,6.1c-3.8,2.2-9.9,4-16.9,5.5c5.7-0.2,11.3-0.3,13.4,0.5c0.6,2.3-0.3,4.3-2.7,6.2
			c-3,0.5-6.6,0.8-10.8,0.8c3.1,0.8,5.9,1.8,7.5,3.4c0.2,1.3-0.9,2.4-2.8,3.3c-4.4-0.2-8.7-0.9-12.9-2c2.5,1.3,4.7,2.6,6.1,4
			c-0.5,2.5-2.3,4.4-5.1,5.8c-1.1-0.5-2.1-1.1-3-1.8c0.7,0.9,1.3,1.8,1.2,2.4c-2.2,0.9-4.8,1.4-7.8,1.3c-0.1,1.2-0.6,2.3-2.2,3.1
			h-3.1c-0.2-3.4-0.6-6.7-1.4-10.1c1.8-3.1,7.8-4.9,10.3-8.2C-116.9,95.9-115.9,88.1-116.8,80.2z"/>
		<path class="st21" d="M-100.4,108.7l5,3.7c8.8,4.4,17.1,8.8,24.4,13.2c1-3.3,0.8-6.9,0.1-10.6c-0.7-3.3-3.1-6-6.3-8.6
			C-70.3,124.4-68.9,122.2-100.4,108.7z"/>
		<path class="st21" d="M-93.8,99.1l10.9,3.8c9.7,1.6,18.8,4.2,26.9,8.6c2.4-3.8,2.6-8.3,0.4-13.7c-2.2-2-4.8-3.6-7.5-5
			c3.5,4.2,5.1,8.7,4,13.4C-68.7,101.6-80.5,99.5-93.8,99.1z"/>
		<path class="st21" d="M-88.5,86.6l12.8,1.7l37.7,4.9c2.4-7.1,2.4-14.7,0.4-22.7c-2.8-1-5.9-1.6-9.1-2c3.3,6,4.4,12,2.3,17.8
			C-60.3,84.5-75,84.6-88.5,86.6z"/>
		<path class="st21" d="M-77.8,71.3l18.5-3.3c8.5-0.8,16.8-2.4,25-5c4.8-2.4,9.5-5.9,14.2-11c-4.4-0.3-8.8-0.4-13-0.5
			C-36.9,63.5-55.9,64.1-77.8,71.3z"/>
		<path class="st28" d="M-129,121.8c-0.1-3.4-0.6-6.7-1.4-10.1c2.6-3.6,7.4-4.6,10.3-8.2c3.2-7.2,4.2-15,3.3-23.3
			c-0.5-1.5,5.2-6.5,11.6-12c7.8-5.2,16.8-9.1,26.9-11.8c-9.1,6.2-17.2,12.4-21.8,18.3c-0.5,14.9-2.2,29.8-20.3,42.1
			c1.4,0.6,2.8,0.9,4.4,0.5c-2,0.9-4.6,1.4-7.8,1.3c0,1.3-0.7,2.3-2.2,3.1L-129,121.8z"/>
		<path class="st3" d="M-118.6,128"/>
		<path class="st3" d="M-112.4,124.2"/>
		<path class="st28" d="M-129.7,130c0.6-2.9,0.9-5.7,0.7-8.2h3.1c1.6-0.7,2.2-1.8,2.2-3.1c3.2,0,5.9-0.4,7.8-1.3
			c0-0.7-0.6-1.5-1.2-2.4c0.9,0.7,1.9,1.3,3,1.8c2.9-1.4,4.5-3.4,5.1-5.8c-1.8-1.6-3.8-2.9-6.1-4c4.5,1.2,8.9,1.9,12.9,2
			c-1.8,1.5-3.5,2.8-5.1,3.5c0.7,1.8,0.9,3.5,0.1,4.8c-2.4,0.7-5,1-7.7,0.7c0.9,3,0.2,4.5-3.5,3.3c1.1,2.1,2,3.8,6.5,4.9
			c-1.7,1.4-4,2-6.7,2.1c-1.7-0.1-2.8-1.2-3.7-3c0.8,2,1.3,3.9,0.7,4.5c-2.8,1.9-4.5,1.7-5.1-0.5
			C-127.5,130.8-128.5,130.8-129.7,130z"/>
		<path class="st19" d="M-214.8,115.9c-1.3,10.3-9.1,18.8-20.2,26.4c11.7-4.5,20.6-12.5,24.9-26.3
			C-211.7,116.3-213.3,116.3-214.8,115.9z"/>
		<path class="st20" d="M-212.1,116.3c1.1,1.5-6,16.7-16.6,21.3c-2.6,2.1-4.1,3.3-6.3,4.8c11.7-4.5,20.6-12.5,24.9-26.3
			C-211.7,116.3-212.1,116.3-212.1,116.3z"/>
		<path class="st23" d="M-133.1,101.9l2.7,9.7c2.6-3.5,7.7-5,10.3-8.2C-125.5,106.9-129.9,106.6-133.1,101.9z"/>
		<path class="st23" d="M-116.8,80.2c1,8.8-0.4,16.3-3.3,23.3C-116.6,90.2-119.6,80.3-116.8,80.2z"/>
		<path class="st28" d="M-165.5,140.3c-0.6-0.1-1.1,0.1-1.5,0.7c-0.3,1-0.3,1.6-0.1,1.8c0.2,0.1,0.7-0.2,1.4-0.8
			C-165.3,141.5-165.3,140.9-165.5,140.3z"/>
		<path class="st25" d="M-136.1,96.2c-0.2-0.1-0.4-0.2-0.5-0.2l0.1-1.6C-136.3,95-136.2,95.5-136.1,96.2z"/>
	</g>
	<g>
		<path class="st17" d="M-168.1,160.8c-9.1,9.5-17.3,19.4-24.7,29.5c1.4,2.4,5,4.3,11.8,5.5c0.6,2.4,5.2,3.6,12.2,4
			c1.1,0.9,3.7,1.4,10.7,0.8c1.1-0.1,1.2-2.9,1.5-5.5c0,1.6,0,3.1,0.4,4c8.9-0.3,15-2.3,17.7-6.1c-4.2-10.5-9-20.6-14.5-29.9
			c-1.2-1.4-2.5-2.6-3.8-3.5c-0.6,1.1-1.1,2.5-1.4,4c-0.2-1.6-0.8-3.1-1.9-4.2c-1.3,0.8-2.6,2-3.8,3.5c0.4-1.4,0.4-2.9,0-4.3
			C-165.2,158.9-166.6,159.6-168.1,160.8z"/>
		<path class="st17" d="M-129.7,130c1.2,0.9,2.2,0.8,3-0.9c0.7,2.4,2.5,2.2,5.1,0.5c0.7-0.6,0-2.6-0.7-4.5c0.8,1.7,1.9,3,3.7,3
			c2.9-0.1,5.2-0.7,6.7-2.1c0.3-0.6,0-1.2-0.5-1.8c3.8,0.6,7.2,0.4,9.9-1.3c0.5-1.8-2-3.8-4.9-5.9c3.1,2.3,6.1,4.2,8.9,4
			c4-0.1,6.7-1.1,7.8-3.3c0-1.3-2.6-3.3-4.9-5.3c8.4,4.1,16.5,8.4,24.4,13.2c1.1-2.3,0.7-6.4,0.1-10.6c-1.4-5.6-6.3-9.1-12-12.1
			c9.8,1.5,18.8,4.2,26.9,8.6c2.6-4,2.4-8.6,0.4-13.7c-4.9-4.3-11.8-7.3-20-9.5c14.6,2,28.3,3.7,37.7,4.9c2.4-7.8,2.3-15.4,0.4-22.7
			C-43.1,68.4-51,68-59.5,68c9.6-1.1,18.3-2.6,25-5c5.4-2.6,10-6.6,14.2-11c-35.5-2.2-64.6,2.5-85.1,16.2
			c-6.4,5.5-12.1,10.5-11.6,12c0.8,8.3-0.1,16.1-3.3,23.3c-2.9,3.5-7.7,4.6-10.3,8.2C-129,117.8-128.5,123.9-129.7,130z"/>
		<path class="st17" d="M-219.3,62.1c15.5-22.5,47.9-37.3,66-36.7c-4.7,11.7-17,19.3-37.2,22.8C-200.4,51.5-210,56.3-219.3,62.1z"/>
		<path class="st17" d="M-221.6,66.2c7-3.7,15.9-5.3,26.7-4.7c12.1-3.5,24.7-6.9,28.9-11.9c1.3-1.3,2.5-2.6,3.4-4
			c-9.8-0.5-19,0.5-27.8,2.6c-10,3.4-19.6,8.1-28.9,14L-221.6,66.2z"/>
		<path class="st17" d="M-182,32.5c-8.8-4.3-19.4-4.5-30.3-2.5l11.4,3.1c-12.1-1.4-23.6,3.6-34.8,12.2l11.2-1.2
			c-8.9,5.8-12.5,13.2-12.6,21.7l6.7-9.7c-2.3,7.2-1.6,14.8,0.5,22.7L-228,67l1.1,11.4c2.2-5.1,4.3-9.9,6-13.6
			c1.2-15.3,10.2-23.3,25.5-25C-191.2,37-186.8,34.6-182,32.5z"/>
		<path class="st17" d="M-217,73.2"/>
		<path class="st17" d="M-228.6,82.5c6.5,5.1,17.1,3,22.4-3.3c-0.4-2.2-6.5-4.3-11.9-6.2c9,0.4,18.1,0.3,27.2-0.4
			c5.5-1.5,8.8-3.9,9.9-7.4c-0.6-2-5.9-3.2-13.9-3.9c-10.2-0.6-19.2,0.8-26.7,4.7L-228.6,82.5z"/>
		<path class="st17" d="M-172.4,45.6c3.2-0.2,6.5-0.2,9.9,0l0.6-0.2l-5.3-4.9c-0.2,0.4-7.6,3.7-8,3.7L-172.4,45.6z"/>
		<path class="st17" d="M-151,82.6c-3.1,4.4-1.9,8.1-6.5,14.6c0,0-5-2.7-6.8-2.6c-18.2-1.2-26.8-2.8-37.9-21.4l-5.1,0.1
			c12.9,22.6,15.6,24.4,43.3,29.1c3.4,0.7,7,8.5,7,8.5c6.4-0.1,10.5-3.6,11.8-11.5c-3.1-2.3-5.8-4.7-7.5-7.6c0.9-3.1,2.5-6,4.8-8.7
			C-148.8,82.9-149.8,82.8-151,82.6z"/>
		<path class="st17" d="M-145.2,99.5c-3-2.2-5.6-4.7-7.5-7.6c0.9-3.2,2.5-6.1,4.8-8.7c3.8,1,6.9,2.8,8.9,6l-1,0.7
			c-2.2-0.5-4.4-0.8-6.5-0.6c-1,1.4-1.6,3-1.9,4.6C-147.6,95.6-146.5,97.5-145.2,99.5z"/>
		<path class="st17" d="M-132.5,92.7c-0.8-1.3-1.9-2.4-3.2-3.5c2.2-0.3,4.2-0.7,6-1.3c0.7,7.6-1,11.5-3.5,14
			C-131.4,97-130.1,92.6-132.5,92.7z"/>
		<path class="st17" d="M-146.6,83.5c0,0-0.2,3.7,0.6,4.6c1.5,0.9,7.1,1.1,7.1,1.1C-140.5,86.5-143.2,84.6-146.6,83.5z"/>
		<path class="st17" d="M-143.5,84.9c-0.6,1.3-0.7,2.5-0.4,3.9c1.1,0.2,2.2,0.3,3.3,0.4c0.3-0.6,0.2-1.3,0-2.1
			C-141.5,86.2-142.4,85.5-143.5,84.9z"/>
		<path class="st17" d="M-142.2,86.5c-0.4,0-0.6,0.4-0.6,1.6c0,0.6,0.1,0.9,0.6,0.9s0.7-0.3,0.7-0.9
			C-141.6,87.1-141.8,86.5-142.2,86.5z"/>
		<path class="st17" d="M-130.3,88.1c0.1,0.5-0.4,3.7-1.4,3.9l-1.7-0.4c-0.1-0.1-1.4-1.7-2.3-2.4C-133.9,89-132.1,88.6-130.3,88.1z"
			/>
		<path class="st17" d="M-132.4,91.8c0.6-0.9,0.8-2,0.6-3.3c-1.1,0.3-2.1,0.5-3.1,0.6c-0.1,0.2-0.2,0.5-0.1,0.7
			c0.6,0.5,1.1,1.1,1.6,1.8L-132.4,91.8z"/>
		<path class="st17" d="M-133.2,89.2c-0.3-0.1-0.7,0.5-0.7,0.8c0,0.2,0.1,1,0.1,1l0.5,0.6c0,0,0.4-0.7,0.4-1
			C-132.8,90.2-132.8,89.3-133.2,89.2z"/>
		<path class="st17" d="M-132.5,92.7c-0.9-1.3-2-2.5-3.2-3.5c-0.9-1.1-2-1.2-3.3,0l-1,0.7c-3.2,0.6-3.9,1.7-2.6,2.3
			c4.2-0.7,6.4,0.7,6.6,4.8C-135.3,97.3-131.9,94.8-132.5,92.7z"/>
		<path class="st17" d="M-142.6,92.3c0.3,5.5,2.1,8.6,5.6,8.5c-0.2-1.8-0.1-3.4,0.3-4.8l0.1-1.6C-137.7,92.2-139.8,91.8-142.6,92.3z
			"/>
		<path class="st17" d="M-141.1,92.1c-0.5,3.8,0.8,6.1,3.1,7.7l1.3-3.8l0.1-1.6C-137.3,92.8-138.9,92-141.1,92.1z"/>
		<path class="st17" d="M-136.7,96l0.1-1.6c-0.8-1.7-2.3-2.4-4.5-2.3c-0.2,1.3-0.1,2.6,0.2,3.8C-139.5,95.6-138.1,95.6-136.7,96z"/>
		<path class="st17" d="M-138,99.8c-1.7-1.2-2.5-2.5-2.9-3.9c1.6-0.3,2.9-0.3,4.2,0.1L-138,99.8z"/>
		<path class="st17" d="M-135.6,89.2c2-0.2,4-0.7,6-1.3c6.8-3,9.1-9.3,7.8-18.2c0.5-3,0.3-5.9-0.5-8.8c-1.5,5.9-3.4,11.3-6.6,15.4
			c0.1,3.4-1.6,6.7-4.8,9.8l-2.5,2.7C-135.9,88.9-135.8,89-135.6,89.2z"/>
		<path class="st17" d="M-126.9,58c1.4,2.7,2.4,5.7,2.8,9.1c-0.9,2.6-2,5-3.3,7.1l-0.5,0.8C-128.3,68.5-128,62.8-126.9,58z"/>
		<path class="st17" d="M-136.1,88.8l-0.9-0.4c4.2-18-1-22.4-12.2-17.8c-1.6-1.1-3.4-2-5.4-2.6c-2.8-3.6-3.8-7.6-4.2-11.7
			c-0.1-1.3,0-2.9,0.3-4.8c1.4,3,2.9,5.8,5.2,7.5c-1.9-9.4,2.2-16.4,9.3-22.2c-0.7,5.1-1,9.8-0.6,13.3c3.4,3.2,6.1,7,8.1,11.6
			c0-1.9,0.5-3.4,1.2-4.7c0.4,3,1.3,5.3,2.6,7.1l1.2-3l2.6,15.3C-128.9,82.2-132.8,85.3-136.1,88.8z"/>
		<path class="st17" d="M-161.9,45.4c4,3.8,6.6,8.5,8.7,13.5c-2.3-1.8-3.9-4.5-5.2-7.5c-0.3,1.6-0.4,3.2-0.3,4.6l-7.2-6.5
			c1.2-1.2,2.4-2.5,3.4-4L-161.9,45.4z"/>
		<path class="st17" d="M-137,88.3c4.3-17.9-0.9-22.3-12.2-17.8c-7.7,3.6-12.1,8.7-16,13.9c14.9-11.1,29-22.4,27,4.2L-137,88.3z"/>
		<path class="st17" d="M-138,82.7c-0.3-6.7-2-11.3-7.3-10.4C-141.9,74.6-139.5,78-138,82.7z"/>
		<path class="st17" d="M-138.9,89.2l0.7-0.6l0.2-5.9c-1.4-4.6-3.7-8.1-7.3-10.4c-3.4,0.7-8.1,3.4-13.6,7.4c1.9,1.4,4.6,2.5,8,2.8
			C-145,83.2-141.3,85.6-138.9,89.2z"/>
		<path class="st17" d="M-149.2,70.6c-1.4-0.9-3.2-1.8-5.4-2.6c-3.5-1.2-7-4.9-10.5-12.6c-1.4,4.6-1.3,9.1,0.7,13.5l-5.2-3.8
			c1,5.9,4.4,10.2,9.1,13.7C-157.6,75.6-153.5,72.5-149.2,70.6z"/>
		<path class="st17" d="M-227.9,101.5c0.1,4.2,1.2,7.1,4.1,7.7c1.1,2.2,2.8,3.6,5.9,3.4c-0.3,1.8,0.6,2.9,3.1,3.4
			c1.3,0.4,3.6,0.4,4.8,0.2c2.1-0.4,5.3-1.8,7.4-4.6c-2.9,4-5.6,7.8,0.5,7.8c3.6,0.5,6.9-1.5,9.9-4.6c-2.6,2.4-5.2,4.9-5.1,6.6
			c2.7,2.7,9.2,1.6,16.1-4.1c-2.5,2.4-5,4.7-5.1,6.4c1.7,1.9,6,1.3,11.4-0.4c4.3,0.4,7.2-0.8,9.5-2.6c-1.4,3.8-2.5,7.3-2.4,10.3
			c2.3,1.8,2.7,4.3,1,7.4l-0.2,2.7c0.2-0.5,0.7-0.8,1.5-0.7c0.2,0.5,0.2,1.1-0.2,1.7l1.8-1c-0.1-3.1,6.8-2.6,4.8,0.7
			c0.5,2.1-0.4,3.8-2.8,5.2c0.1-1.2,0-2-0.7-2.2l-3.5,1.4c-0.7,0.8-0.9,1.7-0.6,2.9c-0.1,0.6-0.6,1-1.3,1.2l-0.2,1.9
			c0.4,0.6,0.3,1.2,0,1.9l1.3-0.1c1.1,1.7,0.4,4.1-1.1,6.8c1.5-1.1,3-2.1,4.3-2.3c0.3,1.5,0.4,2.9,0,4.3c1.3-1.6,2.5-2.8,3.8-3.5
			c1,1.2,1.7,2.6,1.9,4.2c0.3-1.5,0.7-2.9,1.4-4c1.5,1,2.7,2.2,3.8,3.5c-0.4-1.4-0.6-2.7-0.7-3.9c0.6-1.5,2-2.8,3.7-4
			c3.9-3,8.4-7.4,13.2-12.2c8.3-8.6,8.9-19.5,6.3-31.3l-2.7-9.7c2.3-6.3,2.5-9.3,0.7-9.2c0.5,2.3-3.2,4.6-3.6,4.3
			c0-0.3,0-0.6-0.1-0.9c0,0-0.3-0.2-0.5-0.2c-0.4,1.6-0.5,3.2-0.3,4.8c-3.9,0-5.4-3.4-5.6-8.5c-1.4-0.8-0.1-1.8,2.6-2.3
			c-2.6-0.5-4.9-0.8-6.5-0.6c-1,1.3-1.6,2.8-1.9,4.6c0.7,1.6,1.8,3.5,3.2,5.6c-1.3,8.4-5.7,11.3-11.8,11.5c-1.8-3.1-3.8-7.6-7-8.5
			c-30.7-5.5-29.8-7.1-43.3-29.1c-3.8,0-7.4-0.1-10.8-0.2c7.4,2.4,11.6,4.5,11.9,6.2c-6.6,6.8-15.9,7.9-22.4,3.3
			C-231.6,88.4-230.7,102.1-227.9,101.5z"/>
		<path class="st17" d="M-167.9,146.8c0.3-0.4,1.9-0.7,1.9-0.7l3.5-1.4c-1.1-4.3,2-5.5,3.5-3c2.2-3.1-4.7-4-4.8-0.7l-1.8,1
			c0,0-1.1,1-1.4,0.8c-0.4-0.2,0.1-1.8,0.1-1.8l0.2-2.7c1.6-3,1.3-5.5-1-7.4c-1.2,0.3-1.9,1-2.3,2c0.5-0.3,1-0.4,1.4-0.4
			c3.3,2,2.2,4.2-1.3,6.4c-0.4-0.3-0.7-0.5-0.8-0.7l-0.1,3.2c-0.1,0.4-0.4,0.6-0.9,0.7l-2.8-2c0.5-3.3-4.8-3.8-4.9-1.3
			c2.8,0.1,4.2,1.8,2.4,4.5c0.8,0.2,1.6,0.2,2.1,0c0.1,1.1,0.4,2,2.5,2.5c0.5,0.2,0.8,0.4,0.9,0.8l-0.2,3.7c1.3,1.2,2.2,2.3,2.3,3.4
			c-0.1,1.1-0.5,1.9-1.9,1.9c-0.8,0.1-1.4-0.3-2.1-0.7c0.1,1.3,3.6,3.5,5.3-0.8c0.3-0.8,0.3-1.4,0-1.9l0.2-1.9
			C-168.1,150.2-168.5,147.5-167.9,146.8z"/>
		<path class="st17" d="M-168.1,150.2c0.8-0.3,1.3-0.7,1.3-1.2c-0.3-1.1-0.1-2.1,0.6-2.9c0,0-1.6,0.3-1.9,0.7
			C-168.5,147.5-168.1,150.2-168.1,150.2z"/>
		<path class="st17" d="M-170.8,139c-1,0.4-1.6,1.3-1.9,2.4l1,0.7c0.5-0.1,0.8-0.3,0.9-0.7V139z"/>
		<path class="st17" d="M-171.6,146.6c-0.1-0.4-0.5-0.7-0.9-0.8l-0.9-0.3c0,0.9,0.1,1.8,0.5,2.6c-0.2,0.1-0.5,0.1-0.9,0
			c0.5,0.8,2.1,2.3,2.1,2.3L-171.6,146.6z"/>
		<path class="st17" d="M-159.1,141.7c-1.4-2.3-4.4-1.6-3.5,3c0.6,0.1,0.8,0.9,0.7,2.2C-159.3,145.4-158.7,143.7-159.1,141.7z"/>
		<path class="st17" d="M-179.5,138.7c-2.2,2.3-1.9,4.7,0.1,7.1c0.4-1.7,1.1-2.8,2.3-2.6C-175.1,140.5-177,138.8-179.5,138.7z"/>
		<path class="st17" d="M-168.7,132.5c-0.5,0-1,0.2-1.4,0.4c-1.8,1.3-1.2,3.9-0.6,5.3c0.2,0.3,0.4,0.5,0.8,0.7
			C-166.2,136.5-165.7,134.3-168.7,132.5z"/>
		<path class="st17" d="M-173.5,154.8c-0.2-1.8,0.1-3.6,0.7-5.6c0.1,0.1,0.9,0.9,1,1c1.3,1.1,2.1,2.3,2.3,3.4
			C-169.6,155.6-171.7,156.1-173.5,154.8z"/>
		<path class="st17" d="M-136.7,143c3.4,2.5,5.5,5.6,4.8,10.1c0.8,0.3,1.4,0.7,1.9,1.4c-0.9,0.3-1.9,0.4-2.9,0.4
			c0.7,0.6,1.1,1.3,1.2,2.1c-1.2,0.1-2.2-0.3-3.2-0.8c0.6,0.6,1,1.2,0.9,1.9c-0.5,0.3-1,0.3-1.5,0.1c-0.2,0.8-0.2,1.7,0,2.6
			c-0.5-0.1-0.9-0.3-1.2-0.7c-0.4,0.4-0.6,1.1-0.7,1.9c-0.8-1.1-1.3-2.3-1.7-3.5c-8.4,2.4-6.7-2.4-10.8-3.4
			C-145.1,151.3-140.7,147.2-136.7,143z"/>
		<path class="st17" d="M-132.9,154.9c2.3,1.7,4.5,3.3,5.9,3.7c0.5-0.4,0.8-0.9,1-1.7v-1.5c-1.8-2.9,1.9-6,3.7-3.3
			c-0.7-0.2-1.6-0.4-2.1,0.1c-1,0.9-1,2.9-0.2,4.1c0.6,0.9,1.8,0.7,2.6,0.5c1-0.5,2-0.4,3.1,0.2c-0.7,0.6-1.2,1.4-1.6,2.2
			c2,1,5.1-0.3,5.8,1.2c-2.2,0.1-3.4,1-2.7,3.3c-1.1-0.1-2-0.5-2.3-1.3c-1-0.2-2.1,0-3.1,0.3c-1.5,1.1-2.5,2.4-3.1,4
			c0.3,0.5,0.5,1,0.3,1.3c-2.4-0.1-3,1.3-2.5,3.5c-1.7,0-2.8-1.5-3-4c0.4-0.8,0.9-1.4,1.6-1.5c0.6-1,0.9-2.1,1.2-3.3
			c-1-0.9-2.6-1.8-4.3-2.7c-1.6,0.8-2.4,0.6-2.9-0.3c0-0.4,0-0.9,0.1-1.4c0.6,0.2,1.1,0.1,1.5-0.1c0.1-0.5-0.2-1.2-0.9-1.9
			c1,0.6,2,0.9,3.2,0.8C-131.8,156.1-132.3,155.4-132.9,154.9z"/>
		<path class="st17" d="M-122.5,170.1c-1.7,0-2.8-0.7-3.2-2.1c-2.2,0-3,1.2-2.5,3.5C-125.1,173.1-123.5,172.1-122.5,170.1z"/>
		<path class="st17" d="M-114.8,160.2c-2.3,0.1-3.3,1.1-2.7,3.3c1.9,0.2,3,1.3,3.7,2.8C-112.3,163.7-112.5,161.6-114.8,160.2z"/>
		<path class="st17" d="M-122.3,152.1c0,0-1.5-0.5-2.1,0.1c-1,0.8-1,3.3-0.2,4.1c0.8,1.1,2.6,0.5,2.6,0.5c1-0.5,2-0.4,3.1,0.2
			C-118.8,154.5-119.8,152.9-122.3,152.1z"/>
		<path class="st17" d="M-120.9,152.7c0.9-3,2.6-4.1,5.4-2.8c-2.5,1.6-2.9,3.1-0.7,4.6c0.2,0.6-0.2,1-1.9,0.6l-0.9,1.7
			C-118.9,155-119.5,153.5-120.9,152.7z"/>
		<path class="st17" d="M-115.5,149.9c2.9,0.6,3.9,2.6,3.7,5.6c-1.1-1.4-2.6-1.7-4.4-1C-118.5,152.9-117.8,151.4-115.5,149.9z"/>
		<path class="st17" d="M-133.1,101.9c4.2,0.3,7.5-1.6,10.2-4.9c1-5.5,1-10.5-0.4-14.6c1.4-2.4,1.9-5,1.9-7.9
			c3.9-5.6,9.5-6.5,15.4-12.3c0.2,1,0.2,1.9,0,2.8c0.6,1.1,1,2.2,0.9,3.1c-7.1,5.9-12.1,10.6-11.6,12c0.8,8.7-0.2,16.4-3.3,23.3
			c-2.9,3.6-7.4,4.1-10.3,8.2L-133.1,101.9z"/>
		<path class="st17" d="M-20.1,52c-34.1-3.7-63.4-0.3-86,13.1c0.7,1.2,1,2.3,0.9,3.1C-83.4,53.2-53.5,50.1-20.1,52z"/>
		<path class="st17" d="M-116.8,80.2c7.7-4.5,15.1-8.2,21.7-9.6c2.8,1.1,4.4,2.8,4.8,5.3c-1.6,3-5.2,5.6-10,7.9
			c4.2-0.8,8.1-1.3,11.2-0.8c0.8,2.4,0.6,4.4-0.7,6.1c-3.8,2.2-9.9,4-16.9,5.5c5.7-0.2,11.3-0.3,13.4,0.5c0.6,2.3-0.3,4.3-2.7,6.2
			c-3,0.5-6.6,0.8-10.8,0.8c3.1,0.8,5.9,1.8,7.5,3.4c0.2,1.3-0.9,2.4-2.8,3.3c-4.4-0.2-8.7-0.9-12.9-2c2.5,1.3,4.7,2.6,6.1,4
			c-0.5,2.5-2.3,4.4-5.1,5.8c-1.1-0.5-2.1-1.1-3-1.8c0.7,0.9,1.3,1.8,1.2,2.4c-2.2,0.9-4.8,1.4-7.8,1.3c-0.1,1.2-0.6,2.3-2.2,3.1
			h-3.1c-0.2-3.4-0.6-6.7-1.4-10.1c1.8-3.1,7.8-4.9,10.3-8.2C-116.9,95.9-115.9,88.1-116.8,80.2z"/>
		<path class="st17" d="M-118.6,128"/>
		<path class="st17" d="M-112.4,124.2"/>
		<path class="st17" d="M-214.8,115.9c-1.3,10.3-9.1,18.8-20.2,26.4c11.7-4.5,20.6-12.5,24.9-26.3
			C-211.7,116.3-213.3,116.3-214.8,115.9z"/>
		<path class="st17" d="M-223.7,85.1c-0.6,0.8-3.2,4.7-0.4,9.8c2.4-3.7,5.5-7,9.5-9.5"/>
		<path class="st17" d="M-222.7,92.9c-0.7,5.1,7.4,5.1,7.9,5c0.3-0.1,7.1-4.4,10.2-6.4"/>
		<path class="st17" d="M-198,100.3c-3.5,1.4-6.6,2.8-9.9,4c-10.4,0.5-10.5-4.2-10.4-4.4c0.1-0.2,2.9-1.7,3.5-2"/>
		<path class="st17" d="M-207.9,104.3c-0.7,0-2.3,1.7-2,2.3c1.7,2.6,10.4,1.9,13,1.5"/>
		<path class="st17" d="M-188.9,104.2c-0.9-0.3-8.5,2.9-9.5,5.7c-0.3,0.8,1.5,2.1,1.9,2.3c0.9,0.7,3.5,0.9,5.7,0.5
			c1.6-0.2,6.4-2.5,10-5.6"/>
		<path class="st17" d="M-184.5,109.8c-0.6,0.5-5.7,4.3-4.6,5.9c1.1,1.6,10.2,1.4,13.5-0.1c2.4-1.1,4.4-3.3,6.3-5.4"/>
		<path class="st17" d="M-175.6,115.6c-1.5,3.9,6.5,1.1,7.4,1.1c5.3,0.3,9-2.5,9.2-2.9"/>
		<path class="st17" d="M-174.9,123.3c0.3-1.1,4.7-3.8,6-5.3"/>
		<path class="st17" d="M-165.4,120.7c0.7-0.6,1.1-0.8,1.8-1.4"/>
		<path class="st17" d="M-217.9,112.5c1.8-0.4,6.3-2.9,8.3-5.4"/>
		<path class="st17" d="M-223.8,109.2c0.1-0.4,3.6-7,5.5-9.3"/>
		<path class="st17" d="M-227.9,101.5c-0.2-1.3,1.9-7.9,2.7-9.9"/>
		<path class="st17" d="M-165.8,135.2c3.6-0.7,7.8,1.5,8.9,5.1"/>
		<path class="st17" d="M-166.9,154c5.2,1.1,11-3.9,10.6-8.8"/>
		<path class="st17" d="M-156.6,195.1c1.5-10,2.3-32.4,1.9-33.8"/>
		<path class="st17" d="M-168.7,199.8c0.1-1.1,1.5-6.1,2.2-7.4"/>
		<path class="st17" d="M-180.8,195.8c-0.1-0.9,0.2-1.7,0.5-2.5c0.7-1.7,14.3-27.3,16.6-30.4"/>
		<path class="st17" d="M-122.3,156.8c-0.7,0.7-1.2,1.5-1.6,2.4"/>
		<path class="st17" d="M-123.7,118.6c-0.5-0.6-3.9-4.7-3.9-4.7"/>
		<path class="st17" d="M-122.7,110.7c0,0,4.6,3.9,5.5,4.2"/>
		<path class="st17" d="M-109.5,101.3c0,0,1.9,0.6,2.6,0.7"/>
		<path class="st17" d="M-109.7,94.5c0,0,1.8,0,2.8,0"/>
		<path class="st17" d="M-108.9,85.8c0,0,6.8-1.9,8.5-2.1"/>
		<path class="st17" d="M-106.1,64.9c-1.3,0.7-3,3.1-3,3.1"/>
		<path class="st17" d="M-90.8,74.3c4.7-1.8,26.3-5.2,31.6-6.3"/>
		<path class="st17" d="M-111.1,114.4c0,0,3.1,2,3.8,2.5"/>
		<path class="st17" d="M-117.7,118.1c0.6,0.6,4.1,4.6,5.3,6.1"/>
		<path class="st17" d="M-124.1,122c0,0,1.8,2.8,1.9,3"/>
		<path class="st17" d="M-127.8,123.2c0.1,0.8,1,5.3,1.1,5.9"/>
		<path class="st17" d="M-127.3,78.1c1.1,0.1,5.2-5.7,5.5-8.3"/>
		<path class="st17" d="M-132.1,66.4c-0.1-0.9-0.5-1.6-0.6-2.5"/>
		<path class="st17" d="M-140.8,60.8c-0.4-0.5-3.6-7.5-3.7-10.9"/>
		<path class="st17" d="M-149.7,63.9c-0.5-1-3.6-5-3.6-5"/>
		<path class="st17" d="M-164.4,68.9c0.8,1.6,7.9,3,7.9,3"/>
		<path class="st17" d="M-230.4,56c0.2-0.5,1.2-1.6,1.7-2"/>
		<path class="st17" d="M-168.2,116.7c2.3-1.4,4.3-3.1,6.3-4.9"/>
		<path class="st17" d="M-218.1,73.1c-1.4-0.3-2.6-0.1-3.2,0"/>
		<path class="st17" d="M-153.4,102c0,0-0.7-1.2-0.8-1.3c-0.8-0.8-2.5-2.7-3.3-3.5"/>
		<path class="st17" d="M-123,97c0,0,1.7-1.4,2.2-1.6"/>
		<path class="st17" d="M-165.5,140.3c-0.6-0.1-1.1,0.1-1.5,0.7c-0.3,1-0.3,1.6-0.1,1.8c0.2,0.1,0.7-0.2,1.4-0.8
			C-165.3,141.5-165.3,140.9-165.5,140.3z"/>
		<line class="st17" x1="-75.6" y1="88.3" x2="-88.8" y2="86.4"/>
		<line class="st17" x1="-82.9" y1="102.8" x2="-94.1" y2="99"/>
		<line class="st17" x1="-95.4" y1="112.4" x2="-101.1" y2="108.1"/>
	</g>
</g>
<g id="Capa_2_1_">
	<circle class="st21" cx="263.9" cy="36.1" r="5.4"/>
	<circle class="st19" cx="263.9" cy="49.5" r="5.4"/>
	<circle class="st20" cx="263.9" cy="63" r="5.4"/>
	<circle class="st26" cx="263.9" cy="76.4" r="5.4"/>
	<circle class="st27" cx="263.9" cy="89.9" r="5.4"/>
	<circle class="st18" cx="263.9" cy="103.3" r="5.4"/>
	<circle class="st28" cx="263.9" cy="116.7" r="5.4"/>
	<circle class="st24" cx="263.9" cy="130.2" r="5.4"/>
	<circle class="st29" cx="263.9" cy="143.6" r="5.4"/>
	<circle class="st22" cx="263.9" cy="157.1" r="5.4"/>
	<circle class="st23" cx="263.2" cy="170.5" r="5.4"/>
	<circle class="st4" cx="243.8" cy="36.7" r="5.4"/>
	<circle class="st1" cx="243.8" cy="50.2" r="5.4"/>
	<circle class="st2" cx="243.8" cy="63.6" r="5.4"/>
	<circle class="st13" cx="243.8" cy="77" r="5.4"/>
	<circle class="st14" cx="243.8" cy="90.5" r="5.4"/>
	<circle class="st0" cx="243.8" cy="103.9" r="5.4"/>
	<circle class="st15" cx="243.8" cy="117.4" r="5.4"/>
	<circle class="st9" cx="243.8" cy="130.8" r="5.4"/>
	<circle class="st16" cx="243.8" cy="144.3" r="5.4"/>
	<circle class="st5" cx="243.8" cy="157.7" r="5.4"/>
	<circle class="st6" cx="243" cy="171.2" r="5.4"/>
</g>
</svg>
